<svg id="Capa_6" data-name="Capa 6" xmlns="http://www.w3.org/2000/svg" width="552.24081" height="302.21998" viewBox="0 0 552.24081 302.21998">
  <defs>
    <style>
      .cls-1 {
        fill: #3f3d56;
      }

      .cls-2 {
        fill: #d0cde1;
      }

      .cls-3 {
        fill: #85c2ff;
      }

      .cls-4 {
        fill: #2f2e41;
      }

      .cls-5 {
        fill: #ffb8b8;
      }

      .cls-6 {
        fill: #575a89;
      }

      .cls-7 {
        fill: #44a2ff;
        stroke: #707070;
      }

      .cls-8 {
        fill: #6c63ff;
      }
    </style>
  </defs>
  <g id="Grupo_1337" data-name="Grupo 1337">
    <rect id="Rectángulo_647" data-name="Rectángulo 647" class="cls-1" x="176.61151" y="31.37167" width="375.6293" height="244.55686"/>
    <rect id="Rectángulo_648" data-name="Rectángulo 648" class="cls-2" x="165.22853" y="30.00273" width="28.68458" height="246.83761"/>
    <rect id="Rectángulo_649" data-name="Rectángulo 649" class="cls-2" x="249.00569" y="97.98589" width="75.12573" height="0.91242"/>
    <path id="Trazado_728" data-name="Trazado 728" class="cls-2" d="M1103.6,694.493H1000.24529V597.76758H1103.6Zm-102.44423-.91244h101.53374V598.67507H1001.15581Z" transform="translate(-608.27286 -464.18799)"/>
    <polygon id="Rectángulo_650" data-name="Rectángulo 650" class="cls-2" points="392.117 134.366 392.738 133.699 495.175 229.47 494.554 230.137 392.117 134.366"/>
    <polygon id="Rectángulo_651" data-name="Rectángulo 651" class="cls-2" points="392.114 229.511 494.551 133.741 495.173 134.408 392.736 230.179 392.114 229.511"/>
    <rect id="Rectángulo_652" data-name="Rectángulo 652" class="cls-2" x="249.00569" y="165.05661" width="106.08691" height="0.91242"/>
    <rect id="Rectángulo_653" data-name="Rectángulo 653" class="cls-2" x="249.00569" y="181.48206" width="106.08691" height="0.91242"/>
    <rect id="Rectángulo_654" data-name="Rectángulo 654" class="cls-2" x="249.00569" y="197.90751" width="106.08691" height="0.91242"/>
    <ellipse id="Elipse_96" data-name="Elipse 96" class="cls-1" cx="337.37047" cy="9.63989" rx="9.61973" ry="9.63989"/>
    <ellipse id="Elipse_97" data-name="Elipse 97" class="cls-3" cx="364.42585" cy="9.63989" rx="9.61973" ry="9.63989"/>
    <ellipse id="Elipse_98" data-name="Elipse 98" class="cls-2" cx="391.48184" cy="9.63989" rx="9.61973" ry="9.63989"/>
    <rect id="Rectángulo_655" data-name="Rectángulo 655" class="cls-1" y="301.07037" width="323.58548" height="1.14961"/>
    <ellipse id="Elipse_99" data-name="Elipse 99" class="cls-4" cx="95.50257" cy="105.8878" rx="6.32995" ry="6.34321"/>
    <ellipse id="Elipse_100" data-name="Elipse 100" class="cls-4" cx="108.86948" cy="84.97848" rx="18.16479" ry="19.96979"/>
    <path id="Trazado_729" data-name="Trazado 729" class="cls-4" d="M704.35825,635.03642l-.46909,2.34913s-1.40665,1.4096-.70333,2.11441.46909,3.99408.46909,3.99408l-1.40665,9.16242-8.20263,37.12036a70.72526,70.72526,0,0,0-19.2247,20.90933c-8.43994,13.86131-8.67479,17.3853-8.67479,17.3853l9.37812,3.99406,23.44467-28.42678s6.56479-3.99406,8.909-7.51624,16.88048-39.93958,16.88048-39.93958l8.20569,38.05989s-.46909,13.86191,1.64089,22.789a95.80574,95.80574,0,0,1,2.34422,17.15059l11.019-1.17487s-.70334-33.36163-1.87575-36.88561c0,0,4.9233-40.64437-4.92329-56.85543l-5.86085-23.72791-9.84659-.47007Z" transform="translate(-608.27286 -464.18799)"/>
    <path id="Trazado_730" data-name="Trazado 730" class="cls-4" d="M677.3994,731.12663l-11.72233-7.28277-5.39239,10.33729s-11.95657,7.28337-9.37811,12.68641,4.92329,6.8133,4.92329,6.8133l1.6409-.70479,3.04755,5.6384s7.97146,11.51215,20.86559,5.63839a4.73023,4.73023,0,0,0,0-5.63839c-2.11-3.05392-7.50052-9.6325-7.50052-9.6325Z" transform="translate(-608.27286 -464.18799)"/>
    <path id="Trazado_731" data-name="Trazado 731" class="cls-4" d="M749.14068,731.362l-12.89475.93954,1.40665,10.572s-6.09572,15.03617-1.87574,16.211a61.70134,61.70134,0,0,0,9.14327,1.64433l.46909-1.64433s18.05228,9.86721,24.61709,2.58448c0,0,1.40665-5.16832-2.57908-6.8133s-11.72232-5.16832-12.6599-7.048S749.14068,731.362,749.14068,731.362Z" transform="translate(-608.27286 -464.18799)"/>
    <ellipse id="Elipse_101" data-name="Elipse 101" class="cls-5" cx="109.4517" cy="88.14947" rx="11.25324" ry="11.27682"/>
    <path id="Trazado_732" data-name="Trazado 732" class="cls-5" d="M709.28461,559.15137s1.40666,9.16242-5.62661,12.68643,18.52138,7.75283,18.52138,7.75283-3.98573-6.10849-3.2824-8.22288,4.22-10.572,4.22-10.572Z" transform="translate(-608.27286 -464.18799)"/>
    <path id="Trazado_733" data-name="Trazado 733" class="cls-6" d="M707.40887,572.07252s-6.799-3.99408-9.14326-2.11441-3.04755,59.43991,5.39238,61.789l.23424,3.05394s-3.04755,1.40959-.23424,1.40959,15.94231-9.63249,16.4114-13.1565,14.06656-4.22882,14.06656-4.22882,3.51664,15.03618,4.68907,14.56611,1.17242-10.572.70333-11.98163,5.39238-5.87375,3.75027-8.693-6.09572-12.4517-6.09572-12.4517.46847-6.10849-5.86147-11.74688c0,0-1.84993-10.4944-10.18534-10.65088A21.04388,21.04388,0,0,1,707.40887,572.07252Z" transform="translate(-608.27286 -464.18799)"/>
    <path id="Trazado_734" data-name="Trazado 734" class="cls-4" d="M706.52049,538.61416v12.89035h2.97869L713.29,547.434l-.50782,4.07047h13.16772l-.81215-4.07047,1.62491,4.07047h2.0983V538.61416Z" transform="translate(-608.27286 -464.18799)"/>
    <rect id="Rectángulo_656" data-name="Rectángulo 656" class="cls-7" x="28.65384" y="189.92612" width="97.141" height="88.90109"/>
    <path id="Trazado_735" data-name="Trazado 735" class="cls-1" d="M694.44711,700.40554c-8.18909,13.39737-5.37148,30.065-5.37148,30.065s16.09477-5.05684,24.28448-18.45421,5.37148-30.065,5.37148-30.065S702.6362,687.00753,694.44711,700.40554Z" transform="translate(-608.27286 -464.18799)"/>
    <path id="Trazado_736" data-name="Trazado 736" class="cls-2" d="M688.74117,730.57953l-.4654-.07392c-.16846-.02651-16.92782-2.80935-26.965-14.84335s-9.79556-29.05644-9.79248-29.22709l.00984-.47191.4654.07392c.16846.02651,16.92782,2.80935,26.965,14.844h0c10.03718,12.034,9.79556,29.0558,9.79248,29.22648Z" transform="translate(-608.27286 -464.18799)"/>
    <ellipse id="Elipse_102" data-name="Elipse 102" class="cls-1" cx="81.31367" cy="213.80127" rx="9.04858" ry="9.06754"/>
    <path id="Trazado_737" data-name="Trazado 737" class="cls-5" d="M689.82506,629.39739l2.81393,20.90994s-1.6409,18.32547,4.689,18.56018,2.34423-18.7949,2.34423-18.7949l-.70087-19.03026S693.81079,622.58474,689.82506,629.39739Z" transform="translate(-608.27286 -464.18799)"/>
    <path id="Trazado_738" data-name="Trazado 738" class="cls-6" d="M700.37559,571.36772s-1.64089-4.46416-5.15814-.93953-6.56419,12.68644-6.56419,18.32545.70332,38.29524.70332,38.29524-3.75026,1.4096-1.17241,3.524,6.09571-1.17488,6.09571-1.17488,4.689,3.28927,5.15752,3.28927.23424-3.99408.23424-3.99408,2.34422-6.10849,1.87574-10.80736S700.37559,571.36772,700.37559,571.36772Z" transform="translate(-608.27286 -464.18799)"/>
    <path id="Trazado_739" data-name="Trazado 739" class="cls-2" d="M1103.59945,549.39873H856.82V532.518h246.77953Zm-245.86593-.91241h244.9554v-15.059H857.73352Z" transform="translate(-608.27286 -464.18799)"/>
    <path id="Trazado_740" data-name="Trazado 740" class="cls-2" d="M662.69837,678.45011H638.41389c1.87452-7.56,1.64827-15.73912,0-24.33536h24.28448A30.30783,30.30783,0,0,0,662.69837,678.45011Z" transform="translate(-608.27286 -464.18799)"/>
    <rect id="Rectángulo_657" data-name="Rectángulo 657" class="cls-1" x="33.81998" y="195.0883" width="14.71824" height="2.94982"/>
    <rect id="Rectángulo_658" data-name="Rectángulo 658" class="cls-1" x="33.81998" y="200.98794" width="14.71824" height="2.94982"/>
    <rect id="Rectángulo_659" data-name="Rectángulo 659" class="cls-1" x="33.81998" y="206.88756" width="14.71824" height="2.94982"/>
    <path id="Trazado_741" data-name="Trazado 741" class="cls-2" d="M881.26545,583.09181H856.981c1.87453-7.56,1.64829-15.73913,0-24.33537h24.28448A30.30777,30.30777,0,0,0,881.26545,583.09181Z" transform="translate(-608.27286 -464.18799)"/>
    <rect id="Rectángulo_660" data-name="Rectángulo 660" class="cls-1" x="252.3877" y="99.73064" width="14.71824" height="2.94982"/>
    <rect id="Rectángulo_661" data-name="Rectángulo 661" class="cls-1" x="252.3877" y="105.63027" width="14.71824" height="2.94982"/>
    <rect id="Rectángulo_662" data-name="Rectángulo 662" class="cls-1" x="252.3877" y="111.52929" width="14.71824" height="2.94982"/>
    <path id="Trazado_742" data-name="Trazado 742" class="cls-2" d="M1064.14851,619.84437H1039.864c1.87452-7.56,1.64829-15.73913,0-24.33536h24.28448A30.30767,30.30767,0,0,0,1064.14851,619.84437Z" transform="translate(-608.27286 -464.18799)"/>
    <rect id="Rectángulo_663" data-name="Rectángulo 663" class="cls-1" x="435.27012" y="136.4832" width="14.71824" height="2.94982"/>
    <rect id="Rectángulo_664" data-name="Rectángulo 664" class="cls-1" x="435.27012" y="142.38283" width="14.71824" height="2.94982"/>
    <rect id="Rectángulo_665" data-name="Rectángulo 665" class="cls-1" x="435.27012" y="148.28185" width="14.71824" height="2.94982"/>
    <path id="Trazado_743" data-name="Trazado 743" class="cls-2" d="M1095.37221,567.69585h-24.28449c1.87453-7.56,1.64829-15.73913,0-24.33537h24.28449A30.30769,30.30769,0,0,0,1095.37221,567.69585Z" transform="translate(-608.27286 -464.18799)"/>
    <rect id="Rectángulo_666" data-name="Rectángulo 666" class="cls-1" x="466.49381" y="84.33405" width="14.71824" height="2.94982"/>
    <rect id="Rectángulo_667" data-name="Rectángulo 667" class="cls-1" x="466.49381" y="90.23368" width="14.71824" height="2.94982"/>
    <rect id="Rectángulo_668" data-name="Rectángulo 668" class="cls-1" x="466.49381" y="96.13332" width="14.71824" height="2.94982"/>
    <path id="Trazado_744" data-name="Trazado 744" class="cls-1" d="M794.28706,595.26012H781.40092V582.347h12.88614Zm-11.89509-.99437h10.90344V583.34009H782.392Z" transform="translate(-608.27286 -464.18799)"/>
    <path id="Trazado_745" data-name="Trazado 745" class="cls-1" d="M794.533,624.06642H781.64684V611.15328H794.533Zm-11.89633-.99437h10.90342V612.14639H782.63665Z" transform="translate(-608.27286 -464.18799)"/>
    <path id="Trazado_746" data-name="Trazado 746" class="cls-1" d="M794.7789,652.8721H781.89276V639.959H794.7789Zm-11.89386-.99437h10.90341V640.95207H782.885Z" transform="translate(-608.27286 -464.18799)"/>
    <ellipse id="Elipse_103" data-name="Elipse 103" class="cls-8" cx="173.86952" cy="176.01985" rx="3.96483" ry="3.97313"/>
  </g>
</svg>
