<svg id="Capa_5" data-name="Capa 5" xmlns="http://www.w3.org/2000/svg" xmlns:xlink="http://www.w3.org/1999/xlink" width="465.87501" height="346.10668" viewBox="0 0 465.87501 346.10668">
  <defs>
    <style>
      .cls-1 {
        fill: #6c63ff;
      }

      .cls-1, .cls-3, .cls-5 {
        opacity: 0.1;
      }

      .cls-1, .cls-12, .cls-3 {
        isolation: isolate;
      }

      .cls-2 {
        fill: #464a5f;
      }

      .cls-4 {
        fill: #9c9ca1;
      }

      .cls-6 {
        fill: #939498;
      }

      .cls-7 {
        fill: #65b3ff;
      }

      .cls-8 {
        fill: #44a2ff;
      }

      .cls-9 {
        fill: none;
        stroke: #565987;
        stroke-miterlimit: 10;
      }

      .cls-10 {
        fill: #ffd037;
      }

      .cls-11 {
        fill: #a8a8a8;
      }

      .cls-12 {
        opacity: 0.2;
      }

      .cls-13 {
        fill: url(#Degradado_sin_nombre_2);
      }

      .cls-14 {
        fill: #464353;
      }

      .cls-15 {
        fill: #ecb4b6;
      }

      .cls-16 {
        fill: #c17174;
      }

      .cls-17 {
        fill: #5e5a6b;
      }
    </style>
    <linearGradient id="Degradado_sin_nombre_2" data-name="Degradado sin nombre 2" x1="1.54192" y1="1090.12413" x2="1.54192" y2="1090.74022" gradientTransform="matrix(130.76097, 0, 0, -253.13795, 637.6256, 276546.66452)" gradientUnits="userSpaceOnUse">
      <stop offset="0" stop-color="gray" stop-opacity="0.251"/>
      <stop offset="0.54" stop-color="gray" stop-opacity="0.122"/>
      <stop offset="1" stop-color="gray" stop-opacity="0.102"/>
    </linearGradient>
  </defs>
  <g id="Grupo_1340" data-name="Grupo 1340">
    <path id="Trazado_747" data-name="Trazado 747" class="cls-1" d="M932.25383,370.52531c-18.43837-7.51131-37.91759-13.78182-57.8032-12.99385-29.23791,1.1527-57.28,18.77828-71.04594,44.65324-11.66578,21.92215-13.105,47.6166-18.12852,71.94519-6.199,29.97871-18.05351,58.45663-30.71895,86.31354-6.8015,14.96409-13.97925,30.24979-15.092,46.65674-1.55175,22.76866,9.3111,45.46215,26.352,60.61106s39.66179,23.142,62.37054,24.88554c12.08446.92412,24.71484.06715,35.44981-5.57064,11.35222-5.96062,19.63416-16.73718,31.0325-22.614,10.5659-5.44926,22.92639-6.21632,34.7889-5.50348a155.60149,155.60149,0,0,1,45.41751,9.67255c16.58108,6.24154,31.999,15.27458,48.54191,21.60363s35.02744,9.85736,51.93868,4.5775c15.86974-4.95887,28.44359-17.00393,39.73741-29.19873a510.727,510.727,0,0,0,50.68386-64.25767c10.21053-15.3245,19.71407-31.49612,24.23161-49.36074,8.6293-34.15331-3.24982-72.687-29.59817-95.98608-21.8179-19.33583-51.11483-27.71952-79.79265-32.82441-26.151-4.64035-56.3892-4.92868-80.46156-17.02613C977.20287,394.573,956.31208,380.334,932.25383,370.52531Z" transform="translate(-726.91717 -357.46444)"/>
    <path id="Trazado_748" data-name="Trazado 748" class="cls-2" d="M1117.609,599.2833l.6984.70419.31355-1.21123-.33445-1.19461h-.86073Z" transform="translate(-726.91717 -357.46444)"/>
    <path id="Trazado_749" data-name="Trazado 749" class="cls-3" d="M1117.609,599.2833l.6984.70419.31355-1.21123-.33445-1.19461h-.86073Z" transform="translate(-726.91717 -357.46444)"/>
    <path id="Trazado_750" data-name="Trazado 750" class="cls-4" d="M1117.609,599.2839l.67626.72513-.67626.79662-.72793-.27232-.18016-.35242Z" transform="translate(-726.91717 -357.46444)"/>
    <path id="Trazado_751" data-name="Trazado 751" class="cls-3" d="M1117.609,599.2839l.67626.72513-.67626.79662-.72793-.27232-.18016-.35242Z" transform="translate(-726.91717 -357.46444)"/>
    <path id="Trazado_752" data-name="Trazado 752" class="cls-4" d="M988.85267,471.95019l-76.49674,76.65639a7.37993,7.37993,0,0,0-.0209,10.39952l117.25406,118.43438a7.34267,7.34267,0,0,0,10.38209.05483l77.63843-76.686Z" transform="translate(-726.91717 -357.46444)"/>
    <path id="Trazado_753" data-name="Trazado 753" class="cls-3" d="M988.85267,471.95019l-76.49674,76.65639a7.37993,7.37993,0,0,0-.0209,10.39952l117.25406,118.43438a7.34267,7.34267,0,0,0,10.38209.05483l77.63843-76.686Z" transform="translate(-726.91717 -357.46444)"/>
    <path id="Trazado_754" data-name="Trazado 754" class="cls-4" d="M988.85267,470.42845l-76.49674,76.65641a7.38,7.38,0,0,0-.0209,10.39953l117.25406,118.43a7.3427,7.3427,0,0,0,10.38209.06159l77.63843-76.70937Z" transform="translate(-726.91717 -357.46444)"/>
    <path id="Trazado_755" data-name="Trazado 755" class="cls-2" d="M996.88314,416.54565,989.86461,469.919l128.75693,128.8579,7.39539-54.25616a7.857,7.857,0,0,0-2.27476-6.67714L999.51018,415.632a1.5558,1.5558,0,0,0-2.627.91366Z" transform="translate(-726.91717 -357.46444)"/>
    <path id="Trazado_756" data-name="Trazado 756" class="cls-3" d="M996.88314,416.54565,989.86461,469.919l128.75693,128.8579,7.39539-54.25616a7.857,7.857,0,0,0-2.27476-6.67714L999.51018,415.632a1.5558,1.5558,0,0,0-2.627.91366Z" transform="translate(-726.91717 -357.46444)"/>
    <path id="Trazado_757" data-name="Trazado 757" class="cls-2" d="M995.8718,417.05268l-7.01913,53.3764L1117.6096,599.28391l7.39538-54.25616a7.85637,7.85637,0,0,0-2.27475-6.67714L998.49883,416.139a1.55579,1.55579,0,0,0-2.627.91365Z" transform="translate(-726.91717 -357.46444)"/>
    <g id="Grupo_1338" data-name="Grupo 1338" class="cls-5">
      <path id="Trazado_758" data-name="Trazado 758" d="M989.19575,494.95789l-4.65586,4.7075a1.48077,1.48077,0,0,0-.0036,2.09106l.0036.00362,4.71856,4.84983a1.47887,1.47887,0,0,0,2.09033.04189l4.63435-4.38468a1.4808,1.4808,0,0,0,.075-2.075l-4.71856-5.17511a1.47335,1.47335,0,0,0-2.08319-.12069q-.03209.02862-.06244.05908Z" transform="translate(-726.91717 -357.46444)"/>
      <path id="Trazado_759" data-name="Trazado 759" d="M997.86989,503.65516l-4.63863,4.7032a1.48081,1.48081,0,0,0,0,2.075l4.71795,4.84983a1.47336,1.47336,0,0,0,2.0862.04588l.00413-.004,4.63435-4.38036a1.49,1.49,0,0,0,.07562-2.09468l-4.73395-5.15972a1.47337,1.47337,0,0,0-2.08466-.09252q-.03129.02877-.061.05926Z" transform="translate(-726.91717 -357.46444)"/>
      <path id="Trazado_760" data-name="Trazado 760" d="M1006.98118,512.78061l-4.63863,4.7075a1.48576,1.48576,0,0,0,0,2.075l4.72228,4.84983a1.47823,1.47823,0,0,0,2.09032.04189l4.635-4.38468a1.48081,1.48081,0,0,0,.075-2.075l-4.71856-5.17512a1.47336,1.47336,0,0,0-2.08312-.12232q-.04329.03855-.08342.08043Z" transform="translate(-726.91717 -357.46444)"/>
      <path id="Trazado_761" data-name="Trazado 761" d="M1016.19147,522.01512l-4.63436,4.72784a1.48576,1.48576,0,0,0,0,2.075l4.72228,4.84983a1.47823,1.47823,0,0,0,2.09032.04189l4.63064-4.38468a1.48077,1.48077,0,0,0,.07933-2.075l-4.74318-5.1936a1.47888,1.47888,0,0,0-2.09246-.09314q-.02718.025-.05317.05125Z" transform="translate(-726.91717 -357.46444)"/>
      <path id="Trazado_762" data-name="Trazado 762" d="M1025.40667,531.249l-4.635,4.71552a1.48635,1.48635,0,0,0,0,2.09468l4.72228,4.84983a1.47823,1.47823,0,0,0,2.09032.04189l4.63064-4.38468a1.48077,1.48077,0,0,0,.07933-2.075l-4.71856-5.17512a1.4783,1.4783,0,0,0-2.08837-.14887q-.04272.03712-.08248.07741Z" transform="translate(-726.91717 -357.46444)"/>
      <path id="Trazado_763" data-name="Trazado 763" d="M1035.20282,539.88961l-5.75941,5.85281a.69665.69665,0,0,0,0,.97219l5.80185,5.95631a.69366.69366,0,0,0,.97015,0l5.76005-5.44928a.69289.69289,0,0,0,.03321-.97218l-5.79754-6.3543a.69309.69309,0,0,0-.98125-.02709l-.027.02709Z" transform="translate(-726.91717 -357.46444)"/>
      <path id="Trazado_764" data-name="Trazado 764" d="M1044.41862,549.12657l-5.76,5.86821a.69292.69292,0,0,0,0,.96848l5.80184,5.96061a.6931.6931,0,0,0,.97016,0l5.76-5.44927a.6929.6929,0,0,0,.03321-.97219l-5.79753-6.3543a.69311.69311,0,0,0-.98047-.04768l-.02781.02674Z" transform="translate(-726.91717 -357.46444)"/>
      <path id="Trazado_765" data-name="Trazado 765" d="M1052.57511,557.30015l-5.76,5.86823a.69289.69289,0,0,0,0,.9685l5.80185,5.96061a.69309.69309,0,0,0,.97015,0l5.76-5.44925a.69289.69289,0,0,0,.03321-.97219l-5.80185-6.33337a.69309.69309,0,0,0-.97949-.06445l-.02447.02256Z" transform="translate(-726.91717 -357.46444)"/>
      <path id="Trazado_766" data-name="Trazado 766" d="M1061.70919,566.45457l-5.76005,5.84295a.69292.69292,0,0,0,0,.97219l5.79941,5.95445a.6894.6894,0,0,0,.97015,0l5.76005-5.44926a.6966.6966,0,0,0,.0332-.97278l-5.79753-6.35432a.69307.69307,0,0,0-.98133-.0229l-.02694.02722Z" transform="translate(-726.91717 -357.46444)"/>
      <path id="Trazado_767" data-name="Trazado 767" d="M1070.55612,575.31942l-5.76,5.843a.6929.6929,0,0,0,0,.97218l5.80185,5.96062a.69309.69309,0,0,0,.97015,0l5.76-5.44926a.69661.69661,0,0,0,.03321-.97218l-5.81843-6.33338a.69307.69307,0,0,0-.98126-.02681l-.00612.00587Z" transform="translate(-726.91717 -357.46444)"/>
      <path id="Trazado_768" data-name="Trazado 768" d="M1079.403,584.16888l-5.768,5.86822a.69289.69289,0,0,0,0,.9685l5.80184,5.96062a.69371.69371,0,0,0,.97076,0l5.76-5.44926a.69289.69289,0,0,0,.03381-.97218l-5.79753-6.35432a.6931.6931,0,0,0-.98085-.039l-.0188.01809Z" transform="translate(-726.91717 -357.46444)"/>
      <path id="Trazado_769" data-name="Trazado 769" d="M1088.25,593.05035l-5.76,5.84728a.69663.69663,0,0,0,0,.97219l5.78462,5.95633a.693.693,0,0,0,.97015.02094l5.76005-5.44925a.6929.6929,0,0,0,.03321-.97219l-5.79693-6.35435a.69307.69307,0,0,0-.98115-.03046Z" transform="translate(-726.91717 -357.46444)"/>
      <path id="Trazado_770" data-name="Trazado 770" d="M980.77546,503.4001l-4.635,4.7032a1.48077,1.48077,0,0,0-.00361,2.09106l.00361.00363,4.72227,4.84982a1.47334,1.47334,0,0,0,2.0862.04588l.00413-.004,4.63064-4.38035a1.4857,1.4857,0,0,0,.07932-2.09469l-4.74745-5.17511a1.47824,1.47824,0,0,0-2.0919-.0854q-.02527.02332-.04942.04782Z" transform="translate(-726.91717 -357.46444)"/>
      <path id="Trazado_771" data-name="Trazado 771" d="M962.37092,521.83891l-4.63864,4.70444a1.48573,1.48573,0,0,0,0,2.09468l4.71856,4.81225a1.47334,1.47334,0,0,0,2.07063.04621l4.63435-4.38468a1.48077,1.48077,0,0,0,.07561-2.075l-4.71856-5.15541a1.47337,1.47337,0,0,0-2.08447-.0967q-.02916.02666-.05685.05481Z" transform="translate(-726.91717 -357.46444)"/>
      <path id="Trazado_772" data-name="Trazado 772" d="M989.45088,512.0937l-4.63864,4.70319a1.48077,1.48077,0,0,0-.0036,2.09106l.0036.00363,4.718,4.84983a1.47886,1.47886,0,0,0,2.09033.04621l4.63064-4.40563a1.49006,1.49006,0,0,0,.075-2.09468l-4.718-5.16834a1.4703,1.4703,0,0,0-2.07986-.1023q-.04074.037-.07868.077Z" transform="translate(-726.91717 -357.46444)"/>
      <path id="Trazado_773" data-name="Trazado 773" d="M998.55662,521.22284l-4.63436,4.7032a1.48082,1.48082,0,0,0,0,2.075l4.72228,4.84983a1.47335,1.47335,0,0,0,2.0862.04587l.00412-.004,4.63064-4.38036a1.48634,1.48634,0,0,0,.07933-2.09468l-4.71856-5.17512a1.47826,1.47826,0,0,0-2.0913-.09914q-.04126.0376-.07955.0782Z" transform="translate(-726.91717 -357.46444)"/>
      <path id="Trazado_774" data-name="Trazado 774" d="M1007.77182,530.45241l-4.63436,4.7075a1.48082,1.48082,0,0,0,0,2.075l4.72228,4.84983a1.47332,1.47332,0,0,0,2.07062.04189l4.635-4.38036a1.48634,1.48634,0,0,0,.07933-2.09468l-4.72656-5.13507a1.48254,1.48254,0,0,0-2.097-.10766q-.02489.02248-.04867.046Z" transform="translate(-726.91717 -357.46444)"/>
      <path id="Trazado_775" data-name="Trazado 775" d="M971.34262,530.23863l-4.63863,4.7032a1.48082,1.48082,0,0,0,0,2.075l4.718,4.84983a1.47335,1.47335,0,0,0,2.08619.04588l.00413-.004,4.635-4.38036a1.49006,1.49006,0,0,0,.075-2.09468l-4.71856-5.16835a1.4703,1.4703,0,0,0-2.07963-.10675q-.04317.03909-.08323.0815Z" transform="translate(-726.91717 -357.46444)"/>
      <path id="Trazado_776" data-name="Trazado 776" d="M980.449,539.3641l-4.63435,4.7075a1.48075,1.48075,0,0,0-.00361,2.091l.00361.00363,4.72227,4.84983a1.47336,1.47336,0,0,0,2.0862.04588l.00413-.004,4.63064-4.38036a1.48635,1.48635,0,0,0,.07932-2.09468l-4.71856-5.17511a1.47824,1.47824,0,0,0-2.09-.12387q-.04188.03729-.08087.07765Z" transform="translate(-726.91717 -357.46444)"/>
      <path id="Trazado_777" data-name="Trazado 777" d="M989.6642,548.59859l-4.63435,4.7075a1.48081,1.48081,0,0,0,0,2.075l4.72227,4.84983a1.47826,1.47826,0,0,0,2.09033.04189l4.63064-4.38468a1.48078,1.48078,0,0,0,.07932-2.075l-4.71856-5.17511a1.47828,1.47828,0,0,0-2.09025-.11961q-.04176.0373-.0806.07772Z" transform="translate(-726.91717 -357.46444)"/>
      <path id="Trazado_778" data-name="Trazado 778" d="M1016.98334,539.6869l-4.63435,4.7075a1.48082,1.48082,0,0,0,0,2.075l4.72227,4.84983a1.47335,1.47335,0,0,0,2.0862.04587l.00413-.004,4.63435-4.38036a1.4808,1.4808,0,0,0,.07982-2.08953l-.00481-.00515-4.74745-5.1474a1.47337,1.47337,0,0,0-2.084-.10591q-.02972.02691-.05794.05539Z" transform="translate(-726.91717 -357.46444)"/>
      <path id="Trazado_779" data-name="Trazado 779" d="M1026.20158,548.92141l-4.63863,4.7075a1.48082,1.48082,0,0,0,0,2.075l4.72227,4.84981a1.47338,1.47338,0,0,0,2.0862.04588l.00413-.004,4.63435-4.38468a1.48077,1.48077,0,0,0,.07562-2.075l-4.74318-5.17512a1.47336,1.47336,0,0,0-2.08466-.0924q-.029.02664-.05666.05482Z" transform="translate(-726.91717 -357.46444)"/>
      <path id="Trazado_780" data-name="Trazado 780" d="M1035.98914,557.56386l-5.76,5.86823a.69289.69289,0,0,0,0,.97218l5.80616,5.93106a.6894.6894,0,0,0,.97015,0l5.76-5.44925a.69722.69722,0,0,0,.03321-.97219l-5.79753-6.35432a.6931.6931,0,0,0-.98126-.0267q-.01581.015-.03069.031Z" transform="translate(-726.91717 -357.46444)"/>
      <path id="Trazado_781" data-name="Trazado 781" d="M1044.15366,565.72513l-5.76,5.86822a.6929.6929,0,0,0,0,.97219l5.80185,5.95633a.6894.6894,0,0,0,.97015,0l5.76-5.44926a.69661.69661,0,0,0,.03321-.97218l-5.79753-6.35432a.69311.69311,0,0,0-.98047-.04768l-.02781.02673Z" transform="translate(-726.91717 -357.46444)"/>
      <path id="Trazado_782" data-name="Trazado 782" d="M1053.28646,574.89248l-5.76372,5.86822a.69289.69289,0,0,0,0,.9685l5.79753,5.96062a.6937.6937,0,0,0,.97075,0l5.76005-5.44926a.69288.69288,0,0,0,.03748-.97218l-5.79753-6.35432a.6931.6931,0,0,0-.98066-.04336l-.0233.02242Z" transform="translate(-726.91717 -357.46444)"/>
      <path id="Trazado_783" data-name="Trazado 783" d="M1062.13584,583.7493l-5.76,5.86823a.6929.6929,0,0,0,0,.97218l5.79753,5.95633a.69732.69732,0,0,0,.97447,0l5.75573-5.44925a.69291.69291,0,0,0,.03749-.97279l-5.79753-6.35432a.69312.69312,0,0,0-.98047-.04768l-.02781.02674Z" transform="translate(-726.91717 -357.46444)"/>
      <path id="Trazado_784" data-name="Trazado 784" d="M989.80192,529.99589l-4.63864,4.7112a1.48084,1.48084,0,0,0,0,2.075l4.72228,4.84983a1.47334,1.47334,0,0,0,2.08619.04587l.00413-.004,4.63436-4.38035a1.48636,1.48636,0,0,0,.07561-2.09469l-4.74318-5.15971a1.47027,1.47027,0,0,0-2.07985-.10174q-.03192.029-.0621.05985Z" transform="translate(-726.91717 -357.46444)"/>
      <path id="Trazado_785" data-name="Trazado 785" d="M999.01712,539.23038l-4.63864,4.69889a1.48082,1.48082,0,0,0,0,2.075l4.72228,4.84983a1.47026,1.47026,0,0,0,2.08173.05016l.00859-.00827,4.63436-4.38036a1.49,1.49,0,0,0,.07561-2.09468l-4.71856-5.16835a1.47029,1.47029,0,0,0-2.07963-.10636q-.04519.04091-.08691.08542Z" transform="translate(-726.91717 -357.46444)"/>
      <path id="Trazado_786" data-name="Trazado 786" d="M1008.23168,548.46427l-4.63863,4.68656a1.48081,1.48081,0,0,0,0,2.075l4.71856,4.84983a1.47336,1.47336,0,0,0,2.08619.04587l.00413-.004,4.63436-4.38036a1.49,1.49,0,0,0,.07561-2.09469l-4.71856-5.17511a1.47333,1.47333,0,0,0-2.08507-.08194q-.04037.03738-.07779.07764Z" transform="translate(-726.91717 -357.46444)"/>
      <path id="Trazado_787" data-name="Trazado 787" d="M1017.44564,557.69938l-4.63863,4.70318a1.4808,1.4808,0,0,0,0,2.075l4.71856,4.84983a1.47337,1.47337,0,0,0,2.0862.04587l.00412-.004,4.63436-4.38036a1.49,1.49,0,0,0,.075-2.0947l-4.71856-5.17513a1.47337,1.47337,0,0,0-2.08443-.09747q-.04031.03682-.07783.07652Z" transform="translate(-726.91717 -357.46444)"/>
      <path id="Trazado_788" data-name="Trazado 788" d="M1027.24243,566.34059l-5.76372,5.843a.69719.69719,0,0,0,0,.97218l5.79753,5.95633a.6894.6894,0,0,0,.97015,0l5.76005-5.44925a.69228.69228,0,0,0,.03748-.97219l-5.79753-6.3586a.68939.68939,0,0,0-.97619-.02027l-.02777.02828Z" transform="translate(-726.91717 -357.46444)"/>
      <path id="Trazado_789" data-name="Trazado 789" d="M1035.399,574.52777l-5.76372,5.84295a.69663.69663,0,0,0,0,.97219l5.79753,5.95633a.6894.6894,0,0,0,.97015,0L1042.163,581.85a.69288.69288,0,0,0,.03748-.97218l-5.79321-6.35a.68881.68881,0,0,0-.975-.03339q-.01722.01614-.03332.03339Z" transform="translate(-726.91717 -357.46444)"/>
      <path id="Trazado_790" data-name="Trazado 790" d="M1044.53052,583.66492l-5.76005,5.86823a.69664.69664,0,0,0,0,.97218l5.79754,5.95633a.68938.68938,0,0,0,.97015.02095l5.76-5.44926a.69289.69289,0,0,0,.03749-.97218l-5.80181-6.35436a.69311.69311,0,0,0-.9795-.06445l-.02446.02256Z" transform="translate(-726.91717 -357.46444)"/>
      <path id="Trazado_791" data-name="Trazado 791" d="M1053.38113,592.552l-5.76372,5.8263a.69665.69665,0,0,0,0,.97219l5.79753,5.95633a.68939.68939,0,0,0,.97016.02094l5.76-5.44925a.6929.6929,0,0,0,.03749-.97219l-5.78894-6.35432a.68511.68511,0,0,0-.96937-.04268q-.02223.02043-.04259.04268Z" transform="translate(-726.91717 -357.46444)"/>
      <path id="Trazado_792" data-name="Trazado 792" d="M1070.98281,592.62281l-5.76,5.86822a.6929.6929,0,0,0,0,.97219l5.80184,5.95633a.68939.68939,0,0,0,.97016.02094l5.76-5.44925a.69662.69662,0,0,0,.03321-.97219l-5.79753-6.35432a.69368.69368,0,0,0-.98013-.06783l-.02815.02594Z" transform="translate(-726.91717 -357.46444)"/>
      <path id="Trazado_793" data-name="Trazado 793" d="M1079.82971,601.49259l-5.7791,5.843a.6929.6929,0,0,0,0,.97219l5.81351,5.95569a.68938.68938,0,0,0,.97015.02094l5.76-5.44925a.69662.69662,0,0,0,.03321-.97219l-5.79753-6.35431a.68945.68945,0,0,0-.97541-.04434l-.02855.02771Z" transform="translate(-726.91717 -357.46444)"/>
      <path id="Trazado_794" data-name="Trazado 794" d="M1035.00916,593.2093l-5.43786,5.50348a.93169.93169,0,0,0,0,1.30365l5.47538,5.62486a.927.927,0,0,0,1.30093.02527l5.43786-5.12643a.936.936,0,0,0,.06147-1.28268l-5.47539-6.0025a.93125.93125,0,0,0-1.31612-.08664q-.02224.01951-.04319.04042Z" transform="translate(-726.91717 -357.46444)"/>
      <path id="Trazado_795" data-name="Trazado 795" d="M1043.85733,602.07539l-5.43786,5.50348a.9317.9317,0,0,0,0,1.30366l5.47539,5.62486a.927.927,0,0,0,1.30093.02527l5.43786-5.12644a.93168.93168,0,0,0,.05039-1.30365l-5.492-6.00251a.93126.93126,0,0,0-1.31834-.04046l-.01576.01519Z" transform="translate(-726.91717 -357.46444)"/>
      <path id="Trazado_796" data-name="Trazado 796" d="M1052.72086,610.94023l-5.43606,5.50352a.93169.93169,0,0,0,0,1.30365l5.47538,5.62486a.927.927,0,0,0,1.30093.02956l5.43786-5.13076a.9255.9255,0,0,0,.0504-1.30366l-5.47539-5.99822a.92083.92083,0,0,0-1.30183-.07821q-.02628.02335-.05073.04866Z" transform="translate(-726.91717 -357.46444)"/>
      <path id="Trazado_797" data-name="Trazado 797" d="M1061.72641,619.62952l-5.76,5.84728a.69662.69662,0,0,0,0,.97218l5.80184,5.95633a.68935.68935,0,0,0,.97075,0l5.76005-5.44925a.6929.6929,0,0,0,.03321-.97219l-5.79753-6.35432a.69307.69307,0,0,0-.98126-.02707l-.027.02707Z" transform="translate(-726.91717 -357.46444)"/>
      <path id="Trazado_798" data-name="Trazado 798" d="M971.65621,512.04748l-4.94419,5.055a1.48076,1.48076,0,0,0-.0036,2.09106l.0036.00363,13.8034,13.695a1.47821,1.47821,0,0,0,2.054.02525l5.15324-4.85784a1.48575,1.48575,0,0,0,.06492-2.097l-.03543-.03649-14.01245-13.89087A1.47332,1.47332,0,0,0,971.65621,512.04748Z" transform="translate(-726.91717 -357.46444)"/>
      <path id="Trazado_799" data-name="Trazado 799" d="M1062.01107,601.471l-6.04407,6.1701a.70527.70527,0,0,0,0,.9808l14.89532,14.77555a.68937.68937,0,0,0,.96216,0l6.29919-5.93967a.69226.69226,0,0,0,.02-.97737l-.02-.02008-15.15352-15.02261A.693.693,0,0,0,1062.01107,601.471Z" transform="translate(-726.91717 -357.46444)"/>
      <path id="Trazado_800" data-name="Trazado 800" d="M999.18005,557.26629l-5.768,5.7259a.68857.68857,0,0,0-.00417.97233l.00417.00418,32.12007,32.99255a.69309.69309,0,0,0,.97015,0l6.274-5.93106a.6929.6929,0,0,0,.01479-.97831l-.01479-.01482-32.62664-32.7825a.69305.69305,0,0,0-.97015.01293Z" transform="translate(-726.91717 -357.46444)"/>
    </g>
    <path id="Trazado_801" data-name="Trazado 801" class="cls-2" d="M989.19573,493.9438l-4.65586,4.71551a1.48084,1.48084,0,0,0,0,2.075l4.71856,4.84983a1.47825,1.47825,0,0,0,2.09033.04188l4.63435-4.38468a1.4808,1.4808,0,0,0,.075-2.075l-4.71855-5.17511a1.47337,1.47337,0,0,0-2.08384-.10961q-.03174.02862-.0618.05909Z" transform="translate(-726.91717 -357.46444)"/>
    <path id="Trazado_802" data-name="Trazado 802" class="cls-2" d="M997.86989,502.64109l-4.63863,4.7032a1.48081,1.48081,0,0,0,0,2.075l4.71795,4.84983a1.47335,1.47335,0,0,0,2.0862.04587l.00413-.004,4.63435-4.38036a1.49,1.49,0,0,0,.07562-2.09469l-4.73395-5.156a1.47338,1.47338,0,0,0-2.08447-.09679q-.03141.02871-.06116.05921Z" transform="translate(-726.91717 -357.46444)"/>
    <path id="Trazado_803" data-name="Trazado 803" class="cls-2" d="M1006.98119,511.76715l-4.63863,4.7075a1.48576,1.48576,0,0,0,0,2.075l4.71428,4.8412a1.47825,1.47825,0,0,0,2.09033.04188l4.63435-4.38468a1.4808,1.4808,0,0,0,.07982-2.08953l-.00481-.00515-4.718-5.17511a1.47334,1.47334,0,0,0-2.08495-.08523q-.03806.03516-.07359.07291Z" transform="translate(-726.91717 -357.46444)"/>
    <path id="Trazado_804" data-name="Trazado 804" class="cls-2" d="M1016.19207,521.001l-4.63436,4.7032a1.49009,1.49009,0,0,0,0,2.09468l4.72228,4.84983a1.47886,1.47886,0,0,0,2.09032.04189l4.63064-4.38468a1.48077,1.48077,0,0,0,.07933-2.075l-4.74318-5.18929a1.47887,1.47887,0,0,0-2.09246-.09314q-.02718.025-.05317.05125Z" transform="translate(-726.91717 -357.46444)"/>
    <path id="Trazado_805" data-name="Trazado 805" class="cls-2" d="M1025.40665,530.23492l-4.63495,4.7032a1.48634,1.48634,0,0,0,0,2.09468l4.72227,4.84551a1.47884,1.47884,0,0,0,2.09032.04621l4.63065-4.38468a1.4777,1.4777,0,0,0,.08844-2.08481l-.00912-.00988L1027.5757,530.27a1.47825,1.47825,0,0,0-2.09047-.11538q-.04165.03737-.08038.0778Z" transform="translate(-726.91717 -357.46444)"/>
    <path id="Trazado_806" data-name="Trazado 806" class="cls-2" d="M1035.20282,538.89893l-5.76,5.82632a.69292.69292,0,0,0,0,.96848l5.80184,5.96061a.69307.69307,0,0,0,.97015.02095l5.76-5.44927a.6929.6929,0,0,0,.03321-.97219l-5.80185-6.3549a.69311.69311,0,0,0-.98137-.02266l-.02259.02266Z" transform="translate(-726.91717 -357.46444)"/>
    <path id="Trazado_807" data-name="Trazado 807" class="cls-2" d="M1044.41862,548.12049l-5.76,5.84727a.69292.69292,0,0,0,0,.96848l5.80184,5.96061a.6931.6931,0,0,0,.97016,0l5.76-5.44927a.69289.69289,0,0,0,.03321-.97218l-5.80185-6.3543a.6931.6931,0,0,0-.98137-.02266l-.02259.02266Z" transform="translate(-726.91717 -357.46444)"/>
    <path id="Trazado_808" data-name="Trazado 808" class="cls-2" d="M1052.57575,556.28547l-5.76,5.84726a.69287.69287,0,0,0,0,.9685l5.79753,5.976a.69366.69366,0,0,0,.97015,0l5.76-5.44925a.69288.69288,0,0,0,.03321-.97219l-5.79753-6.3543a.6937.6937,0,0,0-.98174-.03818l-.02222.02154Z" transform="translate(-726.91717 -357.46444)"/>
    <path id="Trazado_809" data-name="Trazado 809" class="cls-2" d="M1061.70917,565.44049l-5.76005,5.843a.6929.6929,0,0,0,0,.97218l5.79941,5.95693a.68938.68938,0,0,0,.97015.02095l5.76005-5.44926a.69661.69661,0,0,0,.03321-.97218l-5.79754-6.35861a.69369.69369,0,0,0-.98174-.03828l-.02653.026Z" transform="translate(-726.91717 -357.46444)"/>
    <path id="Trazado_810" data-name="Trazado 810" class="cls-2" d="M1070.55611,574.30536l-5.76005,5.843a.69292.69292,0,0,0,0,.97219l5.79753,5.98156a.69309.69309,0,0,0,.97015,0l5.76-5.44926a.69658.69658,0,0,0,.03381-.97218l-5.81412-6.35432a.69306.69306,0,0,0-.98126-.02681Z" transform="translate(-726.91717 -357.46444)"/>
    <path id="Trazado_811" data-name="Trazado 811" class="cls-2" d="M1079.403,583.1708l-5.76,5.86823a.69289.69289,0,0,0,0,.9685l5.80185,5.96061a.69309.69309,0,0,0,.97015,0l5.76-5.44925a.69288.69288,0,0,0,.03321-.97219l-5.79753-6.35431a.69311.69311,0,0,0-.98047-.04768l-.02781.02673Z" transform="translate(-726.91717 -357.46444)"/>
    <path id="Trazado_812" data-name="Trazado 812" class="cls-2" d="M1088.25,592.0363l-5.76,5.86822a.69659.69659,0,0,0,0,.97279l5.78462,5.93535a.69311.69311,0,0,0,.97015,0l5.76005-5.44926a.69289.69289,0,0,0,.03321-.97218l-5.79693-6.35492a.6931.6931,0,0,0-.98156-.00952Z" transform="translate(-726.91717 -357.46444)"/>
    <path id="Trazado_813" data-name="Trazado 813" class="cls-2" d="M980.77547,502.38542l-4.63435,4.7032a1.48081,1.48081,0,0,0,0,2.075l4.72227,4.84983a1.47335,1.47335,0,0,0,2.0862.04587l.00413-.004,4.63-4.38036a1.4857,1.4857,0,0,0,.07932-2.09469l-4.74745-5.1474a1.47888,1.47888,0,0,0-2.09243-.09376q-.02532.02322-.04953.04755Z" transform="translate(-726.91717 -357.46444)"/>
    <path id="Trazado_814" data-name="Trazado 814" class="cls-2" d="M962.3709,520.82484l-4.63864,4.70319a1.48574,1.48574,0,0,0,0,2.09469l4.72228,4.8455a1.47331,1.47331,0,0,0,2.07062.04621l4.63436-4.38468a1.48572,1.48572,0,0,0,.075-2.09468l-4.72228-5.15972a1.47032,1.47032,0,0,0-2.07948-.10965q-.03174.02866-.06184.05914Z" transform="translate(-726.91717 -357.46444)"/>
    <path id="Trazado_815" data-name="Trazado 815" class="cls-2" d="M989.45023,511.07961l-4.63863,4.7032a1.48081,1.48081,0,0,0,0,2.075l4.718,4.84919a1.47335,1.47335,0,0,0,2.08619.04588l.00413-.004,4.63064-4.389a1.49006,1.49006,0,0,0,.075-2.09468l-4.71856-5.16835a1.47027,1.47027,0,0,0-2.08023-.09391q-.04057.03714-.07831.07727Z" transform="translate(-726.91717 -357.46444)"/>
    <path id="Trazado_816" data-name="Trazado 816" class="cls-2" d="M998.55663,520.20382l-4.63436,4.70751a1.48082,1.48082,0,0,0,0,2.075l4.72228,4.84983a1.47335,1.47335,0,0,0,2.0862.04587l.00412-.004,4.63064-4.38036a1.4857,1.4857,0,0,0,.07933-2.09469l-4.74318-5.15541a1.48256,1.48256,0,0,0-2.0979-.08789q-.02437.02247-.04773.046Z" transform="translate(-726.91717 -357.46444)"/>
    <path id="Trazado_817" data-name="Trazado 817" class="cls-2" d="M1007.7718,529.43833l-4.63435,4.7069a1.48082,1.48082,0,0,0,0,2.075l4.72227,4.84982a1.47333,1.47333,0,0,0,2.07063.04189l4.63435-4.38035a1.48635,1.48635,0,0,0,.07933-2.09469l-4.718-5.17511a1.47826,1.47826,0,0,0-2.092-.0838q-.03073.02842-.05981.05855Z" transform="translate(-726.91717 -357.46444)"/>
    <path id="Trazado_818" data-name="Trazado 818" class="cls-2" d="M971.34263,529.22515l-4.63863,4.7032a1.48081,1.48081,0,0,0,0,2.075l4.718,4.84983a1.47334,1.47334,0,0,0,2.08619.04587l.00413-.004,4.635-4.38036a1.49006,1.49006,0,0,0,.075-2.09468l-4.73946-5.15972a1.4703,1.4703,0,0,0-2.08031-.09254q-.03135.02874-.061.05928Z" transform="translate(-726.91717 -357.46444)"/>
    <path id="Trazado_819" data-name="Trazado 819" class="cls-2" d="M980.449,538.35l-4.63435,4.7075a1.48082,1.48082,0,0,0,0,2.075l4.72227,4.84982a1.47824,1.47824,0,0,0,2.09033.04189l4.63064-4.38035a1.4857,1.4857,0,0,0,.07932-2.09469l-4.71856-5.17511a1.47827,1.47827,0,0,0-2.09111-.10333q-.04131.03753-.07974.07808Z" transform="translate(-726.91717 -357.46444)"/>
    <path id="Trazado_820" data-name="Trazado 820" class="cls-2" d="M989.6642,547.58389l-4.63435,4.72845a1.48081,1.48081,0,0,0,0,2.075l4.72227,4.84983a1.47825,1.47825,0,0,0,2.09033.04189l4.63064-4.38468a1.48077,1.48077,0,0,0,.07932-2.075l-4.71856-5.17512a1.47829,1.47829,0,0,0-2.089-.13907q-.04232.03714-.0818.07746Z" transform="translate(-726.91717 -357.46444)"/>
    <path id="Trazado_821" data-name="Trazado 821" class="cls-2" d="M1016.98332,538.66975l-4.63435,4.7075a1.48082,1.48082,0,0,0,0,2.075l4.72227,4.84983a1.47336,1.47336,0,0,0,2.0862.04588l.00413-.004,4.63435-4.38468a1.4777,1.4777,0,0,0,.084-2.085l-.009-.00969-4.71855-5.17511a1.47335,1.47335,0,0,0-2.084-.10632q-.0452.04086-.08687.08538Z" transform="translate(-726.91717 -357.46444)"/>
    <path id="Trazado_822" data-name="Trazado 822" class="cls-2" d="M1026.20158,547.90672l-4.63863,4.7075a1.48084,1.48084,0,0,0,0,2.075l4.72227,4.84982a1.47336,1.47336,0,0,0,2.0862.04588l.00413-.004,4.63435-4.38468a1.4808,1.4808,0,0,0,.075-2.075l-4.71856-5.17511a1.47336,1.47336,0,0,0-2.08312-.12232q-.04329.03855-.08342.08043Z" transform="translate(-726.91717 -357.46444)"/>
    <path id="Trazado_823" data-name="Trazado 823" class="cls-2" d="M1035.98914,556.54978l-5.76,5.84726a.69289.69289,0,0,0,0,.97218l5.80184,5.95633a.68935.68935,0,0,0,.97075,0l5.76-5.44925a.69723.69723,0,0,0,.03321-.97219l-5.79753-6.3543a.69311.69311,0,0,0-.98126-.02709l-.027.02709Z" transform="translate(-726.91717 -357.46444)"/>
    <path id="Trazado_824" data-name="Trazado 824" class="cls-2" d="M1044.15366,564.72336l-5.76,5.84728a.69289.69289,0,0,0,0,.97218l5.80185,5.95633a.6894.6894,0,0,0,.97015,0l5.76-5.44925a.69662.69662,0,0,0,.03321-.97219l-5.79753-6.35431a.69367.69367,0,0,0-.98212-.02621l-.02616.02621Z" transform="translate(-726.91717 -357.46444)"/>
    <path id="Trazado_825" data-name="Trazado 825" class="cls-2" d="M1053.28646,573.8784l-5.76372,5.84728a.69225.69225,0,0,0,0,.9685l5.79753,5.96062a.69309.69309,0,0,0,.97015,0l5.76-5.44925a.6929.6929,0,0,0,.03748-.97219L1054.29042,573.9a.69368.69368,0,0,0-.98156-.04246l-.0224.02151Z" transform="translate(-726.91717 -357.46444)"/>
    <path id="Trazado_826" data-name="Trazado 826" class="cls-2" d="M1062.13586,582.74327l-5.76005,5.84728a.6929.6929,0,0,0,0,.97218l5.79753,5.95633a.69734.69734,0,0,0,.97447,0l5.75573-5.44925a.6929.6929,0,0,0,.03749-.97219l-5.79754-6.35432a.69307.69307,0,0,0-.98125-.02707l-.027.02707Z" transform="translate(-726.91717 -357.46444)"/>
    <path id="Trazado_827" data-name="Trazado 827" class="cls-2" d="M989.80191,528.98l-4.63864,4.7032a1.48082,1.48082,0,0,0,0,2.075l4.72228,4.84983a1.47336,1.47336,0,0,0,2.0862.04588l.00412-.004,4.63436-4.38036a1.48635,1.48635,0,0,0,.07561-2.09468l-4.74318-5.15171a1.47027,1.47027,0,0,0-2.07985-.10173q-.03192.029-.0621.05984Z" transform="translate(-726.91717 -357.46444)"/>
    <path id="Trazado_828" data-name="Trazado 828" class="cls-2" d="M999.01711,538.21569l-4.63864,4.70319a1.48077,1.48077,0,0,0-.0036,2.09106l.0036.00363,4.72228,4.84983a1.47026,1.47026,0,0,0,2.08173.05016l.00859-.00827,4.635-4.38036a1.49007,1.49007,0,0,0,.075-2.09469l-4.71856-5.16834a1.47029,1.47029,0,0,0-2.07824-.131q-.04587.04053-.0883.0848Z" transform="translate(-726.91717 -357.46444)"/>
    <path id="Trazado_829" data-name="Trazado 829" class="cls-2" d="M1008.23106,547.4502l-4.63863,4.70319a1.48081,1.48081,0,0,0,0,2.075l4.71856,4.84983a1.47335,1.47335,0,0,0,2.08619.04588l.00413-.004,4.63436-4.38036a1.49,1.49,0,0,0,.07561-2.09468l-4.71856-5.17511a1.47334,1.47334,0,0,0-2.08443-.09745q-.04031.03679-.07783.0765Z" transform="translate(-726.91717 -357.46444)"/>
    <path id="Trazado_830" data-name="Trazado 830" class="cls-2" d="M1017.44628,556.67975l-4.63863,4.7075a1.48079,1.48079,0,0,0-.00364,2.09106l.00364.00365,4.71856,4.84982a1.47335,1.47335,0,0,0,2.08619.04588l.00413-.004,4.63436-4.38035a1.49006,1.49006,0,0,0,.075-2.09471l-4.71856-5.17513a1.47826,1.47826,0,0,0-2.09048-.11512q-.037.03323-.07178.06891Z" transform="translate(-726.91717 -357.46444)"/>
    <path id="Trazado_831" data-name="Trazado 831" class="cls-2" d="M1027.24243,565.32713l-5.76372,5.84728a.69719.69719,0,0,0,0,.97218l5.79753,5.95633a.68938.68938,0,0,0,.97015.02095l5.76005-5.44926a.69658.69658,0,0,0,.03748-.9765l-5.79753-6.35432a.68944.68944,0,0,0-.9754-.04434l-.02856.02772Z" transform="translate(-726.91717 -357.46444)"/>
    <path id="Trazado_832" data-name="Trazado 832" class="cls-2" d="M1035.39894,573.50073l-5.76372,5.843a.69662.69662,0,0,0,0,.97218l5.79753,5.94768a.68938.68938,0,0,0,.97015.02095l5.76-5.44926a.6966.6966,0,0,0,.03748-.97651l-5.79321-6.342a.6894.6894,0,0,0-.97518-.0487q-.01711.01546-.0331.03208Z" transform="translate(-726.91717 -357.46444)"/>
    <path id="Trazado_833" data-name="Trazado 833" class="cls-2" d="M1044.53052,582.65145l-5.76005,5.86823a.69664.69664,0,0,0,0,.97218l5.79754,5.95633a.6894.6894,0,0,0,.97015,0l5.76-5.44925a.6929.6929,0,0,0,.03749-.97219l-5.80181-6.35435a.69309.69309,0,0,0-.98066-.04336l-.0233.02241Z" transform="translate(-726.91717 -357.46444)"/>
    <path id="Trazado_834" data-name="Trazado 834" class="cls-2" d="M1053.38113,591.5206l-5.76372,5.843a.69664.69664,0,0,0,0,.97218l5.79753,5.952a.68941.68941,0,0,0,.97016,0l5.76-5.44926a.69227.69227,0,0,0,.03749-.97218l-5.7889-6.33089a.68511.68511,0,0,0-.96854-.05874q-.02263.02008-.04342.04212Z" transform="translate(-726.91717 -357.46444)"/>
    <path id="Trazado_835" data-name="Trazado 835" class="cls-2" d="M1070.98279,591.60871l-5.76,5.86823a.6929.6929,0,0,0,0,.97218l5.80185,5.95633a.68877.68877,0,0,0,.97015,0l5.76-5.44925a.69662.69662,0,0,0,.03321-.97219l-5.80185-6.35431a.69309.69309,0,0,0-.98065-.04336l-.02331.02241Z" transform="translate(-726.91717 -357.46444)"/>
    <path id="Trazado_836" data-name="Trazado 836" class="cls-2" d="M1079.82969,600.47355l-5.76,5.86823a.69227.69227,0,0,0,0,.97218l5.80185,5.95633a.6894.6894,0,0,0,.97015,0l5.76-5.44926a.69721.69721,0,0,0,.03321-.97218l-5.80185-6.33337a.69309.69309,0,0,0-.97949-.06445l-.02447.02256Z" transform="translate(-726.91717 -357.46444)"/>
    <path id="Trazado_837" data-name="Trazado 837" class="cls-2" d="M1035.00916,592.19522l-5.43786,5.50348a.93232.93232,0,0,0,0,1.30366l5.47538,5.62486a.92761.92761,0,0,0,1.30093.02527l5.43786-5.12644a.936.936,0,0,0,.0504-1.30365l-5.47539-6.00251a.93127.93127,0,0,0-1.31766-.059q-.01785.01636-.0349.03369Z" transform="translate(-726.91717 -357.46444)"/>
    <path id="Trazado_838" data-name="Trazado 838" class="cls-2" d="M1043.85733,601.06068l-5.43786,5.50348a.93233.93233,0,0,0,0,1.30365l5.4877,5.64212a.92692.92692,0,0,0,1.2843,0l5.43786-5.12643a.93168.93168,0,0,0,.0504-1.30366l-5.4877-5.99389a.93125.93125,0,0,0-1.31834-.04046l-.01576.01519Z" transform="translate(-726.91717 -357.46444)"/>
    <path id="Trazado_839" data-name="Trazado 839" class="cls-2" d="M1052.72088,609.92616l-5.43606,5.50348a.93168.93168,0,0,0,0,1.30366l5.47538,5.62486a.92083.92083,0,0,0,1.30093.02527l5.43786-5.12644a.92549.92549,0,0,0,.0504-1.30365l-5.47539-6.00251a.92762.92762,0,0,0-1.31218-.06426q-.02078.0189-.04038.039Z" transform="translate(-726.91717 -357.46444)"/>
    <path id="Trazado_840" data-name="Trazado 840" class="cls-2" d="M1061.72641,618.61544l-5.76,5.86823a.69719.69719,0,0,0,0,.97218l5.80184,5.95633a.69368.69368,0,0,0,.97075.02095l5.76005-5.44926a.69289.69289,0,0,0,.03321-.97218l-5.79753-6.35432a.69312.69312,0,0,0-.97924-.0687l-.029.02681Z" transform="translate(-726.91717 -357.46444)"/>
    <path id="Trazado_841" data-name="Trazado 841" class="cls-2" d="M971.65681,511.03278l-4.94419,5.05929a1.48076,1.48076,0,0,0-.0036,2.09106l.0036.00363,13.8034,13.69558a1.4782,1.4782,0,0,0,2.05344.02525l5.15324-4.85784a1.48633,1.48633,0,0,0,.064-2.09792l-.03456-.03559-14.01245-13.89087A1.47333,1.47333,0,0,0,971.65681,511.03278Z" transform="translate(-726.91717 -357.46444)"/>
    <path id="Trazado_842" data-name="Trazado 842" class="cls-2" d="M1062.01105,600.45448l-6.04406,6.18239a.70525.70525,0,0,0,0,.9808l14.89531,14.77555a.68875.68875,0,0,0,.96216,0l6.2992-5.93967a.69227.69227,0,0,0,.02-.97737l-.02-.02008L1062.97013,600.436A.68876.68876,0,0,0,1062.01105,600.45448Z" transform="translate(-726.91717 -357.46444)"/>
    <path id="Trazado_843" data-name="Trazado 843" class="cls-2" d="M999.18,556.2522l-5.768,5.72588a.68856.68856,0,0,0-.00416.97233l.00416.00418,32.12007,32.99259a.69309.69309,0,0,0,.97015,0l6.274-5.93106a.69288.69288,0,0,0,.01539-.97831l-.01539-.01542-32.62664-32.78251A.69307.69307,0,0,0,999.18,556.2522Z" transform="translate(-726.91717 -357.46444)"/>
    <path id="Trazado_844" data-name="Trazado 844" class="cls-3" d="M976.51982,560.27584l-25.361,25.246a3.7779,3.7779,0,0,0-.0418,5.30633l46.909,48.27089a3.75886,3.75886,0,0,0,5.32315.07521l.01388-.01361L1029.47657,613.42a3.77789,3.77789,0,0,0,.03857-5.33468l-.01767-.01786-47.65964-47.79158A3.75882,3.75882,0,0,0,976.51982,560.27584Z" transform="translate(-726.91717 -357.46444)"/>
    <path id="Trazado_845" data-name="Trazado 845" class="cls-6" d="M976.51982,559.24084l-25.361,25.2669a3.7779,3.7779,0,0,0-.0418,5.30633l46.909,48.2709a3.75887,3.75887,0,0,0,5.32315.0752l.01388-.01361,26.11349-25.74066a3.77789,3.77789,0,0,0,.03857-5.33468l-.01767-.01786-47.65964-47.78725A3.75882,3.75882,0,0,0,976.51982,559.24084Z" transform="translate(-726.91717 -357.46444)"/>
    <path id="Trazado_846" data-name="Trazado 846" class="cls-7" d="M1000.8824,426.75664l-6.421,44.98407,118.96877,118.83667,6.057-44.59041a7.89036,7.89036,0,0,0-2.23787-6.63523L1003.5217,425.86885a1.55575,1.55575,0,0,0-2.63934.88839Z" transform="translate(-726.91717 -357.46444)"/>
    <ellipse id="Elipse_104" data-name="Elipse 104" class="cls-1" cx="123.43218" cy="286.01619" rx="9.66645" ry="1.3289"/>
    <ellipse id="Elipse_105" data-name="Elipse 105" class="cls-1" cx="86.39681" cy="289.77984" rx="9.66645" ry="1.3289"/>
    <ellipse id="Elipse_106" data-name="Elipse 106" class="cls-1" cx="42.77819" cy="284.68729" rx="9.66645" ry="1.3289"/>
    <ellipse id="Elipse_107" data-name="Elipse 107" class="cls-1" cx="101.22079" cy="300.49357" rx="6.8722" ry="0.94754"/>
    <ellipse id="Elipse_108" data-name="Elipse 108" class="cls-1" cx="62.7843" cy="299.54665" rx="6.8722" ry="0.94754"/>
    <path id="Trazado_847" data-name="Trazado 847" class="cls-8" d="M813.10679,646.94857s13.55689-44.543-2.12473-62.35892c-11.71189-13.34627-25.04253-11.73641-31.00729-10.09764a11.02278,11.02278,0,0,0-7.11074,5.91872c-2.0903,4.51035-1.70668,11.82452,13.00849,20.36285,24.64537,14.29751,26.17621,33.91056,26.17621,33.91056Z" transform="translate(-726.91717 -357.46444)"/>
    <path id="Trazado_848" data-name="Trazado 848" class="cls-9" d="M782.08905,580.78594s39.97164,12.5207,31.0116,66.16076" transform="translate(-726.91717 -357.46444)"/>
    <path id="Trazado_849" data-name="Trazado 849" class="cls-9" d="M805.44212,585.27537s-5.50059,3.71377-3.7644,9.30287" transform="translate(-726.91717 -357.46444)"/>
    <path id="Trazado_850" data-name="Trazado 850" class="cls-9" d="M786.1086,588.58187s3.34633-3.42851,7.4581-1.54021" transform="translate(-726.91717 -357.46444)"/>
    <path id="Trazado_851" data-name="Trazado 851" class="cls-9" d="M801.90766,605.83041s5.90635-3.00525,7.439.75842" transform="translate(-726.91717 -357.46444)"/>
    <path id="Trazado_852" data-name="Trazado 852" class="cls-9" d="M816.52691,612.09106s-4.43821-.35177-4.51753,1.77309" transform="translate(-726.91717 -357.46444)"/>
    <path id="Trazado_853" data-name="Trazado 853" class="cls-8" d="M813.65765,647.30282s-15.895-32.37219-20.24526-31.66371c-2.07063.33515-3.02419,2.37684-3.45516,4.43026a13.08611,13.08611,0,0,0,.86072,7.88035C793.07364,633.131,799.12631,642.96868,813.65765,647.30282Z" transform="translate(-726.91717 -357.46444)"/>
    <path id="Trazado_854" data-name="Trazado 854" class="cls-9" d="M793.5335,621.78024s16.66469,24.22323,19.88561,25.28412" transform="translate(-726.91717 -357.46444)"/>
    <line id="Línea_2" data-name="Línea 2" class="cls-9" x1="65.08118" y1="268.09673" x2="68.971" y2="268.09673"/>
    <line id="Línea_3" data-name="Línea 3" class="cls-9" x1="69.74073" y1="276.95788" x2="75.83951" y2="277.21787"/>
    <line id="Línea_4" data-name="Línea 4" class="cls-9" x1="73.45103" y1="269.86982" x2="72.79012" y2="273.05128"/>
    <line id="Línea_5" data-name="Línea 5" class="cls-9" x1="79.93836" y1="279.55654" x2="79.81725" y2="282.44906"/>
    <path id="Trazado_855" data-name="Trazado 855" class="cls-8" d="M813.18487,647.30282s15.895-32.37219,20.241-31.66371c2.09031.33515,3.02849,2.37684,3.45947,4.43026a13.05284,13.05284,0,0,1-.86562,7.88035C833.7689,633.131,827.71622,642.96868,813.18487,647.30282Z" transform="translate(-726.91717 -357.46444)"/>
    <path id="Trazado_856" data-name="Trazado 856" class="cls-9" d="M833.30841,621.78024s-16.669,24.22323-19.88929,25.28412" transform="translate(-726.91717 -357.46444)"/>
    <line id="Línea_6" data-name="Línea 6" class="cls-9" x1="107.92208" y1="268.09673" x2="104.03226" y2="268.09673"/>
    <line id="Línea_7" data-name="Línea 7" class="cls-9" x1="103.26254" y1="276.95788" x2="97.16375" y2="277.21787"/>
    <line id="Línea_8" data-name="Línea 8" class="cls-9" x1="99.55224" y1="269.86982" x2="100.21314" y2="273.05128"/>
    <line id="Línea_9" data-name="Línea 9" class="cls-9" x1="93.06858" y1="279.55654" x2="93.18601" y2="282.44906"/>
    <path id="Trazado_857" data-name="Trazado 857" class="cls-8" d="M785.91678,654.86032a2.74558,2.74558,0,0,1-.90375-1.36649,1.2164,1.2164,0,0,1,.63139-1.39172,1.77741,1.77741,0,0,1,1.67286.58713,2.2527,2.2527,0,0,0,1.62737.788,2.47607,2.47607,0,0,1-.76542-2.31773.94484.94484,0,0,1,.21333-.47376c.32216-.34376.90375-.19715,1.29108.07517,1.22959.86254,1.56834,2.51484,1.577,4.03659a7.61971,7.61971,0,0,0,.0209-1.67637,1.71621,1.71621,0,0,1,.62341-1.47121,1.90273,1.90273,0,0,1,.94925-.22178,1.9546,1.9546,0,0,1,1.54375.41893,1.53041,1.53041,0,0,1-.06148,1.89447,5.95015,5.95015,0,0,1-1.59355,1.28267,3.50722,3.50722,0,0,0-1.14168,1.08984,1.16215,1.16215,0,0,0-.08361.19283h-3.45516A9.638,9.638,0,0,1,785.91678,654.86032Z" transform="translate(-726.91717 -357.46444)"/>
    <path id="Trazado_858" data-name="Trazado 858" class="cls-8" d="M846.43187,641.82457a2.77265,2.77265,0,0,1-.90745-1.36648,1.22071,1.22071,0,0,1,.6314-1.39172,1.77741,1.77741,0,0,1,1.67287.58713,2.22389,2.22389,0,0,0,1.62307.78364,2.4847,2.4847,0,0,1-.76542-2.31773.98658.98658,0,0,1,.21333-.46947c.32214-.34809.90375-.19715,1.29107.07517,1.2253.86253,1.56835,2.51484,1.57266,4.03227a7.58758,7.58758,0,0,0,.0252-1.677,1.678,1.678,0,0,1,.62341-1.47121,1.84112,1.84112,0,0,1,.94925-.22242,1.96431,1.96431,0,0,1,1.537.41893,1.54275,1.54275,0,0,1-.06148,1.89876,5.95516,5.95516,0,0,1-1.59848,1.25744,3.62566,3.62566,0,0,0-1.138,1.08984.92968.92968,0,0,0-.08361.19715h-3.45947a9.61939,9.61939,0,0,1-2.13335-1.425Z" transform="translate(-726.91717 -357.46444)"/>
    <path id="Trazado_859" data-name="Trazado 859" class="cls-8" d="M826.26038,654.86032a2.74558,2.74558,0,0,1-.90375-1.36649,1.2164,1.2164,0,0,1,.6314-1.39172,1.77744,1.77744,0,0,1,1.67287.58713,2.2527,2.2527,0,0,0,1.62737.788,2.476,2.476,0,0,1-.76542-2.31773.94408.94408,0,0,1,.21332-.47376c.32215-.34376.90375-.19715,1.29108.07517,1.2253.86254,1.56834,2.51484,1.577,4.03659a7.62032,7.62032,0,0,0,.02091-1.67637,1.71621,1.71621,0,0,1,.61909-1.46689,1.90273,1.90273,0,0,1,.94925-.22242,1.95462,1.95462,0,0,1,1.54375.41894,1.53038,1.53038,0,0,1-.06149,1.89446,5.952,5.952,0,0,1-1.59356,1.28268,3.50749,3.50749,0,0,0-1.14167,1.08984,1.16744,1.16744,0,0,0-.08361.19283h-3.45515a9.63933,9.63933,0,0,1-2.13764-1.45027Z" transform="translate(-726.91717 -357.46444)"/>
    <path id="Trazado_860" data-name="Trazado 860" class="cls-8" d="M769.06827,628.50793s-1.2966,1.69731.5982,4.25837,3.45516,4.72845,2.82314,6.32536c0,0-2.857-4.76172-5.18274-4.82456S766.50825,631.37086,769.06827,628.50793Z" transform="translate(-726.91717 -357.46444)"/>
    <path id="Trazado_861" data-name="Trazado 861" class="cls-3" d="M769.06827,628.50793a2.1387,2.1387,0,0,0-.26375.5323c-2.27106,2.67011-3.48036,5.164-1.2966,5.22687,2.02883.05483,4.46712,3.69652,5.04871,4.61079a1.75094,1.75094,0,0,1-.067.20949s-2.857-4.76173-5.18273-4.82456S766.50825,631.37086,769.06827,628.50793Z" transform="translate(-726.91717 -357.46444)"/>
    <path id="Trazado_862" data-name="Trazado 862" class="cls-10" d="M766.65888,630.671c0,.59947.067,1.08124.15062,1.08124s.15062-.48177.15062-1.08124-.08361-.31421-.16722-.31421S766.65888,630.07155,766.65888,630.671Z" transform="translate(-726.91717 -357.46444)"/>
    <path id="Trazado_863" data-name="Trazado 863" class="cls-10" d="M765.83628,631.38319c.52258.28526.97875.46082,1.01626.38566s-.35167-.36043-.87424-.65-.31785-.07517-.35536,0S765.31186,631.11456,765.83628,631.38319Z" transform="translate(-726.91717 -357.46444)"/>
    <path id="Trazado_864" data-name="Trazado 864" class="cls-8" d="M775.91158,628.50793s1.29107,1.69731-.59821,4.25837-3.45515,4.72845-2.82314,6.32536c0,0,2.857-4.76172,5.18274-4.82456S778.46729,631.37086,775.91158,628.50793Z" transform="translate(-726.91717 -357.46444)"/>
    <path id="Trazado_865" data-name="Trazado 865" class="cls-3" d="M775.911,628.50793a2.1387,2.1387,0,0,1,.26375.5323c2.26737,2.67011,3.47607,5.164,1.2966,5.22687-2.03313.05483-4.46712,3.69652-5.053,4.61079a1.76585,1.76585,0,0,0,.07131.20949s2.857-4.76173,5.18274-4.82456S778.46667,631.37086,775.911,628.50793Z" transform="translate(-726.91717 -357.46444)"/>
    <path id="Trazado_866" data-name="Trazado 866" class="cls-10" d="M778.32465,630.671c0,.59947-.067,1.08124-.14632,1.08124s-.15063-.48177-.15063-1.08124.08362-.31421.16723-.31421S778.32465,630.07155,778.32465,630.671Z" transform="translate(-726.91717 -357.46444)"/>
    <path id="Trazado_867" data-name="Trazado 867" class="cls-10" d="M779.16139,631.38319c-.52258.28526-.97875.46082-1.02056.38566s.35535-.36043.87855-.65.31784-.07517.35535,0S779.66737,631.11456,779.16139,631.38319Z" transform="translate(-726.91717 -357.46444)"/>
    <path id="Trazado_868" data-name="Trazado 868" class="cls-11" d="M777.906,638.86921s-3.62238-.11337-4.71426-.8884-5.57129-1.71025-5.85594-.46146-5.43788,6.212-1.35255,6.24587,9.49923-.637,10.59111-1.30365S777.906,638.86921,777.906,638.86921Z" transform="translate(-726.91717 -357.46444)"/>
    <path id="Trazado_869" data-name="Trazado 869" class="cls-12" d="M765.92235,643.32908c4.09086.03328,9.50353-.637,10.59111-1.30365.83673-.507,1.15889-2.322,1.2548-3.16052h.13833s-.22993,2.93381-1.31751,3.59239-6.50455,1.33753-10.59111,1.30365c-1.1798,0-1.58925-.41893-1.56834-1.05228C764.59685,643.08572,765.04442,643.32043,765.92235,643.32908Z" transform="translate(-726.91717 -357.46444)"/>
    <path id="Trazado_870" data-name="Trazado 870" class="cls-13" d="M799.05438,497.4943c-.067,1.76078,1.43862,4.09943,1.43862,4.09943.45987,1.10894,6.10309,6.25819,6.10309,6.25819l4.18062,2.80011a23.41633,23.41633,0,0,1-2.65223,1.69732c-2.03682,1.04365-3.1496,4.49741-3.1496,4.49741s-3.0869,7.43183,3.1496,8.47548l.11681.02094.5607.60808a41.42378,41.42378,0,0,0,3.6519,3.67186c1.05007.71651,4.26669,6.1282,4.26669,6.1282s3.409,5.60638,7.94747,5.8682,4.52614-4.95455,4.18061-5.28169a2.0972,2.0972,0,0,1-.28034-.71282,28.33464,28.33464,0,0,0,3.03648,4.36374c.78632.52,3.34634,4.61078,3.34634,4.61078s3.21661,7.36469,3.73919,8.14835a29.34387,29.34387,0,0,1,1.44292,4.69457s1.8407,5.40738,2.694,6.12819,1.30953,3.32686,1.30953,3.32686,2.68973,3.9109,3.14959,4.559a27.755,27.755,0,0,1,1.44292,2.93441s1.44292,2.34728,1.44292,3.26094,3.01988,2.473,3.01988,2.473,2.16653,2.54443,3.41335,3.00095,2.426,3.45377,2.62272,3.25663a.78119.78119,0,0,1,.37256-.07516l.51027.51134c1.99134,1.98688,5.96906,5.94768,6.98962,6.86566,1.38022,1.25742,4.52983,1.43363,7.15255.91365a10.67009,10.67009,0,0,0,4.2624-2.72863,2.93815,2.93815,0,0,0,.13884-4.14669q-.04323-.04631-.08843-.09074a15.549,15.549,0,0,0-3.34634-2.74527,19.65886,19.65886,0,0,1-6.09879-4.69456,13.20738,13.20738,0,0,0-3.53878-2.67812l-.15062-.0881a13.1096,13.1096,0,0,1-.38055-2.18772s2.16653-4.88741.98368-5.14739-5.64262-8.01836-5.64262-8.01836c-.06148-5.86821-5.43788-10.82276-5.43788-10.82276s-2.68973-6.38818-3.476-7.75467a2.09828,2.09828,0,0,1,0-2.34728,8.6665,8.6665,0,0,1-1.76938-1.76078c-.25945-.58713-1.50994-5.02972-1.50994-5.02972a14.24782,14.24782,0,0,1-1.577-3.9109c-.067-1.23648-3.00758-4.68594-3.00758-4.68594s-1.19209-5.80967-2.50961-6.85332c-.25514-.20146-.21764-.96848,0-2.07066l.06149-.06716.201-.19715.06149-.06161a21.43237,21.43237,0,0,0,1.69806-1.89015l.0252-.03326c.0836-.10474.16293-.20516.23854-.308,1.90588-2.60727,3.0826-8.80262,3.0826-8.80262s.37625-.17621.86563-.4442a8.25623,8.25623,0,0,0,1.8905-1.30364.41839.41839,0,0,0,.067-.10042.08388.08388,0,0,0,0-.03326.64508.64508,0,0,0,.03319-.07947.22039.22039,0,0,0,0-.04622.60129.60129,0,0,0,0-.0924v-.19716a.474.474,0,0,0-.0209-.16757.17857.17857,0,0,1,0-.02095.74038.74038,0,0,0-.03319-.15526v-.05052a.49423.49423,0,0,0-.0418-.14231.3956.3956,0,0,0,0-.05422l-.05041-.15526a.15155.15155,0,0,1,0-.03759c-.07931-.20946-.17584-.41893-.28466-.64566h0l-.11312-.21377h0a11.40787,11.40787,0,0,0-.64431-1.10218l-.03319-.05052a14.9865,14.9865,0,0,1,2.17946-4.40933c1.1798-1.17055-.65659-7.43182-.65659-7.43182a34.63455,34.63455,0,0,0-.9222-5.73391c-.52872-1.30364,0-1.49216-.41806-2.60727-.506-1.25742-.87424-1.17056-.22193-4.0409.24591-1.08123.6277-2.27211.97015-3.38292l.418.38567c2.426,2.29306,6.23651,5.27739,6.23651,5.27739s7.479,6.77694,8.13561,6.97471,2.627,6.8447,2.627,6.8447-.45986,11.01561,5.57559,11.47274c2.56431.19283,3.6519-1.794,4.04476-4.137a12.50051,12.50051,0,0,0-2.95718-10.23195l-3.61377-4.11606-3.21661-5.73391a58.45541,58.45541,0,0,1-5.14893-10.24426,28.544,28.544,0,0,0-6.30782-9.34294l-.25944-.25568.33445-.308s-.52688-4.30088-.92219-4.82026a16.60918,16.60918,0,0,1-1.8364-4.18938c0-.66845-.9222-.77934-1.44292-1.56362,0,0-.9222-1.82361-1.7737-2.09468a1.25514,1.25514,0,0,1-.418-.268,9.40969,9.40969,0,0,0-5.36227-2.32634l-.52258-.05052a29.22122,29.22122,0,0,0-3.48837.05052h-.02951a6.34787,6.34787,0,0,1-2.25446-1.58457,17.73123,17.73123,0,0,0-3.6685-2.53581,7.16008,7.16008,0,0,0-4.41731-.99744,29.32183,29.32183,0,0,0-3.40906,1.178c-1.64827.46514-3.6728.36965-4.71,1.725-.498.64566-.64,1.50509-1.10663,2.17108-.66091.94754-1.87391,1.38742-2.55571,2.322a3.56846,3.56846,0,0,0-.58959,2.314,6.44248,6.44248,0,0,0,.23423,1.9573,10.21969,10.21969,0,0,1,.38056,1.67637,2.09774,2.09774,0,0,1-.04611.27662c-.09221.41894-.30739.77134-.38916,1.178a2.12934,2.12934,0,0,0-.0209.67091,5.67227,5.67227,0,0,0,.95355,2.88389,7.72975,7.72975,0,0,1,.6566,2.29677,21.63468,21.63468,0,0,0-3.17482,1.21985,9.0535,9.0535,0,0,0-3.53016,2.71077,17.899,17.899,0,0,1-4.72657,4.57321,37.29848,37.29848,0,0,0-1.44292,4.29227c-.39347,1.67637-.78633,4.43027-1.96735,5.86821s-1.72144,5.70495-1.72144,5.70495a16.39082,16.39082,0,0,0-1.577,3.06379,22.53331,22.53331,0,0,0,0,3.64661,2.13311,2.13311,0,0,0,.45618.59514l-.11742.41893A38.11654,38.11654,0,0,0,799.05438,497.4943ZM836.048,468.13168a4.08726,4.08726,0,0,1-.11681.41893c0-.13429.0209-.26429.02951-.398Zm-14.94941,55.71506-.209-.19283-.10021-.0924a.86714.86714,0,0,1,.03751-.15957Zm-10.87576-26.67956.08361-.15527.3074-.56186,2.5096-2.054.32216.29326s-.26375,2.73726-.91605,2.60727c-.15062-.02957-.21764.59945-.23424,1.58457-1.18348-1.0147-2.0903-1.71456-2.0903-1.71456Z" transform="translate(-726.91717 -357.46444)"/>
    <path id="Trazado_871" data-name="Trazado 871" class="cls-14" d="M832.87313,446.39436s7.80793-.70419,9.66645-.51135l.506.0462a9.14286,9.14286,0,0,1,5.20795,2.31771,1.255,1.255,0,0,0,.41806.2643c.83673.25567,1.72757,2.054,1.72757,2.054s-1.98272,15.71449-1.98272,15.90731S844.317,473.783,844.317,473.783l-3.96974,1.54021-6.84761.96848-.19242-2.9572a5.9582,5.9582,0,0,0,2.92827-5.554C835.86781,464.03716,832.87313,446.39436,832.87313,446.39436Z" transform="translate(-726.91717 -357.46444)"/>
    <path id="Trazado_872" data-name="Trazado 872" class="cls-15" d="M836.71316,465.05927s-1.67287,7.56983,0,10.00522-16.51406-3.97376-16.51406-3.97376l-3.34634-6.03148s1.2548-.89271,2.66884-2.04541c1.99134-1.60551,4.37551-3.70944,4.37551-4.61078C823.91678,456.84748,836.71316,465.05927,836.71316,465.05927Z" transform="translate(-726.91717 -357.46444)"/>
    <path id="Trazado_873" data-name="Trazado 873" class="cls-3" d="M836.71316,465.05927s-1.67287,7.56983,0,10.00522-16.51406-3.97376-16.51406-3.97376l-3.34634-6.03148s1.2548-.89271,2.66884-2.04541c1.99134-1.60551,4.37551-3.70944,4.37551-4.61078C823.91678,456.84748,836.71316,465.05927,836.71316,465.05927Z" transform="translate(-726.91717 -357.46444)"/>
    <ellipse id="Elipse_109" data-name="Elipse 109" class="cls-3" cx="105.95596" cy="101.45" rx="11.13889" ry="11.16223"/>
    <ellipse id="Elipse_110" data-name="Elipse 110" class="cls-15" cx="105.95596" cy="100.93434" rx="11.13889" ry="11.16223"/>
    <path id="Trazado_874" data-name="Trazado 874" class="cls-15" d="M847.27476,472.25207a6.8248,6.8248,0,0,0,1.9157,2.314c2.36759,2.25488,6.08649,5.1936,6.08649,5.1936s7.29887,6.66913,7.94748,6.862,2.56,6.73627,2.56,6.73627-.44758,10.8394,5.43788,11.28791c2.5096.18852,3.56581-1.76077,3.94884-4.06985a12.379,12.379,0,0,0-2.88216-10.06006l-3.497-4.07848-3.13547-5.64643a57.39732,57.39732,0,0,1-5.05733-10.06006,28.05934,28.05934,0,0,0-6.14489-9.22155c-.6566-.65367-1.079-1.00176-1.079-1.00176l-2.92828.897S847.14933,470.96075,847.27476,472.25207Z" transform="translate(-726.91717 -357.46444)"/>
    <path id="Trazado_875" data-name="Trazado 875" class="cls-16" d="M858.47635,585.27042l1.12077,1.12745c1.94092,1.9573,5.82275,5.86823,6.8181,6.75723,1.34271,1.21984,4.41731,1.4127,6.97733.897a10.28394,10.28394,0,0,0,4.15787-2.68244,2.88813,2.88813,0,0,0,.13867-4.07607q-.04516-.04845-.09255-.09484a14.95155,14.95155,0,0,0-3.24613-2.70338,19.23168,19.23168,0,0,1-5.95247-4.61079,12.71609,12.71609,0,0,0-3.44654-2.63622c-1.10663-.6247-1.995-1.0184-1.995-1.0184Z" transform="translate(-726.91717 -357.46444)"/>
    <path id="Trazado_876" data-name="Trazado 876" class="cls-3" d="M860.05761,585.27106s.37256.38137.94925.95985c1.652,1.67638,4.95219,4.97982,5.80185,5.74685,1.14167,1.035,3.76439,1.19889,5.93156.7627a7.95715,7.95715,0,0,0,3.13547-1.90985,2.89242,2.89242,0,0,0,.27125-4.07548q-.07965-.09126-.16672-.17553a11.05592,11.05592,0,0,0-2.42169-1.96591,16.23938,16.23938,0,0,1-5.061-3.92754,10.75008,10.75008,0,0,0-2.92828-2.24256c-.93694-.53231-1.69377-.86746-1.69377-.86746Z" transform="translate(-726.91717 -357.46444)"/>
    <path id="Trazado_877" data-name="Trazado 877" class="cls-16" d="M807.60436,524.32913s.87854.99313,1.94522,2.1563a39.7701,39.7701,0,0,0,3.55967,3.61333c1.02487.7085,4.16218,6.03148,4.16218,6.03148s3.34633,5.51643,7.74644,5.7721,4.41732-4.87508,4.09517-5.1936-.76542-3.211-1.40543-5.32729c-.48508-1.60182-4.45482-5.40738-6.35392-7.16323-.6105-.56619-1.00828-.918-1.00828-.918Z" transform="translate(-726.91717 -357.46444)"/>
    <path id="Trazado_878" data-name="Trazado 878" class="cls-3" d="M808.54562,525.06658s.79493.90564,1.76939,1.97148a37.17354,37.17354,0,0,0,3.24612,3.29482c.937.64566,3.79392,5.49917,3.79392,5.49917s3.03648,5.02972,7.06463,5.26075,4.02385-4.44321,3.7355-4.73645-.70272-2.93442-1.28431-4.85414c-.44327-1.45889-4.06134-4.92868-5.79323-6.5305-.55331-.51567-.9222-.83849-.9222-.83849Z" transform="translate(-726.91717 -357.46444)"/>
    <path id="Trazado_879" data-name="Trazado 879" class="cls-3" d="M807.60436,524.32913s.87854.99313,1.94522,2.1563c5.6217.83849,8.23827-.10474,8.23827-.10474a26.24258,26.24258,0,0,1,3.197-1.21986c.14632,0,.25083-.38135.36888-.94323-.6105-.56619-1.00828-.918-1.00828-.918Z" transform="translate(-726.91717 -357.46444)"/>
    <path id="Trazado_880" data-name="Trazado 880" class="cls-17" d="M814.377,509.19315a45.90371,45.90371,0,0,1-5.51719,3.91091c-1.995,1.03131-3.06168,4.41794-3.06168,4.41794s-3.00759,7.31417,3.0703,8.33687,8.901,0,8.901,0a26.33527,26.33527,0,0,1,3.197-1.21553c.57729-.06161.573-5.583,2.68544-7.25132s6.97671-5.44927,6.97671-5.44927Z" transform="translate(-726.91717 -357.46444)"/>
    <path id="Trazado_881" data-name="Trazado 881" class="cls-3" d="M814.377,509.19315a45.90371,45.90371,0,0,1-5.51719,3.91091c-1.995,1.03131-3.06168,4.41794-3.06168,4.41794s-3.00759,7.31417,3.0703,8.33687,8.901,0,8.901,0a26.33527,26.33527,0,0,1,3.197-1.21553c.57729-.06161.573-5.583,2.68544-7.25132s6.97671-5.44927,6.97671-5.44927Z" transform="translate(-726.91717 -357.46444)"/>
    <path id="Trazado_882" data-name="Trazado 882" class="cls-17" d="M847.27291,500.40285s2.5096,3.42481,1.73188,4.24605a11.66064,11.66064,0,0,1-2.68544,1.71889s-1.15459,6.09431-3.01251,8.65969a33.84841,33.84841,0,0,1-5.50058,5.39013l2.55572-14.30612Z" transform="translate(-726.91717 -357.46444)"/>
    <path id="Trazado_883" data-name="Trazado 883" class="cls-3" d="M837.80933,520.41761a42.27935,42.27935,0,0,0,3.27073-2.87527,20.53084,20.53084,0,0,0,2.22556-2.51486c1.8573-2.56538,3.0125-8.65969,3.0125-8.65969a11.39665,11.39665,0,0,0,2.68544-1.71889c.46847-.499-.27173-1.953-.92219-3.02189-.41806-.69556-.80293-1.22416-.80293-1.22416l-3.6273,2.99294-3.28793,2.71632-.96645,5.54106Z" transform="translate(-726.91717 -357.46444)"/>
    <path id="Trazado_884" data-name="Trazado 884" class="cls-3" d="M858.47635,585.271l1.12077,1.12745c.707,0,1.76079.0881,1.76079.0881s5.18273-6.22244,4.3503-7.31417a5.32205,5.32205,0,0,1-.75681-1.932c-1.10663-.6247-1.995-1.0184-1.995-1.0184Z" transform="translate(-726.91717 -357.46444)"/>
    <path id="Trazado_885" data-name="Trazado 885" class="cls-17" d="M818.91908,519.5822c0,1.08986,8.70429,14.43179,8.70429,14.43179s3.39245,5.77209,4.16217,6.28714,3.26273,4.55226,3.26273,4.55226,3.13547,7.247,3.65189,8.01836a28.28413,28.28413,0,0,1,1.40544,4.61078s1.79459,5.32359,2.627,6.02778,1.28,3.27387,1.28,3.27387,2.62272,3.84807,3.07029,4.48941a27.61179,27.61179,0,0,1,1.40973,2.88389s1.40972,2.3097,1.40972,3.211,2.92828,2.43539,2.92828,2.43539,2.09031,2.51484,3.32544,2.93441,2.37189,3.39956,2.56,3.20365a9.57531,9.57531,0,0,1,2.37189,0s5.18274-6.22246,4.3503-7.31046a8.984,8.984,0,0,1-1.02486-3.65955s2.0903-4.80546.96216-5.0636-5.484-7.8674-5.484-7.8674c-.06149-5.7721-5.31246-10.64657-5.31246-10.64657s-2.627-6.28714-3.39245-7.63269a2.0743,2.0743,0,0,1,0-2.3097,8.50357,8.50357,0,0,1-1.72758-1.73119c-.25514-.57851-1.47243-4.93794-1.47243-4.93794a14.066,14.066,0,0,1-1.537-3.85237c-.06456-1.21984-2.92828-4.61079-2.92828-4.61079s-1.16258-5.713-2.44259-6.74c-.25083-.20146-.209-.95124,0-2.04108a95.53435,95.53435,0,0,1,3.7644-11.45919c.73776-1.945,1.29108-3.30715,1.29108-3.30715l-2.4764.62039L822.571,508.67749s-1.14167,3.07241-2.14563,5.96862A34.13327,34.13327,0,0,0,818.91908,519.5822Z" transform="translate(-726.91717 -357.46444)"/>
    <path id="Trazado_886" data-name="Trazado 886" class="cls-3" d="M859.82337,572.11764s6.59247-2.56538,3.34634.70419-9.46787,3.08042-9.46787,3.08042Z" transform="translate(-726.91717 -357.46444)"/>
    <path id="Trazado_887" data-name="Trazado 887" class="cls-3" d="M848.55475,559.019s-3.7103,2.054-3.00758,4.04092S848.55475,559.019,848.55475,559.019Z" transform="translate(-726.91717 -357.46444)"/>
    <path id="Trazado_888" data-name="Trazado 888" class="cls-3" d="M844.83216,543.124a3.88,3.88,0,0,1-3.65189,1.98688C838.50775,545.04624,844.83216,543.124,844.83216,543.124Z" transform="translate(-726.91717 -357.46444)"/>
    <path id="Trazado_889" data-name="Trazado 889" class="cls-3" d="M810.02174,514.58759s1.40973,4.36374,0,4.68225S810.02174,514.58759,810.02174,514.58759Z" transform="translate(-726.91717 -357.46444)"/>
    <path id="Trazado_890" data-name="Trazado 890" class="cls-3" d="M847.27476,472.25206a6.8248,6.8248,0,0,0,1.9157,2.314c.6105-1.97148,1.1798-3.77228.83674-4.36742-.51028-.897,1.489-2.82106,1.12938-4.10375-.276-.98081,2.13335-3.46672,3.27934-4.57751-.6566-.65366-1.079-1.00175-1.079-1.00175l-2.92766.897S847.14933,470.96136,847.27476,472.25206Z" transform="translate(-726.91717 -357.46444)"/>
    <path id="Trazado_891" data-name="Trazado 891" class="cls-3" d="M820.421,514.64613c2.4303-.1343,8.09811-1.89447,8.09811-1.89447a81.85272,81.85272,0,0,0,10.87576-1.09847c2.0903-.41893,3.61377-1.0184,3.61377-1.81067,0-1.06029.86562-2.48158,1.84868-3.77228a30.02874,30.02874,0,0,1,2.15179-2.4434A3.89525,3.89525,0,0,0,847.9,502.1809c.06148-.17189.12972-.36473.201-.56619-.418-.69556-.80292-1.22416-.80292-1.22416l-3.6273,2.99294-21.08139,5.2817S821.4084,511.7499,820.421,514.64613Z" transform="translate(-726.91717 -357.46444)"/>
    <path id="Trazado_892" data-name="Trazado 892" class="cls-14" d="M813.41419,510.47585s4.73394,2.82106,6.1449,3.33241,8.95943-1.82732,8.95943-1.82732,14.46863-.47808,14.46863-2.93441c0-1.88214,2.74385-4.90836,3.99618-6.19105a3.87785,3.87785,0,0,0,.89085-1.45026,15.08017,15.08017,0,0,1,2.15179-4.41794c1.15458-1.1527-.64-7.31047-.64-7.31047a34.86232,34.86232,0,0,0-.89514-5.6458c-.51027-1.28207,0-1.47122-.41806-2.56538-.49183-1.22787-.83673-1.157-.21332-3.97807s2.17515-6.41345,1.67287-7.31417,1.489-2.82106,1.12938-4.10375,3.86093-5.13076,3.86093-5.13076-.52688-4.19553-.90745-4.73215a17.174,17.174,0,0,1-1.79028-4.10375c0-.64135-.89946-.77134-1.40973-1.54021s-6.421,19.88725-6.421,19.88725l-8.61269,1.945-.47709.10474s-4.89809.23041-8.0772-1.54021c0,0-5.492-.897-7.28658-10.00522a21.01637,21.01637,0,0,0-3.982,1.44226,8.85548,8.85548,0,0,0-3.44287,2.66149,17.44287,17.44287,0,0,1-4.60113,4.50174,37.41844,37.41844,0,0,0-1.40973,4.22081c-.38056,1.677-.76542,4.36373-1.92,5.77642s-1.67286,5.6421-1.67286,5.6421l11.5416,10.52639s-.25514,2.69537-.89514,2.56538S813.41419,510.47585,813.41419,510.47585Z" transform="translate(-726.91717 -357.46444)"/>
    <path id="Trazado_893" data-name="Trazado 893" class="cls-3" d="M815.57705,462.90915l6.1572,12.86386s2.56,1.67637,3.45947.767,4.28759-.897,4.28759-.897l.44757.897,6.48734-1.534L835.4,472.9113l-.47708.10905s-4.89809.23041-8.0772-1.54021c0,0-5.492-.90135-7.28657-10.00955a21.01467,21.01467,0,0,0-3.982,1.438Z" transform="translate(-726.91717 -357.46444)"/>
    <path id="Trazado_894" data-name="Trazado 894" class="cls-14" d="M815.57705,462.39718l6.1572,12.86016s2.56,1.67637,3.45947.77134,4.28759-.897,4.28759-.897l.44757.897,6.48734-1.54021L835.4,472.39379l-.47708.10474s-4.89809.23041-8.0772-1.54021c0,0-5.492-.897-7.28657-10.00522a21.0171,21.0171,0,0,0-3.982,1.44164Z" transform="translate(-726.91717 -357.46444)"/>
    <path id="Trazado_895" data-name="Trazado 895" class="cls-3" d="M818.27907,499.82435s13.587,4.28364,14.59406,4.82455S818.3418,501.29986,818.27907,499.82435Z" transform="translate(-726.91717 -357.46444)"/>
    <path id="Trazado_896" data-name="Trazado 896" class="cls-3" d="M826.84565,506.3678s-3.572,1.99118-4.852,1.28269S826.84565,506.3678,826.84565,506.3678Z" transform="translate(-726.91717 -357.46444)"/>
    <path id="Trazado_897" data-name="Trazado 897" class="cls-3" d="M838.06016,482.57581s3.43856,18.40555-1.644,23.792Z" transform="translate(-726.91717 -357.46444)"/>
    <path id="Trazado_898" data-name="Trazado 898" class="cls-3" d="M843.71078,454.86553a3.86212,3.86212,0,0,0,.13833-5.08886,13.3438,13.3438,0,0,1-1.38883-1.45026,6.23893,6.23893,0,0,0-.67628-1.11512c-.66091-.67769-1.77369-.499-2.68112-.77565a6.02515,6.02515,0,0,1-2.19605-1.555,17.25379,17.25379,0,0,0-3.57627-2.51486,7.04777,7.04777,0,0,0-4.31281-.9808,31.5832,31.5832,0,0,0-3.32543,1.16131c-1.60647.45714-3.58488.36472-4.60115,1.69732-.48078.63272-.61909,1.47553-1.07527,2.1335-.64431.93029-1.82779,1.36648-2.50961,2.28444a4.428,4.428,0,0,0-.34736,3.69282,5.08863,5.08863,0,0,1,.32646,2.42676c-.09221.39431-.29694.7584-.37625,1.157-.209,1.03934.45986,2.02446.90745,2.98863a7.55807,7.55807,0,0,1,.6941,3.33241,1.49993,1.49993,0,0,0,.10453.75839,1.32706,1.32706,0,0,0,.506.45281l1.92432,1.21554a.83621.83621,0,0,0,.30124.13429c.37626.06162.60681-.37273.83674-.6623a2.34323,2.34323,0,0,1,2.77765-.27662c.90807.43619,1.65257,1.1527,2.56432,1.56794,2.13764.97649,4.60114.10905,6.914-.33946a15.23428,15.23428,0,0,0,2.33623-.528,10.86636,10.86636,0,0,0,2.04974-1.10217,7.31056,7.31056,0,0,0,1.75279-1.37881,2.481,2.481,0,0,0,.58161-2.27211c-.18813-.6777-.79064-1.28269-.66951-2.03308C840.93374,456.49569,842.87035,455.72066,843.71078,454.86553Z" transform="translate(-726.91717 -357.46444)"/>
    <path id="Trazado_899" data-name="Trazado 899" class="cls-14" d="M843.71078,454.35417a3.86646,3.86646,0,0,0,.13833-5.09257,13.30388,13.30388,0,0,1-1.38883-1.44595,6.42518,6.42518,0,0,0-.67628-1.11943c-.66091-.67769-1.77369-.49287-2.68112-.77133a6.03681,6.03681,0,0,1-2.19605-1.55932,17.07915,17.07915,0,0,0-3.57627-2.51486,7.04777,7.04777,0,0,0-4.31281-.9808,31.5832,31.5832,0,0,0-3.32543,1.16131c-1.60647.45714-3.58488.36042-4.60115,1.67637-.48078.637-.61909,1.4786-1.07527,2.13781-.64431.93029-1.82779,1.36648-2.50961,2.28444a4.428,4.428,0,0,0-.34736,3.69282,5.08205,5.08205,0,0,1,.32646,2.42677c-.09221.3943-.29694.75839-.37625,1.157-.209,1.03934.45986,2.02446.90745,2.98431a7.55858,7.55858,0,0,1,.715,3.38292,1.51589,1.51589,0,0,0,.10453.76272,1.39779,1.39779,0,0,0,.506.45281l1.92432,1.21123a.83583.83583,0,0,0,.30125.138c.37625.05423.6068-.37334.83673-.6666a2.34983,2.34983,0,0,1,2.77766-.27663c.90806.43187,1.652,1.1527,2.56431,1.56795,2.13764.97649,4.60114.109,6.914-.33516a15.75458,15.75458,0,0,0,2.33622-.5323,10.86813,10.86813,0,0,0,2.05034-1.09906,7.32673,7.32673,0,0,0,1.75279-1.38311,2.47234,2.47234,0,0,0,.58161-2.26781c-.18813-.67769-.79063-1.287-.66951-2.03307C840.93374,455.98,842.87035,455.205,843.71078,454.35417Z" transform="translate(-726.91717 -357.46444)"/>
    <path id="Trazado_900" data-name="Trazado 900" class="cls-15" d="M800.03744,498.47881a9.021,9.021,0,0,0,1.40543,4.0409c.44757,1.08986,5.95246,6.15777,5.95246,6.15777l4.35462,2.93441s5.82643,3.59239,7.203,4.23374c.69042.32282,1.43063,1.67638,2.00363,3.001s.97015,2.51486.97015,2.51486a5.73293,5.73293,0,0,0,4.86488-5.09688,11.99793,11.99793,0,0,0,.12972-3.16483c-.32214-.06161-3.907-2.7582-3.907-2.7582s-4.15787-2.69538-5.50489-5.38644-6.59494-6.79913-6.59494-6.79913l.08362-.15526.30125-.55447.64-2.11687-10.039-4.48941s-.24592.81754-.565,1.93636A35.93423,35.93423,0,0,0,800.03744,498.47881Z" transform="translate(-726.91717 -357.46444)"/>
    <path id="Trazado_901" data-name="Trazado 901" class="cls-3" d="M801.33036,492.79113a55.7061,55.7061,0,0,0,6.06927,5.185c.62341.36473,2.80655.13862,3.60579.03758l.30125-.55447.64-2.11687-10.039-4.48941S801.6439,491.66368,801.33036,492.79113Z" transform="translate(-726.91717 -357.46444)"/>
    <path id="Trazado_902" data-name="Trazado 902" class="cls-14" d="M811.303,485.00749s5.12,3.08043,4.86488,4.42658a50.82055,50.82055,0,0,1-2.426,5.9982L811.303,497.4524s-3.13547.44851-3.907,0-6.20945-4.93793-6.4-5.6421a22.57024,22.57024,0,0,1,0-3.59239,16.3441,16.3441,0,0,1,1.537-3.01881l2.24216-3.97376Z" transform="translate(-726.91717 -357.46444)"/>
    <path id="Trazado_903" data-name="Trazado 903" class="cls-3" d="M828.51853,512.73935l1.50564,4.05323-2.53912,2.40581-.11742.72513-5.63461,3.24863-1.78907-4.53072Z" transform="translate(-726.91717 -357.46444)"/>
    <path id="Trazado_904" data-name="Trazado 904" class="cls-17" d="M828.51853,512.48366l1.50564,4.04891-2.53912,2.41012-.11742.72513-5.63461,3.24862-1.78907-4.53067Z" transform="translate(-726.91717 -357.46444)"/>
    <g id="Grupo_1339" data-name="Grupo 1339" class="cls-5">
      <path id="Trazado_905" data-name="Trazado 905" d="M840.80833,456.9941a1.46159,1.46159,0,0,1-.08361-.72513c.209-1.31227,2.14564-2.09469,2.98669-2.93442a3.66287,3.66287,0,0,0,.991-2.09468,3.799,3.799,0,0,1-.991,3.142C842.93738,455.13908,841.23869,455.85866,840.80833,456.9941Z" transform="translate(-726.91717 -357.46444)"/>
      <path id="Trazado_906" data-name="Trazado 906" d="M817.154,455.35163a10.67705,10.67705,0,0,0,.88285,2.0454,7.55788,7.55788,0,0,1,.6984,3.33241,1.508,1.508,0,0,0,.10021.76271,1.38963,1.38963,0,0,0,.506.45282l1.92431,1.21122a.77374.77374,0,0,0,.3074.138c.37256.05422.60251-.37334.83674-.6623a2.351,2.351,0,0,1,2.77765-.28093c.90375.43188,1.652,1.15269,2.56431,1.57163,2.14134.97218,4.60115.109,6.914-.33946a15.24084,15.24084,0,0,0,2.33622-.53231,10.72336,10.72336,0,0,0,2.05037-1.09477,7.32333,7.32333,0,0,0,1.75709-1.38311,2.7935,2.7935,0,0,0,.59389-1.16132,2.49323,2.49323,0,0,1-.59389,2.18771,7.43011,7.43011,0,0,1-1.75709,1.38311,10.72178,10.72178,0,0,1-2.04975,1.09847,15.74911,15.74911,0,0,1-2.33622.53231c-2.30918.4442-4.77267,1.31226-6.914.33515-.91174-.41893-1.67286-1.13175-2.56431-1.56732a2.35011,2.35011,0,0,0-2.77766.27662c-.24283.29327-.47278.72083-.83673.66661a.83617.83617,0,0,1-.3074-.138l-1.92432-1.21123a1.47,1.47,0,0,1-.506-.45281,1.516,1.516,0,0,1-.10021-.76272,7.55957,7.55957,0,0,0-.6984-3.3324c-.44757-.95987-1.11708-1.945-.90745-2.98432A.69762.69762,0,0,1,817.154,455.35163Z" transform="translate(-726.91717 -357.46444)"/>
      <path id="Trazado_907" data-name="Trazado 907" d="M817.18352,450.82832a5.31833,5.31833,0,0,1,.33445,2.37686c-.075-.45281-.21764-.90565-.33445-1.34985a6.06965,6.06965,0,0,1-.209-2.17107A6.90367,6.90367,0,0,0,817.18352,450.82832Z" transform="translate(-726.91717 -357.46444)"/>
    </g>
    <ellipse id="Elipse_111" data-name="Elipse 111" class="cls-1" cx="9.04735" cy="55.7987" rx="9.04735" ry="9.06631"/>
    <ellipse id="Elipse_112" data-name="Elipse 112" class="cls-1" cx="254.6274" cy="17.59588" rx="9.04735" ry="9.06631"/>
    <ellipse id="Elipse_113" data-name="Elipse 113" class="cls-1" cx="398.16282" cy="53.41384" rx="9.04735" ry="9.06631"/>
    <ellipse id="Elipse_114" data-name="Elipse 114" class="cls-1" cx="27.13837" cy="105.81743" rx="15.16274" ry="15.19451"/>
    <ellipse id="Elipse_115" data-name="Elipse 115" class="cls-1" cx="212.33859" cy="330.91217" rx="15.16274" ry="15.19451"/>
    <ellipse id="Elipse_116" data-name="Elipse 116" class="cls-1" cx="414.33384" cy="322.15142" rx="15.16274" ry="15.19451"/>
  </g>
</svg>
