<svg id="Capa_2" data-name="Capa 2" xmlns="http://www.w3.org/2000/svg" width="308.37138" height="167.72728" viewBox="0 0 308.37138 167.72728">
  <defs>
    <style>
      .cls-1 {
        fill: #f2f2f2;
      }

      .cls-2 {
        fill: #fff;
      }

      .cls-3 {
        fill: #ccc;
      }

      .cls-4 {
        fill: #2f2e41;
      }

      .cls-5 {
        fill: #a0616a;
      }

      .cls-6 {
        fill: #6c63ff;
      }

      .cls-7 {
        fill: #3f3d56;
      }

      .cls-8 {
        fill: #ffb8b8;
      }

      .cls-9 {
        opacity: 0.2;
        isolation: isolate;
      }

      .cls-10 {
        fill: #e6e6e6;
      }

      .cls-11 {
        fill: #ff6584;
      }
    </style>
  </defs>
  <g id="Grupo_1344" data-name="Grupo 1344">
    <path id="Trazado_960" data-name="Trazado 960" class="cls-1" d="M678.55517,808.41782a156.88542,156.88542,0,0,1-1.479,20.15906c-.03252.23506-.06777.47015-.1003.7052l-63.16165-.35261c-.18531-.2331-.36788-.47014-.545-.70756-.58963-.78983-1.14243-1.602-1.64978-2.442-2.43845-4.04748-3.555-8.78646-2.4361-12.05626l.02-.05093a5.737,5.737,0,0,1,1.11971-1.94559c2.55088-2.87135,7.70789-2.3926,12.3881-.07523-4.19793-4.59481-7.54021-10.39315-7.79448-15.56855-.24917-5.0481,2.38987-8.65444,5.25378-11.71893.094-.10146.188-.19982.28169-.29814.04544-.05055.094-.09833.13947-.14926,2.23315-2.33541,4.8381-4.63791,8.60741-4.35935,4.13407.306,8.71751,3.76854,11.93128,7.80388s5.34937,8.6129,7.514,13.0831,4.51252,9.05012,7.99231,12.868c-4.71076-5.95858-8.50907-12.73795-9.912-19.33163s-.16806-12.9264,4.03024-16.03164a9.81949,9.81949,0,0,1,4.30136-1.73559c.181-.03017.36514-.05444.552-.076a17.23717,17.23717,0,0,1,12.47507,4.1137,28.71256,28.71256,0,0,1,8.86247,13.76128A46.92294,46.92294,0,0,1,678.55517,808.41782Z" transform="translate(-608.74782 -662.57169)"/>
    <path id="Trazado_961" data-name="Trazado 961" class="cls-2" d="M637.231,829.05917l-1.20787-.00667q-.57513-.35965-1.15575-.7107c-.23977-.15122-.4819-.297-.7248-.44546q-6.00912-3.67022-12.09387-7.04069t-12.21883-6.43731a.50618.50618,0,0,1-.2911-.57865.14578.14578,0,0,1,.02-.0423c.0572-.10735.18453-.15163.371-.06033.50226.25191,1.00688.50342,1.50914.76084q6.15683,3.115,12.26077,6.54274t12.12991,7.15116c.08462.05132.16925.10579.25388.15672Z" transform="translate(-608.74782 -662.57169)"/>
    <path id="Trazado_962" data-name="Trazado 962" class="cls-2" d="M652.80384,829.14535l-.74674-.0043c-.16846-.23506-.33379-.47014-.50226-.70716q-5.93625-8.32457-11.87094-16.65067-9.71616-13.62884-19.42917-27.25733a.48085.48085,0,0,1-.08385-.16454c-.05524-.20137.09246-.3193.28169-.29814a.56728.56728,0,0,1,.39453.25113q5.44809,7.64283,10.89345,15.27943l19.3328,27.1202c.4098.57356.81961,1.15025,1.22941,1.72384Q652.55428,828.792,652.80384,829.14535Z" transform="translate(-608.74782 -662.57169)"/>
    <path id="Trazado_963" data-name="Trazado 963" class="cls-2" d="M669.44236,824.80834c-.03918,1.2588-.12145,2.49722-.23037,3.72426l-.06347.7052-.78356-.00431c.0239-.23505.0478-.47014.06895-.7052.16573-1.77281.28326-3.56519.29893-5.40656a75.4326,75.4326,0,0,0-1.48485-15.205,94.67328,94.67328,0,0,0-4.59911-15.797,108.48409,108.48409,0,0,0-7.52532-15.6293.41718.41718,0,0,1-.06935-.27777c.03252-.22331.32949-.28953.552-.076a.64789.64789,0,0,1,.11243.14221q.54224.93243,1.06447,1.87035a108.41135,108.41135,0,0,1,7.2025,15.68415,94.2226,94.2226,0,0,1,4.28688,15.81969,74.41924,74.41924,0,0,1,1.16868,15.15523Z" transform="translate(-608.74782 -662.57169)"/>
    <path id="Trazado_964" data-name="Trazado 964" class="cls-3" d="M888.24347,792.48529c0-3.02924-11.4008-5.48492-25.46573-5.48492s-25.46572,2.45568-25.46572,5.48492c0,1.94128,4.68726,3.64592,11.75341,4.62066v30.0519a2.54658,2.54658,0,1,0,5.09315,0V797.6474c2.69231.20842,5.59344.32282,8.61916.32282s5.92685-.1144,8.61917-.32282v29.51045a2.54658,2.54658,0,1,0,5.09315,0V797.106C883.55583,796.13121,888.24347,794.42578,888.24347,792.48529Z" transform="translate(-608.74782 -662.57169)"/>
    <circle id="Elipse_125" data-name="Elipse 125" class="cls-4" cx="256.84604" cy="68.73984" r="10.96985"/>
    <path id="Trazado_965" data-name="Trazado 965" class="cls-5" d="M838.29423,825.16879H833.491l-2.28486-18.52651H838.295Z" transform="translate(-608.74782 -662.57169)"/>
    <path id="Trazado_966" data-name="Trazado 966" class="cls-4" d="M830.06017,823.79638h9.26325v5.83243H824.22734a5.83244,5.83244,0,0,1,5.83244-5.83243Z" transform="translate(-608.74782 -662.57169)"/>
    <path id="Trazado_967" data-name="Trazado 967" class="cls-5" d="M830.79672,822.48822,826.21288,821.05l3.36617-18.36078,6.76369,2.12227Z" transform="translate(-608.74782 -662.57169)"/>
    <path id="Trazado_968" data-name="Trazado 968" class="cls-4" d="M823.34862,818.71458l8.83825,2.77364-1.74637,5.56485-14.40272-4.51989A5.83242,5.83242,0,0,1,823.34862,818.71458Z" transform="translate(-608.74782 -662.57169)"/>
    <path id="Trazado_969" data-name="Trazado 969" class="cls-4" d="M832.35915,815.09612a1.74688,1.74688,0,0,1-.61589-.11206l-3.53346-1.325a1.76929,1.76929,0,0,1-1.10248-2.031c.88973-4.00009,3.92172-17.61876,5.5817-24.92311,1.96908-8.66422,30.69325-10.27443,31.91482-10.33868l.10028-.00548,3.2314,4.06042c1.1675,3.75286.79767,6.68026-1.10011,8.70066-5.53665,5.89512-22.06782,2.23708-24.03925,1.774l-8.78685,23.06449a1.76808,1.76808,0,0,1-1.65057,1.13617Z" transform="translate(-608.74782 -662.57169)"/>
    <path id="Trazado_970" data-name="Trazado 970" class="cls-4" d="M837.45229,817.83858a1.74778,1.74778,0,0,1-.61589-.11206l-3.53346-1.325a1.76931,1.76931,0,0,1-1.10248-2.031c.88973-4.00009,3.92173-17.61876,5.5817-24.92311,1.96909-8.66421,30.69326-10.27443,31.91482-10.33868l.10029-.00547,3.2314,4.06041c1.1675,3.75286.79767,6.68026-1.10011,8.70066-5.53665,5.89474-22.06783,2.23708-24.03926,1.774l-8.78684,23.06449A1.76811,1.76811,0,0,1,837.45229,817.83858Z" transform="translate(-608.74782 -662.57169)"/>
    <path id="Trazado_971" data-name="Trazado 971" class="cls-5" d="M827.22877,761.41436a4.1228,4.1228,0,0,1,.34673.54849l19.32261,2.03726,2.78163-3.81359,6.30414,3.44532-5.46338,9.25386-23.69762-6.04126a4.11379,4.11379,0,1,1,.40589-5.42889Z" transform="translate(-608.74782 -662.57169)"/>
    <path id="Trazado_972" data-name="Trazado 972" class="cls-6" d="M872.13191,784.71824a1.76294,1.76294,0,0,1-.80315-.19589c-3.86374-1.96478-11.38748-5.3674-18.36432-6.07927a1.72063,1.72063,0,0,1-1.21451-.68561,1.7701,1.7701,0,0,1-.32674-1.37554c.62959-3.48685,2.07371-12.35949,1.8876-19.47149a9.63778,9.63778,0,0,1,7.28007-9.58607h0a31.28389,31.28389,0,0,1,3.88373-.76555,9.71618,9.71618,0,0,1,10.79708,11.26839c-1.2443,7.37095-2.49839,17.66537-1.40844,24.85181a1.76573,1.76573,0,0,1-.71263,1.70385,1.73478,1.73478,0,0,1-1.021.33613Z" transform="translate(-608.74782 -662.57169)"/>
    <path id="Trazado_973" data-name="Trazado 973" class="cls-6" d="M853.67043,765.97116a1.76312,1.76312,0,0,1-.70011-.14612l-5.0336-2.1787a1.76535,1.76535,0,0,1-.91754-2.31816l3.89116-8.98822a4.50548,4.50548,0,0,1,8.26931,3.5793l-3.89078,8.98822a1.76731,1.76731,0,0,1-1.61844,1.06408Z" transform="translate(-608.74782 -662.57169)"/>
    <circle id="Elipse_126" data-name="Elipse 126" class="cls-5" cx="256.44485" cy="71.30639" r="9.62252"/>
    <path id="Trazado_974" data-name="Trazado 974" class="cls-4" d="M855.397,729.15047a34.70774,34.70774,0,0,0,15.01537,4.9474l-1.58279-1.89661a11.63215,11.63215,0,0,0,3.593.71344,3.93438,3.93438,0,0,0,3.2071-1.50131,3.66,3.66,0,0,0,.24487-3.38106,6.9344,6.9344,0,0,0-2.18065-2.72679,12.98359,12.98359,0,0,0-12.08407-2.15989,7.76,7.76,0,0,0-3.60907,2.315c-.91206,1.1252-2.6684,2.12816-2.20142,3.49939Z" transform="translate(-608.74782 -662.57169)"/>
    <path id="Trazado_975" data-name="Trazado 975" class="cls-4" d="M866.81035,721.385a29.57412,29.57412,0,0,0-10.75947-6.95762,15.13868,15.13868,0,0,0-8.151-1.01158,7.77234,7.77234,0,0,0-6.04909,5.09628,9.62041,9.62041,0,0,0,.983,6.58426c.96259,2.05371,2.248,3.957,3.02649,6.08827A13.89567,13.89567,0,0,1,831.878,749.81845c2.67154.35809,5.13428,1.61374,7.74589,2.28213s5.69375.62292,7.63424-1.24782c2.05334-1.97928,2.09446-5.19775,1.99494-8.04835l-.44271-12.71132a16.14851,16.14851,0,0,1,.63977-6.40757c.77926-2.01649,2.6312-3.783,4.79343-3.76462a7.86278,7.86278,0,0,1,4.40323,1.98554,8.98636,8.98636,0,0,0,4.33739,2.1689c1.6341.14535,3.49585-1.06211,3.37363-2.69662" transform="translate(-608.74782 -662.57169)"/>
    <path id="Trazado_976" data-name="Trazado 976" class="cls-5" d="M849.0149,782.24651a4.30958,4.30958,0,1,1,1.66194-8.29164h0a4.13868,4.13868,0,0,1,.514.26053l17.52865-7.8697.49248-4.75386,7.55588-.20216-.05014,7.914a4.26258,4.26258,0,0,1-3.0798,4.05219l-20.49874,5.83479a4.02464,4.02464,0,0,1-.14065.39922,4.32723,4.32723,0,0,1-3.98323,2.65628Z" transform="translate(-608.74782 -662.57169)"/>
    <path id="Trazado_977" data-name="Trazado 977" class="cls-6" d="M876.12728,765.26948a1.763,1.763,0,0,1-.69032.18649l-5.47474.33654a1.76536,1.76536,0,0,1-1.86763-1.65135l-.60176-9.77571a4.50548,4.50548,0,0,1,8.99371-.55319l.601,9.7761a1.76731,1.76731,0,0,1-.961,1.68151Z" transform="translate(-608.74782 -662.57169)"/>
    <path id="Trazado_978" data-name="Trazado 978" class="cls-7" d="M864.22928,783.235H833.27863a1.37124,1.37124,0,0,1-1.37123-1.37123h0a1.37124,1.37124,0,0,1,1.37123-1.37124h30.95065a1.37124,1.37124,0,0,1,1.37123,1.37124h0A1.37124,1.37124,0,0,1,864.22928,783.235Z" transform="translate(-608.74782 -662.57169)"/>
    <path id="Trazado_979" data-name="Trazado 979" class="cls-7" d="M819.76222,780.68838V761.49114a2.54932,2.54932,0,0,1,2.54658-2.54657h34.86845a2.5493,2.5493,0,0,1,2.54657,2.54657v19.19724a2.54929,2.54929,0,0,1-2.54657,2.54657H822.3088A2.54931,2.54931,0,0,1,819.76222,780.68838Z" transform="translate(-608.74782 -662.57169)"/>
    <circle id="Elipse_127" data-name="Elipse 127" class="cls-2" cx="230.99521" cy="108.51808" r="2.35068"/>
    <path id="Trazado_980" data-name="Trazado 980" class="cls-8" d="M717.18511,748.49855a3.93969,3.93969,0,0,0-6.00207-.68326l-12.4406-6.42128.77338,7.23423,11.69582,4.98852a3.96089,3.96089,0,0,0,5.97425-5.11821Z" transform="translate(-608.74782 -662.57169)"/>
    <path id="Trazado_981" data-name="Trazado 981" class="cls-3" d="M706.12907,751.41064a1.76494,1.76494,0,0,1-1.43744.01528l-11.81531-5.126a18.168,18.168,0,0,1-9.192-8.89342l-6.21246-13.11329a5.68081,5.68081,0,0,1,8.97176-6.96625l10.92009,20.26053,10.08325,7.6166a1.76888,1.76888,0,0,1,.62176,1.92795l-.98964,3.19654a1.76533,1.76533,0,0,1-.59706.86622,1.74454,1.74454,0,0,1-.3526.2147Z" transform="translate(-608.74782 -662.57169)"/>
    <circle id="Elipse_128" data-name="Elipse 128" class="cls-8" cx="68.44905" cy="36.67771" r="9.62252"/>
    <path id="Trazado_982" data-name="Trazado 982" class="cls-8" d="M681.09469,825.47947h4.80284l2.28525-18.52651h-7.09123Z" transform="translate(-608.74782 -662.57169)"/>
    <path id="Trazado_983" data-name="Trazado 983" class="cls-4" d="M695.15959,829.94l-15.09569.0008-.0003-5.83245,9.26326-.00048a5.83243,5.83243,0,0,1,5.83273,5.83213Z" transform="translate(-608.74782 -662.57169)"/>
    <path id="Trazado_984" data-name="Trazado 984" class="cls-8" d="M665.42348,825.47947h4.80283l2.28526-18.52651h-7.09123Z" transform="translate(-608.74782 -662.57169)"/>
    <path id="Trazado_985" data-name="Trazado 985" class="cls-4" d="M679.48838,829.9396l-15.09569.0008-.00031-5.83245,9.26326-.00048a5.83243,5.83243,0,0,1,5.83274,5.83213Z" transform="translate(-608.74782 -662.57169)"/>
    <path id="Trazado_986" data-name="Trazado 986" class="cls-4" d="M663.74626,820.17673a1.76308,1.76308,0,0,1-.42117-1.39435l8.40957-63.07076L692.62792,759.26l2.22962-1.33794-5.76622,59.8421a1.76772,1.76772,0,0,1-1.6063,1.553l-6.32294.52734a1.76307,1.76307,0,0,1-1.90641-1.85782l1.638-28.49889a.19589.19589,0,0,0-.38473-.06268l-8.1032,30.04956a1.76613,1.76613,0,0,1-1.70228,1.30423h-5.63066a1.76306,1.76306,0,0,1-1.32657-.60178Z" transform="translate(-608.74782 -662.57169)"/>
    <path id="Trazado_987" data-name="Trazado 987" class="cls-3" d="M678.2155,760.12619a1.38416,1.38416,0,0,0-1.76928-.074l-4.17755,3.24942a1.763,1.763,0,0,1-2.77655-.90384c-2.049-7.17545-6.69083-25.2377-5.54722-37.95019a13.31494,13.31494,0,0,1,13.869-12.22355c4.786.3189,7.93434,3.07978,9.35806,8.20544,3.49585,12.58478,7.33726,35.66926,8.07067,40.16924a1.7552,1.7552,0,0,1-.83723,1.79788,12.90474,12.90474,0,0,1-6.53959,1.84137C685.07988,764.23792,681.73605,763.2667,678.2155,760.12619Z" transform="translate(-608.74782 -662.57169)"/>
    <path id="Trazado_988" data-name="Trazado 988" class="cls-8" d="M679.79085,764.60307a3.93976,3.93976,0,0,0-4.30136-4.24181l-5.82656-12.73012-3.85591,6.16937,6.12392,11.143a3.9609,3.9609,0,0,0,7.85951-.34045Z" transform="translate(-608.74782 -662.57169)"/>
    <path id="Trazado_989" data-name="Trazado 989" class="cls-3" d="M669.29506,760.07135a1.765,1.765,0,0,1-1.14048-.87485l-6.13489-11.32637a18.16813,18.16813,0,0,1-1.745-12.66978l3.204-14.15228a5.68082,5.68082,0,0,1,11.3589.05563l-3.91036,22.68135,3.23376,12.2161a1.76889,1.76889,0,0,1-.7009,1.90091l-2.75148,1.90445a1.76508,1.76508,0,0,1-1.00452.31342,1.7456,1.7456,0,0,1-.40863-.04819Z" transform="translate(-608.74782 -662.57169)"/>
    <path id="Trazado_990" data-name="Trazado 990" class="cls-9" d="M674.05793,730.669l-3.526,14.88766,5.09315,12.537-3.526-12.14519Z" transform="translate(-608.74782 -662.57169)"/>
    <path id="Trazado_991" data-name="Trazado 991" class="cls-4" d="M671.70568,707.16219a6.4797,6.4797,0,0,1-2.5027-.4529c-.35025-.13516-.71382-.246-1.06368-.3812a8.62709,8.62709,0,0,1-5.195-7.79133,11.21988,11.21988,0,0,1,4.18617-8.63875,16.199,16.199,0,0,1,9.14219-3.45512c3.55542-.27072,7.559.63076,9.54573,3.59185a3.11875,3.11875,0,0,1,.58531,2.69622,1.72386,1.72386,0,0,1-.48619.74674c-.88739.78944-1.77164.19589-2.67625.14339a2.9594,2.9594,0,0,0-2.76127,2.11327,6.36641,6.36641,0,0,0,.09951,3.6792,9.19136,9.19136,0,0,1,.46506,2.23863,2.24922,2.24922,0,0,1-.93205,1.98045,2.56982,2.56982,0,0,1-2.57439-.27111,18.13394,18.13394,0,0,0-2.28879-1.46565,2.024,2.024,0,0,0-2.45646.49639,2.71715,2.71715,0,0,0-.31068.89679c-.438,1.99612-.33732,1.87859-.77573,3.87471Z" transform="translate(-608.74782 -662.57169)"/>
    <path id="Trazado_992" data-name="Trazado 992" class="cls-10" d="M755.13609,739.81747a1.69246,1.69246,0,0,1-.31617-1.45154,40.08979,40.08979,0,0,0,0-18.61936,1.69287,1.69287,0,0,1,.31655-1.45154,1.66431,1.66431,0,0,1,1.31442-.637H772.072a1.68466,1.68466,0,0,1,1.66,1.41276,65.61933,65.61933,0,0,1,0,19.971,1.68466,1.68466,0,0,1-1.66,1.41276H756.4505A1.66432,1.66432,0,0,1,755.13609,739.81747Z" transform="translate(-608.74782 -662.57169)"/>
    <path id="Trazado_993" data-name="Trazado 993" class="cls-10" d="M730.97069,684.72728a1.69172,1.69172,0,0,1-.31616-1.4496,40.09192,40.09192,0,0,0,0-18.61936,1.692,1.692,0,0,1,.31616-1.44958,1.66387,1.66387,0,0,1,1.31442-.637h15.62107a1.68465,1.68465,0,0,1,1.66,1.41276,65.61749,65.61749,0,0,1,0,19.971,1.68463,1.68463,0,0,1-1.66,1.41275H732.28511A1.66389,1.66389,0,0,1,730.97069,684.72728Z" transform="translate(-608.74782 -662.57169)"/>
    <path id="Trazado_994" data-name="Trazado 994" class="cls-6" d="M769.40864,703.15467a65.61622,65.61622,0,0,1,0-19.971,1.68465,1.68465,0,0,1,1.66-1.41275h15.62107a1.66392,1.66392,0,0,1,1.31441.637,1.692,1.692,0,0,1,.31617,1.4496,40.08979,40.08979,0,0,0,0,18.61936,1.69174,1.69174,0,0,1-.31617,1.44959,1.66393,1.66393,0,0,1-1.31441.637H771.06862a1.68467,1.68467,0,0,1-1.66-1.41276Z" transform="translate(-608.74782 -662.57169)"/>
    <path id="Trazado_995" data-name="Trazado 995" class="cls-11" d="M704.0115,702.4573a65.62545,65.62545,0,0,1,0-19.971,1.68463,1.68463,0,0,1,1.66-1.41275h15.62107a1.66388,1.66388,0,0,1,1.31443.637,1.69214,1.69214,0,0,1,.31617,1.4496,40.09006,40.09006,0,0,0,0,18.61936,1.69171,1.69171,0,0,1-.31617,1.44959,1.66389,1.66389,0,0,1-1.31443.637H705.67186a1.68466,1.68466,0,0,1-1.66037-1.41276Z" transform="translate(-608.74782 -662.57169)"/>
    <path id="Trazado_996" data-name="Trazado 996" class="cls-6" d="M707.87524,748.55848a1.7203,1.7203,0,0,1-.32166-1.47544,40.74522,40.74522,0,0,0,0-18.92534,1.72067,1.72067,0,0,1,.32166-1.47544,1.69172,1.69172,0,0,1,1.336-.64723h15.87807a1.71327,1.71327,0,0,1,1.6874,1.43588,66.69558,66.69558,0,0,1,0,20.29931,1.71326,1.71326,0,0,1-1.6874,1.43588H709.21159a1.6917,1.6917,0,0,1-1.33636-.64722Z" transform="translate(-608.74782 -662.57169)"/>
    <path id="Trazado_997" data-name="Trazado 997" class="cls-7" d="M613.67752,830.29877H916.63894a.46661.46661,0,1,0,.02728-.93282c-.00909-.00027-.0182-.00027-.02728,0H613.67752a.46661.46661,0,0,0-.02729.93282Q613.66388,830.29916,613.67752,830.29877Z" transform="translate(-608.74782 -662.57169)"/>
    <path id="Trazado_998" data-name="Trazado 998" class="cls-2" d="M722.02478,734.58446h-8.36373a1.17534,1.17534,0,0,1-1.17534-1.17534V732.91a1.17534,1.17534,0,0,1,1.17534-1.17534h8.36373a1.17534,1.17534,0,0,1,1.17534,1.17534v.49912A1.17534,1.17534,0,0,1,722.02478,734.58446Z" transform="translate(-608.74782 -662.57169)"/>
    <path id="Trazado_999" data-name="Trazado 999" class="cls-2" d="M722.02478,739.49817h-8.36373a1.17534,1.17534,0,0,1-1.17534-1.17534v-.49913a1.17534,1.17534,0,0,1,1.17534-1.17534h8.36373a1.17534,1.17534,0,0,1,1.17534,1.17534v.49913A1.17534,1.17534,0,0,1,722.02478,739.49817Z" transform="translate(-608.74782 -662.57169)"/>
    <path id="Trazado_1000" data-name="Trazado 1000" class="cls-2" d="M716.48579,690.74111h-8.19762a1.17534,1.17534,0,0,1-1.17534-1.17534v-.45917a1.17534,1.17534,0,0,1,1.17534-1.17534h8.19762a1.17534,1.17534,0,0,1,1.17534,1.17534v.45917A1.17534,1.17534,0,0,1,716.48579,690.74111Z" transform="translate(-608.74782 -662.57169)"/>
    <path id="Trazado_1001" data-name="Trazado 1001" class="cls-2" d="M768.85859,725.26871h-8.19721a1.17533,1.17533,0,0,1-1.17534-1.17534v-.45916a1.17533,1.17533,0,0,1,1.17534-1.17534h8.19721a1.17534,1.17534,0,0,1,1.17534,1.17534v.45916A1.17534,1.17534,0,0,1,768.85859,725.26871Z" transform="translate(-608.74782 -662.57169)"/>
    <path id="Trazado_1002" data-name="Trazado 1002" class="cls-2" d="M768.85859,731.07215h-8.19721a1.17533,1.17533,0,0,1-1.17534-1.17534v-.45917a1.17534,1.17534,0,0,1,1.17534-1.17534h8.19721a1.17534,1.17534,0,0,1,1.17534,1.17534v.45917A1.17534,1.17534,0,0,1,768.85859,731.07215Z" transform="translate(-608.74782 -662.57169)"/>
    <path id="Trazado_1003" data-name="Trazado 1003" class="cls-2" d="M768.85859,736.876h-8.19721a1.17533,1.17533,0,0,1-1.17534-1.17534v-.45956a1.17534,1.17534,0,0,1,1.17534-1.17534h8.19721a1.17534,1.17534,0,0,1,1.17534,1.17534v.45917a1.17534,1.17534,0,0,1-1.17534,1.17534Z" transform="translate(-608.74782 -662.57169)"/>
    <path id="Trazado_1004" data-name="Trazado 1004" class="cls-2" d="M716.48579,695.5796h-8.19762a1.17534,1.17534,0,0,1-1.17534-1.17534v-.45917a1.17534,1.17534,0,0,1,1.17534-1.17534h8.19762a1.17534,1.17534,0,0,1,1.17534,1.17534v.45917A1.17534,1.17534,0,0,1,716.48579,695.5796Z" transform="translate(-608.74782 -662.57169)"/>
    <path id="Trazado_1005" data-name="Trazado 1005" class="cls-2" d="M744.76331,671.14464H736.5661a1.17535,1.17535,0,0,1-1.17535-1.17534v-.45917a1.17535,1.17535,0,0,1,1.17535-1.17534h8.19721a1.17534,1.17534,0,0,1,1.17534,1.17534v.45917A1.17534,1.17534,0,0,1,744.76331,671.14464Z" transform="translate(-608.74782 -662.57169)"/>
    <path id="Trazado_1006" data-name="Trazado 1006" class="cls-2" d="M782.16814,691.92232h-8.19759a1.17534,1.17534,0,0,1-1.17534-1.17534v-.45917a1.17534,1.17534,0,0,1,1.17534-1.17534h8.19762a1.17534,1.17534,0,0,1,1.17534,1.17534v.45917a1.17534,1.17534,0,0,1-1.17534,1.17534Z" transform="translate(-608.74782 -662.57169)"/>
  </g>
</svg>
