<svg id="Capa_2" data-name="Capa 2" xmlns="http://www.w3.org/2000/svg" width="447.42625" height="281.37686" viewBox="0 0 447.42625 281.37686">
  <defs>
    <style>
      .cls-1 {
        fill: #a0616a;
      }

      .cls-2 {
        fill: #575a89;
      }

      .cls-3 {
        opacity: 0.1;
        isolation: isolate;
      }

      .cls-4 {
        fill: #3f3d56;
      }

      .cls-5 {
        fill: #2f2e41;
      }

      .cls-6 {
        fill: #d0cde1;
      }

      .cls-7 {
        fill: #6c63ff;
      }
    </style>
  </defs>
  <g id="Grupo_1342" data-name="Grupo 1342">
    <path id="Trazado_920" data-name="Trazado 920" class="cls-1" d="M790.25832,620.4118s36.685,1.76781,38.89545,14.58346-42.87282,1.32608-42.87282,1.32608Z" transform="translate(-622.83352 -502.65029)"/>
    <path id="Trazado_921" data-name="Trazado 921" class="cls-2" d="M732.35693,579.74855s6.18948,1.76782,11.04952,12.379,14.58346,20.3312,14.58346,20.3312l39.34141,7.51387-6.62954,19.88946-37.56935-4.86172-23.42594-13.25993Z" transform="translate(-622.83352 -502.65029)"/>
    <path id="Trazado_922" data-name="Trazado 922" class="cls-3" d="M732.35693,579.74855s6.18948,1.76782,11.04952,12.379,14.58346,20.3312,14.58346,20.3312l39.34141,7.51387-6.62954,19.88946-37.56935-4.86172-23.42594-13.25993Z" transform="translate(-622.83352 -502.65029)"/>
    <rect id="Rectángulo_671" data-name="Rectángulo 671" class="cls-4" x="364.33112" y="41.0763" width="46.4093" height="0.88433"/>
    <rect id="Rectángulo_672" data-name="Rectángulo 672" class="cls-4" x="180.90519" y="41.0763" width="147.18265" height="0.88433"/>
    <rect id="Rectángulo_673" data-name="Rectángulo 673" class="cls-4" x="13.39048" y="147.59571" width="348.73106" height="133.03925"/>
    <path id="Trazado_923" data-name="Trazado 923" class="cls-1" d="M674.0138,559.41737l3.97823,25.19376,27.40332,1.32607-3.0939-37.12761Z" transform="translate(-622.83352 -502.65029)"/>
    <path id="Trazado_924" data-name="Trazado 924" class="cls-5" d="M645.064,727.59427,643.73787,783.287h41.54589l6.18949-22.09987L696.335,783.287h43.31541s.88433-63.64658-3.97823-64.08832S645.064,727.59427,645.064,727.59427Z" transform="translate(-622.83352 -502.65029)"/>
    <circle id="Elipse_117" data-name="Elipse 117" class="cls-1" cx="60.02023" cy="39.52978" r="23.86769"/>
    <path id="Trazado_925" data-name="Trazado 925" class="cls-2" d="M642.63309,730.0251l12.379-60.99443-16.35382-80.88729,37.66431-14.13324,18.46927-2.22057,9.28509-1.73307,6.627,1.73307s26.519,6.63292,27.84081,11.49123-5.3043,44.64148-5.3043,44.64148l-6.1895,32.70762,13.70167,58.78489s-57.01452,19.45111-97.236,10.61031Z" transform="translate(-622.83352 -502.65029)"/>
    <path id="Trazado_926" data-name="Trazado 926" class="cls-3" d="M659.20735,610.46709v16.35382l52.1511.07124-49.49979-5.37468Z" transform="translate(-622.83352 -502.65029)"/>
    <path id="Trazado_927" data-name="Trazado 927" class="cls-3" d="M654.728,655.63254l65.47377-9.36394L654.728,664.81248Z" transform="translate(-622.83352 -502.65029)"/>
    <path id="Trazado_928" data-name="Trazado 928" class="cls-3" d="M758.65548,612.6775l-7.01955,25.293,11.88128-24.45865Z" transform="translate(-622.83352 -502.65029)"/>
    <path id="Trazado_929" data-name="Trazado 929" class="cls-5" d="M702.49562,518.24285l4.3886-1.7568s-9.17655-10.10328-21.94471-9.22489l3.59075-3.95364s-8.77805-3.51444-16.75825,5.71044c-4.19528,4.849-9.04852,10.54927-12.07459,16.97023h-4.69977l1.962,4.31992-6.8678,4.31993,7.04754-.7758a24.13812,24.13812,0,0,0-.19162,7.16454,9.26987,9.26987,0,0,0,3.3915,6.064h0s5.44336-11.26657,5.44336-13.02422v4.39284s4.3886-3.95364,4.3886-6.58884l2.3944,3.07525,1.1972-4.83289,14.76321,4.83289-2.3944-3.95364,9.17655,1.3176-3.59075-4.83289s10.37375,5.71044,10.77309,10.54249a23.21127,23.21127,0,0,0,3.43559,9.41142S714.06742,524.83168,702.49562,518.24285Z" transform="translate(-622.83352 -502.65029)"/>
    <rect id="Rectángulo_674" data-name="Rectángulo 674" class="cls-6" x="103.11433" y="103.83857" width="169.72426" height="177.23813"/>
    <rect id="Rectángulo_675" data-name="Rectángulo 675" class="cls-7" x="120.79423" y="142.734" width="125.52538" height="17.67989"/>
    <rect id="Rectángulo_676" data-name="Rectángulo 676" class="cls-7" x="142.3735" y="189.58504" width="82.20744" height="8.83995"/>
    <rect id="Rectángulo_677" data-name="Rectángulo 677" class="cls-7" x="142.53205" y="205.05452" width="82.20744" height="8.83995"/>
    <rect id="Rectángulo_678" data-name="Rectángulo 678" class="cls-7" x="142.6906" y="220.52485" width="41.10414" height="8.83995"/>
    <rect id="Rectángulo_679" data-name="Rectángulo 679" class="cls-7" x="229.52406" y="265.16548" width="19.00597" height="8.83995"/>
    <path id="Trazado_930" data-name="Trazado 930" class="cls-1" d="M713.79356,628.81s38.45283-5.74606,44.19889,2.65215-40.66326,12.82072-40.66326,12.82072Z" transform="translate(-622.83352 -502.65029)"/>
    <path id="Trazado_931" data-name="Trazado 931" class="cls-2" d="M643.07568,587.705h-2.76916a4.51494,4.51494,0,0,0-3.0744,1.19636c-2.62841,2.441-8.18792,8.74073-10.51365,20.01917-3.0939,15.02774-8.394,44.19889,3.53564,46.40929s90.16644-8.394,90.16644-8.394l-5.74265-20.33713-56.57447.44174s.88433-9.72342-.88433-15.91207S643.07568,587.705,643.07568,587.705Z" transform="translate(-622.83352 -502.65029)"/>
    <circle id="Elipse_118" data-name="Elipse 118" class="cls-6" cx="180.90519" cy="41.51804" r="18.12164"/>
    <circle id="Elipse_119" data-name="Elipse 119" class="cls-4" cx="263.55691" cy="41.51804" r="18.12164"/>
    <path id="Trazado_932" data-name="Trazado 932" class="cls-4" d="M969.043,562.73257a18.56338,18.56338,0,1,1,18.56336-18.56339v0A18.56337,18.56337,0,0,1,969.043,562.73257Zm0-36.24327a17.67989,17.67989,0,1,0,17.67988,17.67989h0A17.67989,17.67989,0,0,0,969.043,526.4893Z" transform="translate(-622.83352 -502.65029)"/>
    <path id="Trazado_933" data-name="Trazado 933" class="cls-4" d="M1051.69635,562.73257a18.56338,18.56338,0,1,1,18.56341-18.56338,18.56345,18.56345,0,0,1-18.56341,18.56338Zm0-36.24327a17.67989,17.67989,0,1,0,17.67994,17.67989,17.67987,17.67987,0,0,0-17.67994-17.67989Z" transform="translate(-622.83352 -502.65029)"/>
    <path id="Trazado_934" data-name="Trazado 934" class="cls-4" d="M801.24,551.87806l-7.853-10.47041,2.82851-2.11969,5.40691,7.20694L826.477,521.63774l2.49954,2.49954Z" transform="translate(-622.83352 -502.65029)"/>
    <rect id="Rectángulo_680" data-name="Rectángulo 680" class="cls-4" x="7.29172" y="280.14744" width="360.92775" height="1.22942"/>
  </g>
</svg>
