<svg xmlns="http://www.w3.org/2000/svg" xmlns:xlink="http://www.w3.org/1999/xlink" viewBox="0 0 707.16 505.82"><defs><style>.cls-1,.cls-19,.cls-23,.cls-24,.cls-25,.cls-26,.cls-27,.cls-28{fill:none;}.cls-2{clip-path:url(#clip-path);}.cls-3{fill:#177d74;}.cls-4{fill:#1b9585;}.cls-5{fill:#2896ff;}.cls-6{fill:#c9e5f9;}.cls-7{fill:#322960;}.cls-8{opacity:0.2;}.cls-9{fill:#3382c5;}.cls-10{fill:#55c4f1;}.cls-11,.cls-12{opacity:0.29;}.cls-11{fill:url(#linear-gradient);}.cls-12{fill:url(#linear-gradient-2);}.cls-13{fill:#97caee;}.cls-14{fill:#00b7ed;}.cls-15{fill:#fff;}.cls-16{fill:#f7e3d4;}.cls-17{fill:#e69630;}.cls-18{fill:#e0c7b7;}.cls-19{stroke:#e0c7b7;stroke-width:4px;}.cls-19,.cls-23,.cls-25,.cls-26,.cls-27,.cls-28{stroke-miterlimit:10;}.cls-20{fill:#fac855;}.cls-21{fill:#f0836c;}.cls-22{fill:#eb5a5c;}.cls-23{stroke:#fff;}.cls-24{stroke:#1b9585;stroke-linejoin:round;}.cls-24,.cls-25{stroke-linecap:round;}.cls-25,.cls-26{stroke:#e69630;}.cls-27{stroke:#2896ff;stroke-width:1.6px;}.cls-28{stroke:#00b7ed;stroke-width:3px;}</style><clipPath id="clip-path" transform="translate(81.51 21.02)"><rect class="cls-1" width="244.04" height="447.92" rx="35.24"/></clipPath><linearGradient id="linear-gradient" x1="322.72" y1="178.66" x2="473.73" y2="178.66" gradientUnits="userSpaceOnUse"><stop offset="0" stop-color="#00b7ed" stop-opacity="0"/><stop offset="1" stop-color="#00b7ed"/></linearGradient><linearGradient id="linear-gradient-2" x1="270.22" y1="248.99" x2="341.94" y2="89.17" xlink:href="#linear-gradient"/></defs><g id="Capa_2" data-name="Capa 2"><g id="Capa_1-2" data-name="Capa 1"><g class="cls-2"><path class="cls-3" d="M480.17,140.59l.36,13c1.16.76,2.36,1.49,3.63,2.18,4.95,2.67,11.34,4.05,18.39,4.55h0a44.07,44.07,0,0,1-1.82-28.43h0c.59-2.16,2.66-3,4.14-1.7l1.35,1.19h0c3.63,5.69-.35,16.31,3.16,23.16h0c1.91,3.72,5.25,5.91,8.76,5.66,5.75-.41,11.57-1.16,17.12-2.07l-3.56-12.87c-.94-3.4,1.73-6.62,4.38-5.27h0a3.86,3.86,0,0,1,1.86,2.38h0c2.6,8.55,9.68,13.5,16.81,11.78,8.91-2.14,14.85-4,14.85-4s-.38-4.46-1.27-11.49-5.77-11.93-11.33-11.6l-5.36.33c-1.9.11-3.36-2.09-2.94-4.43h0c.33-1.82,1.69-3,3.16-2.81l14.08,2.18c-1.25-7.49-2.87-15.81-4.9-24.06,0,0-20.52,4-21.14-2.62-.55-6.06,18.29-7.87,18.29-7.87a127.4,127.4,0,0,0-7.3-19.21s-15.1,1.19-20.19,8.13h0a2,2,0,0,1-2.72.93h0a3.21,3.21,0,0,1-1.27-3.74h0a18.62,18.62,0,0,1,5-8.2l10.86-10c-7-8.59-14.48-13.6-21.73-16l-4.27,3.93C512,47.81,510,55.11,511.46,62h0c.95,4.45-2.34,8.49-5.84,7.18h0c-2.52-.94-3.93-4.34-3.1-7.5h0a56.2,56.2,0,0,1,11.34-22.27l1-1.14a33.57,33.57,0,0,0-25,6.3s5,34.73-2.09,35.79c-5.24.78-6.44-25.4-6.44-25.4-7.92,15.73-7.5,39-7.5,39-17.93,7-19.21,36.9.67,55l1.57-12.3a15.92,15.92,0,0,1,6.16-11.08l3.1-2.17L483.74,126A27.62,27.62,0,0,0,480.17,140.59Zm58.18-29.1c-.29-2.13,2-4.42,5.11-5.11s5.88.46,6.18,2.58-2,4.42-5.1,5.11S538.65,113.61,538.35,111.49ZM516,130.09c.75-2.29,2.25-3.68,3.36-3.1s1.4,2.9.65,5.19-2.25,3.67-3.36,3.1S515.24,132.38,516,130.09Zm-31-14.32c-1.79,1-3.73.51-4.33-1.16a4.31,4.31,0,0,1,2.14-4.89c1.78-1,3.72-.51,4.32,1.16A4.33,4.33,0,0,1,485,115.77Z" transform="translate(81.51 21.02)"/><path class="cls-4" d="M531.65,119.74c-26.09-32-88.87-47.91-86.7,45.7,1,32.92,9.7,67,19.83,97.17l-4.5,2.49C422.79,159.93,438.52,74.26,497.6,92.3,511.74,96.72,524.65,108.51,531.65,119.74Z" transform="translate(81.51 21.02)"/><rect class="cls-5" width="28.1" height="59.65"/><rect class="cls-6" x="28.33" width="28.1" height="59.65"/><rect class="cls-5" x="56.66" width="28.1" height="59.65"/><rect class="cls-6" x="84.99" width="28.1" height="59.65"/><rect class="cls-5" x="113.31" width="28.1" height="59.65"/><rect class="cls-6" x="141.64" width="28.1" height="59.65"/><rect class="cls-5" x="169.97" width="28.1" height="59.65"/><rect class="cls-6" x="198.3" width="28.1" height="59.65"/><rect class="cls-5" x="226.63" width="28.1" height="59.65"/><rect class="cls-6" x="254.96" width="28.1" height="59.65"/><rect class="cls-5" x="283.28" width="28.1" height="59.65"/><rect class="cls-6" x="311.61" width="28.1" height="59.65"/><rect class="cls-5" x="339.94" width="28.1" height="59.65"/><rect class="cls-6" x="368.27" width="28.1" height="59.65"/><rect class="cls-5" x="396.6" width="28.1" height="59.65"/><rect class="cls-6" x="424.93" width="28.1" height="59.65"/><rect class="cls-5" x="453.25" width="28.1" height="59.65"/><rect class="cls-6" x="481.58" width="28.1" height="59.65"/><rect class="cls-5" x="509.91" width="28.1" height="59.65"/><rect class="cls-7" x="205.71" y="75.01" width="289.93" height="225.15"/><g class="cls-8"><ellipse class="cls-9" cx="460.68" cy="252.68" rx="34.84" ry="60.21"/><path class="cls-5" d="M356.92,184.83a5.82,5.82,0,0,1,0,6.88,3.33,3.33,0,0,1-5.46,0c-1.5-1.9-4.48-8.73-3-10.63S355.41,182.93,356.92,184.83Z" transform="translate(81.51 21.02)"/><path class="cls-5" d="M356.92,277.36a5.82,5.82,0,0,0,0-6.88,3.33,3.33,0,0,0-5.46,0c-1.5,1.9-4.48,8.74-3,10.64S355.41,279.26,356.92,277.36Z" transform="translate(81.51 21.02)"/><path class="cls-5" d="M401.11,184.83a5.82,5.82,0,0,0,0,6.88,3.33,3.33,0,0,0,5.46,0c1.5-1.9,4.48-8.73,3-10.63S402.62,182.93,401.11,184.83Z" transform="translate(81.51 21.02)"/><path class="cls-10" d="M401.11,277.36a5.82,5.82,0,0,1,0-6.88,3.33,3.33,0,0,1,5.46,0c1.5,1.9,4.48,8.74,3,10.64S402.62,279.26,401.11,277.36Z" transform="translate(81.51 21.02)"/><rect class="cls-5" x="446.38" y="242.27" width="28.12" height="20.94" rx="1.67"/><rect class="cls-9" x="224.64" y="246.34" width="10.55" height="49.93"/><rect class="cls-9" x="303.35" y="246.34" width="10.55" height="49.93"/><rect class="cls-9" x="227.03" y="279.55" width="81.6" height="16.54"/><rect class="cls-9" x="227.03" y="258.93" width="81.6" height="16.54"/><path class="cls-9" d="M170.87,222.42c-2-.68-4.12.14-5.75,2-1.63-1.82-3.73-2.64-5.75-2-3.5,1.17-5.44,6.36-4.34,11.59s4.83,8.51,8.33,7.33a5.16,5.16,0,0,0,1.76-1,5.16,5.16,0,0,0,1.76,1c3.5,1.18,7.23-2.11,8.33-7.33S174.37,223.59,170.87,222.42Z" transform="translate(81.51 21.02)"/><path class="cls-9" d="M195.83,222.42c-2-.68-4.12.14-5.75,2-1.63-1.82-3.72-2.64-5.75-2-3.5,1.17-5.44,6.36-4.34,11.59s4.83,8.51,8.33,7.33a5.16,5.16,0,0,0,1.76-1,5.16,5.16,0,0,0,1.76,1c3.5,1.18,7.23-2.11,8.33-7.33S199.33,223.59,195.83,222.42Z" transform="translate(81.51 21.02)"/><path class="cls-9" d="M219.2,222.42c-2-.68-4.12.14-5.75,2-1.62-1.82-3.72-2.64-5.75-2-3.5,1.17-5.44,6.36-4.34,11.59s4.83,8.51,8.33,7.33a5.07,5.07,0,0,0,1.76-1,5.16,5.16,0,0,0,1.76,1c3.5,1.18,7.23-2.11,8.34-7.33S222.7,223.59,219.2,222.42Z" transform="translate(81.51 21.02)"/><path class="cls-9" d="M183.29,211.05a5.14,5.14,0,0,0-5.95-.34c-1.11-2.36-2.91-4-5-4.09-3.61-.23-6.72,4-6.93,9.37s2.54,10,6.16,10.19a4.33,4.33,0,0,0,1.92-.3,6.38,6.38,0,0,0,1.43,1.66c3.05,2.47,7.39.78,9.71-3.78S186.34,213.52,183.29,211.05Z" transform="translate(81.51 21.02)"/><path class="cls-9" d="M205.14,205.84c-2.08-.36-4.08.79-5.52,2.85a5.18,5.18,0,0,0-5.9-1c-3.35,1.71-4.77,7.17-3.16,12.18s5.64,7.69,9,6a5.72,5.72,0,0,0,1.65-1.3,4.87,4.87,0,0,0,1.85.74c3.59.62,7-3.23,7.54-8.59S208.72,206.45,205.14,205.84Z" transform="translate(81.51 21.02)"/><path class="cls-9" d="M196.74,199s2.77,3.05,2.88,9.66" transform="translate(81.51 21.02)"/><path class="cls-9" d="M179.68,205.77s-3.72,6.45-4,10.28" transform="translate(81.51 21.02)"/><path class="cls-9" d="M214.94,217.64s-2.29,7.81-1.49,11" transform="translate(81.51 21.02)"/><path class="cls-9" d="M162.75,216.05s3.23,7.2,2.63,12.53" transform="translate(81.51 21.02)"/><path class="cls-9" d="M188.39,216.05a32.8,32.8,0,0,1,1.69,11.55" transform="translate(81.51 21.02)"/><rect class="cls-9" x="327.35" y="246.69" width="10.55" height="49.93"/><rect class="cls-9" x="406.06" y="246.69" width="10.55" height="49.93"/><rect class="cls-9" x="329.73" y="279.9" width="81.6" height="16.54"/><rect class="cls-9" x="329.73" y="259.29" width="81.6" height="16.54"/><path class="cls-9" d="M253.11,217.55s2.95,25.75,21.22,25.71c11.14,0,14.93-7.16,16.23-11.57.45-1.53-.85-3-2-2.22-4.08,2.66-12.18,6.6-19.58,2.32-5.93-3.43-13.6-14.24-13.6-14.24Z" transform="translate(81.51 21.02)"/><path class="cls-9" d="M254.83,219s6.76,18.74,20.63,13.61c8.46-3.12,10.09-9.6,10.3-13.32.08-1.28-1.16-2-1.9-1.12-2.64,3.15-8.1,8.41-14.48,7.22-5.1-.95-12.82-7-12.82-7Z" transform="translate(81.51 21.02)"/><path class="cls-9" d="M253.11,218.14s11.52,14.58,23.1,3.66c7.06-6.65,6.79-13.45,6-17a1.07,1.07,0,0,0-2.1-.21c-1.6,4.11-5.26,11.44-11.56,13.14-5,1.36-14-.93-14-.93Z" transform="translate(81.51 21.02)"/><path class="cls-9" d="M287.6,215.91s-.47,20.57,13.77,23.68c8.69,1.9,12.41-3,13.9-6.23.52-1.11-.34-2.46-1.32-2.07-3.47,1.37-10.2,3.05-15.51-1.56-4.25-3.69-9.07-13.43-9.07-13.43Z" transform="translate(81.51 21.02)"/><path class="cls-9" d="M296,216.81s6.35,19,20.33,14.31c8.52-2.84,10.29-9.26,10.58-13,.11-1.29-1.12-2.06-1.88-1.2-2.7,3.07-8.27,8.13-14.62,6.73-5.08-1.12-12.67-7.46-12.67-7.46Z" transform="translate(81.51 21.02)"/></g><polygon class="cls-11" points="473.73 55.99 407.63 55.99 322.71 301.33 388.81 301.33 473.73 55.99"/><polygon class="cls-12" points="396.53 57.47 290.62 57.47 213.67 302.81 311.61 302.81 396.53 57.47"/><path class="cls-6" d="M414,50.35V280.66H126.76V50.35H414m8-8H118.76V288.66H422V42.35Z" transform="translate(81.51 21.02)"/><rect class="cls-5" x="33.66" y="100.14" width="162.25" height="353.05"/><rect class="cls-7" x="141.22" y="85.69" width="48.25" height="303.48"/><path class="cls-7" d="M60.92,351.79a3.1,3.1,0,0,1-1.25-.28L-52.22,441.66l163.93-8V351.79Z" transform="translate(81.51 21.02)"/><path class="cls-6" d="M110.76,53.69v380h-155v-380h155m8-8h-171v396h171v-396Z" transform="translate(81.51 21.02)"/><path class="cls-7" d="M421.86,34.73H-81.51V76.5c0,9.79,6.29,17.73,14.05,17.73h0c7.76,0,14-7.94,14-17.73V62.36h.23V76.5c0,9.79,6.29,17.73,14,17.73h0c7.76,0,14.05-7.94,14.05-17.73V62.36h.22V76.5c0,9.79,6.3,17.73,14.06,17.73h0C-3,94.23,3.25,86.29,3.25,76.5V62.36h.22V76.5c0,9.79,6.29,17.73,14.05,17.73S31.58,86.29,31.58,76.5V62.36h.22V76.5c0,9.79,6.29,17.73,14.05,17.73s14-7.94,14-17.73V62.36h.23V76.5c0,9.79,6.29,17.73,14.05,17.73s14-7.94,14-17.73V62.36h.23V76.5c0,9.79,6.29,17.73,14.05,17.73s14-7.94,14-17.73V62.36h.23V76.5c0,9.79,6.29,17.73,14,17.73s14-7.94,14-17.73V62.36h.22V76.5c0,9.79,6.3,17.73,14.06,17.73s14.05-7.94,14.05-17.73V62.36h.22V76.5c0,9.79,6.29,17.73,14.05,17.73s14.06-7.94,14.06-17.73V62.36h.22V76.5c0,9.79,6.29,17.73,14,17.73s14.05-7.94,14.05-17.73V62.36h.23V76.5c0,9.79,6.29,17.73,14.05,17.73s14-7.94,14-17.73V62.36h.23V76.5c0,9.79,6.29,17.73,14.05,17.73h0c7.76,0,14-7.94,14-17.73V62.36h.23V76.5c0,9.79,6.29,17.73,14.05,17.73s14.05-7.94,14.05-17.73V62.36h.22V76.5c0,9.79,6.3,17.73,14.06,17.73s14.05-16.87,14.05-17.73V62.36h.22V76.5c0,9.79,6.29,17.73,14,17.73h0c7.77,0,14.06-7.94,14.06-17.73V62.36h.22V76.5c0,9.79,6.29,17.73,14.05,17.73s14.06-7.94,14.06-17.73V62.36h.22V76.5c0,9.79,6.29,17.73,14.05,17.73a12,12,0,0,0,7.74-2.94Z" transform="translate(81.51 21.02)"/><rect class="cls-13" y="47.38" width="546.16" height="27.63"/><path class="cls-14" d="M-67.46,85.86h0c-7.76,0-14.05-7.94-14.05-17.73V45.69h28.1V68.13C-53.41,77.92-59.7,85.86-67.46,85.86Z" transform="translate(81.51 21.02)"/><path class="cls-15" d="M-39.13,85.86h0c-7.76,0-14-7.94-14-17.73V45.69h28.1V68.13C-25.08,77.92-31.37,85.86-39.13,85.86Z" transform="translate(81.51 21.02)"/><path class="cls-14" d="M-10.8,85.86h0c-7.76,0-14.06-7.94-14.06-17.73V45.69H3.25V68.13C3.25,77.92-3,85.86-10.8,85.86Z" transform="translate(81.51 21.02)"/><path class="cls-15" d="M17.52,85.86h0c-7.76,0-14-7.94-14-17.73V45.69H31.58V68.13C31.58,77.92,25.28,85.86,17.52,85.86Z" transform="translate(81.51 21.02)"/><path class="cls-14" d="M45.85,85.86h0c-7.76,0-14-7.94-14-17.73V45.69H59.9V68.13C59.9,77.92,53.61,85.86,45.85,85.86Z" transform="translate(81.51 21.02)"/><path class="cls-15" d="M74.18,85.86h0c-7.76,0-14.05-7.94-14.05-17.73V45.69h28.1V68.13C88.23,77.92,81.94,85.86,74.18,85.86Z" transform="translate(81.51 21.02)"/><path class="cls-14" d="M170,66.72h28.1a0,0,0,0,1,0,0V96.29a10.59,10.59,0,0,1-10.59,10.59h-6.92A10.59,10.59,0,0,1,170,96.29V66.72A0,0,0,0,1,170,66.72Z"/><path class="cls-15" d="M198.3,66.72h28.1a0,0,0,0,1,0,0V96.29a10.59,10.59,0,0,1-10.59,10.59h-6.92A10.59,10.59,0,0,1,198.3,96.29V66.72a0,0,0,0,1,0,0Z"/><path class="cls-14" d="M226.63,66.72h28.1a0,0,0,0,1,0,0V96.29a10.59,10.59,0,0,1-10.59,10.59h-6.92a10.59,10.59,0,0,1-10.59-10.59V66.72A0,0,0,0,1,226.63,66.72Z"/><path class="cls-15" d="M187.49,85.86h0c-7.76,0-14.05-7.94-14.05-17.73V45.69h28.11V68.13C201.55,77.92,195.26,85.86,187.49,85.86Z" transform="translate(81.51 21.02)"/><path class="cls-14" d="M215.82,85.86h0c-7.76,0-14-7.94-14-17.73V45.69h28.1V68.13C229.87,77.92,223.58,85.86,215.82,85.86Z" transform="translate(81.51 21.02)"/><path class="cls-15" d="M244.15,85.86h0c-7.76,0-14.05-7.94-14.05-17.73V45.69h28.1V68.13C258.2,77.92,251.91,85.86,244.15,85.86Z" transform="translate(81.51 21.02)"/><path class="cls-14" d="M272.48,85.86h0c-7.76,0-14.05-7.94-14.05-17.73V45.69h28.1V68.13C286.53,77.92,280.24,85.86,272.48,85.86Z" transform="translate(81.51 21.02)"/><path class="cls-15" d="M300.81,85.86h0c-7.76,0-14.05-7.94-14.05-17.73V45.69h28.1V68.13C314.86,77.92,308.57,85.86,300.81,85.86Z" transform="translate(81.51 21.02)"/><path class="cls-14" d="M329.14,85.86h0c-7.76,0-14.06-7.94-14.06-17.73V45.69h28.11V68.13C343.19,77.92,336.9,85.86,329.14,85.86Z" transform="translate(81.51 21.02)"/><path class="cls-15" d="M357.46,85.86h0c-7.76,0-14-7.94-14-17.73V45.69h28.11V68.13C371.52,77.92,365.23,85.86,357.46,85.86Z" transform="translate(81.51 21.02)"/><path class="cls-14" d="M385.79,85.86h0c-7.76,0-14.05-7.94-14.05-17.73V45.69h28.11V68.13C399.85,77.92,393.55,85.86,385.79,85.86Z" transform="translate(81.51 21.02)"/><path class="cls-15" d="M414.12,85.86h0c-7.76,0-14.05-7.94-14.05-17.73V45.69h28.1V68.13C428.17,77.92,421.88,85.86,414.12,85.86Z" transform="translate(81.51 21.02)"/><path class="cls-14" d="M442.45,85.86h0c-7.76,0-14.05-7.94-14.05-17.73V45.69h28.1V68.13C456.5,77.92,450.21,85.86,442.45,85.86Z" transform="translate(81.51 21.02)"/><rect class="cls-14" x="200.27" y="309.68" width="303.25" height="153"/><rect class="cls-9" x="21.42" y="458.94" width="487.07" height="15"/><polygon class="cls-14" points="182.05 197.42 149.11 214.16 149.11 141.24 182.05 124.5 182.05 197.42"/><polygon class="cls-14" points="138.42 211.94 105.48 228.68 105.48 155.76 138.42 139.02 138.42 211.94"/><rect class="cls-5" x="203.12" y="273.14" width="3.48" height="112.52"/><rect class="cls-5" x="217.84" y="273.14" width="3.48" height="112.52"/><rect class="cls-5" x="231.22" y="279.64" width="3.48" height="106.02"/><rect class="cls-5" x="188.4" y="273.14" width="3.48" height="112.52"/><rect class="cls-5" x="175.02" y="279.64" width="3.48" height="106.02"/><path class="cls-9" d="M167.08,368.11H79.62V290.58a43.73,43.73,0,0,1,87.46,0Zm-80.51-6.95h73.55V290.58a36.78,36.78,0,1,0-73.55,0Z" transform="translate(81.51 21.02)"/><path class="cls-5" d="M86.58,290.46a36.79,36.79,0,0,1,31.49-36.23v-7a43.8,43.8,0,0,0-38.45,43.28Z" transform="translate(81.51 21.02)"/><path class="cls-16" d="M167.85,370.93h70.06a10,10,0,0,1,10,10V391a0,0,0,0,1,0,0h-90a0,0,0,0,1,0,0V380.89A10,10,0,0,1,167.85,370.93Z"/><rect class="cls-5" x="164.61" y="451.16" width="79.97" height="12.17"/><polygon class="cls-17" points="159.41 499.69 186.43 396.3 169.54 392.7 151.77 499.69 159.41 499.69"/><polygon class="cls-17" points="256.83 499.69 238.64 392.79 222.62 396.21 249.23 499.69 256.83 499.69"/><polygon class="cls-7" points="182.36 411.88 186.43 396.3 169.54 392.7 167.24 406.54 182.36 411.88"/><polygon class="cls-7" points="242.91 417.87 238.64 392.79 222.62 396.21 225.59 407.75 242.91 417.87"/><rect class="cls-5" x="152.14" y="388.41" width="105.51" height="12.17"/><rect class="cls-14" x="170.98" y="388.41" width="30.43" height="12.17"/><path class="cls-9" d="M397.28,266.44,372.64,373.6l-6.82-1.39,14.33-108.86a8.72,8.72,0,0,1,9.89-7.49h0A8.72,8.72,0,0,1,397.28,266.44Z" transform="translate(81.51 21.02)"/><path class="cls-16" d="M282.54,349.34h90a0,0,0,0,1,0,0V359.4a10,10,0,0,1-10,10H292.5a10,10,0,0,1-10-10V349.34A0,0,0,0,1,282.54,349.34Z" transform="translate(736.58 739.73) rotate(180)"/><rect class="cls-5" x="367.35" y="450.59" width="79.97" height="12.17"/><polygon class="cls-17" points="460.25 499.69 442.39 392.13 425.49 395.73 452.66 499.69 460.25 499.69"/><polygon class="cls-17" points="362.55 499.69 389.3 395.63 373.28 392.22 355 499.69 362.55 499.69"/><polygon class="cls-7" points="445.1 408.45 442.39 392.13 425.49 395.73 428.1 405.7 445.1 408.45"/><polygon class="cls-7" points="383.68 417.49 389.3 395.63 373.28 392.22 371.03 405.44 383.68 417.49"/><rect class="cls-5" x="354.28" y="387.84" width="105.51" height="12.17"/><rect class="cls-14" x="368.55" y="387.84" width="30.04" height="12.17"/><rect class="cls-18" x="311.53" y="341.67" width="6.95" height="155.54"/><polygon class="cls-7" points="318.48 364.3 318.48 341.67 311.53 341.67 311.53 360.82 318.48 364.3"/><line class="cls-19" x1="290.55" y1="497.21" x2="339.46" y2="497.21"/><rect class="cls-7" x="239.73" y="344.32" width="149.58" height="9.6"/><path class="cls-16" d="M319.38,326.32H147.61A11.35,11.35,0,0,1,159,315H308a11.36,11.36,0,0,1,11.36,11.35Z" transform="translate(81.51 21.02)"/><rect class="cls-17" x="539.05" y="395.82" width="147.21" height="8.69"/><polygon class="cls-17" points="665.36 255.15 694.91 505.82 707.16 505.82 677.61 255.15 665.36 255.15"/><polygon class="cls-17" points="507.19 255.15 536.74 505.82 548.99 505.82 519.44 255.15 507.19 255.15"/><polygon class="cls-7" points="513.98 255.15 488.6 477.44 651.18 477.44 676.57 255.15 513.98 255.15"/><polygon class="cls-20" points="507.85 255.15 478.31 505.82 490.56 505.82 520.1 255.15 507.85 255.15"/><polygon class="cls-20" points="666.02 255.15 636.48 505.82 648.73 505.82 678.27 255.15 666.02 255.15"/><path class="cls-21" d="M92.44,201.41S104,223,103.25,227.64s-19,0-19,0L78.13,206.9C77.07,203.3,88.74,194.18,92.44,201.41Z" transform="translate(81.51 21.02)"/><path class="cls-21" d="M22.23,431.93s-3.47-52.63-6.15-98.8H44.66C39.23,375.37,31.45,426,31.6,427.48L33,435.83c.2,1.23.79,3.42,1.05,4.35a3.66,3.66,0,0,1,.13.93v.47a3.48,3.48,0,0,1-3.48,3.47H22.19a3.61,3.61,0,0,1-3.25-1.86,3.48,3.48,0,0,1,.08-3.37A23.25,23.25,0,0,0,22.23,431.93Z" transform="translate(81.51 21.02)"/><polygon class="cls-7" points="122.2 383.74 99.66 388.58 98.85 377.4 122.75 379.81 122.2 383.74"/><path class="cls-21" d="M94.7,435.89a17,17,0,0,1-.32-2.78h0C95.05,426.91,51,343.26,51,343.26l30-20.29c5.21,11.09,5.82,63.21,22.35,104.55a10.07,10.07,0,0,0,3.23,3.6l3.27,2.23a9.62,9.62,0,0,0-1.28,2.54Z" transform="translate(81.51 21.02)"/><path class="cls-7" d="M18.65,441.91c.72-1.24,2.67-8.14,2.67-8.14a1,1,0,0,1,1.65-.61,16.79,16.79,0,0,0,3.79,2.44c1.93.88,3.6-1.19,4.57-2.84a.69.69,0,0,1,1.27.23l1.27,7.26c.14.57.32,1.23.54,2a3.55,3.55,0,0,1,.14,1v.5c0,3.82-4.6,8.17-7.26,8-5.93-.33-8.21-5.3-8.73-6.33A3.65,3.65,0,0,1,18.65,441.91Z" transform="translate(81.51 21.02)"/><path class="cls-7" d="M93.11,430.23a11.9,11.9,0,0,0,10,4.86,16.14,16.14,0,0,0,5.77-1.35s14.23,4.88,17.94,8c0,0-.05,1.42,0,1.76a2.64,2.64,0,0,1-2.59,2.87s-9.79-.43-11.41-.68a24.27,24.27,0,0,1-4.92-1.42,13.83,13.83,0,0,0-4.41-.87l-5.76-.47a2.59,2.59,0,0,1-2.56-1.83C95.09,440.63,91.64,437.65,93.11,430.23Z" transform="translate(81.51 21.02)"/><polygon class="cls-7" points="168.78 379.81 145.51 389.27 140.63 379.81 168.78 379.81"/><path class="cls-21" d="M-8.5,212.06c5.37,2.4,38,20,36.15,24.2s-37.53-6.7-42.9-9.1-6.33-7-4.47-11.17S-13.87,209.66-8.5,212.06Z" transform="translate(81.51 21.02)"/><path class="cls-22" d="M12.26,166.8a23.21,23.21,0,0,1,10.08-21.61,12.88,12.88,0,0,0,5.26-7.08,17.8,17.8,0,0,1,17.26-12.68c9.88,0,17.88,7.7,17.88,17.19a16.57,16.57,0,0,1-2.8,9.22,12.25,12.25,0,0,0-1.67,8.78,23.27,23.27,0,0,1-11.91,24.22,12.41,12.41,0,0,0-6.06,7.93,18,18,0,1,1-31-16.11A12.91,12.91,0,0,0,12.26,166.8Z" transform="translate(81.51 21.02)"/><polygon class="cls-7" points="186.07 463.38 186.16 465.63 175.02 463.92 174.76 459.32 186.07 463.38"/><path class="cls-4" d="M93.11,428.48a11.9,11.9,0,0,0,10,4.86,16.14,16.14,0,0,0,5.77-1.35s17.6,7.16,17.94,9.74a2.65,2.65,0,0,1-2.59,2.88s-9.79-.44-11.41-.69a23.61,23.61,0,0,1-4.92-1.41,13.31,13.31,0,0,0-4.41-.87l-5.76-.47C96.62,441.17,89.59,440.6,93.11,428.48Z" transform="translate(81.51 21.02)"/><path class="cls-20" d="M20.58,242.4h0l-1.86-62A11.32,11.32,0,0,1,24.5,171l1-.34c12.24-6.93,43.65-1.11,43.65-1.11,3.56,1.88,6.77,5.81,6.62,9.84a363.6,363.6,0,0,0,2.94,50C84.66,277,95.8,343.24,93,357.91c-21.81,3.89-64.62,4.31-88,.56C4.94,358.47-.32,274.64,20.58,242.4Z" transform="translate(81.51 21.02)"/><path class="cls-20" d="M33.84,192.59c-3,4.17-17.66,20.59-28.61,26.76s-22.51-1.59-24.95-3.36c-4.87-3.53,24.66-27.25,32.88-34.73,7.63-6.94,13-12.89,17.86-9.36A14.7,14.7,0,0,1,33.84,192.59Z" transform="translate(81.51 21.02)"/><path class="cls-21" d="M41,236a18.62,18.62,0,0,1,1.47-6.2c.85-1.61,44.64-9.34,49.64-9.51,6.73-.23,11,4.12,11.09,7.84.12,6-3,8-9.77,8.27C88.67,236.57,41,236,41,236Z" transform="translate(81.51 21.02)"/><path class="cls-21" d="M46.39,176.67h0a5.77,5.77,0,0,0,5.71-6.58l-2-13.79H41.67l-1,14.19A5.76,5.76,0,0,0,46.39,176.67Z" transform="translate(81.51 21.02)"/><path class="cls-7" d="M50.66,160.06s-1.78,5.8-9.63,5.12l.64-8.88h8.45Z" transform="translate(81.51 21.02)"/><path class="cls-21" d="M55.5,142.07c-.14,2.3-.27,5.2,1.75,5.33s4.32-4,4.46-6.25-1.12-3-3.14-3.08S55.64,139.76,55.5,142.07Z" transform="translate(81.51 21.02)"/><path class="cls-21" d="M34.93,142.07c.15,2.3.28,5.2-1.75,5.33s-4.31-4-4.46-6.25,1.12-3,3.15-3.08S34.79,139.76,34.93,142.07Z" transform="translate(81.51 21.02)"/><path class="cls-21" d="M31.65,142.09c0,10.18,5.22,15.67,9.13,18.87,1.68,1.37,6.81,1.44,8.55.15,4-3,9.23-8.06,9.23-18.86,0-11.94-6.49-16.82-13.56-16.82S31.65,130.16,31.65,142.09Z" transform="translate(81.51 21.02)"/><path class="cls-22" d="M28.22,129.92a21.38,21.38,0,0,0,.62-4.22,6.45,6.45,0,0,1,1.89-4.14,6.54,6.54,0,0,1,5.3-1.89,9.24,9.24,0,0,0,4.58-.49A14.65,14.65,0,0,1,46.4,118a14.85,14.85,0,0,1,14.79,13.56,23.2,23.2,0,0,1,.42,6.19h0a3.79,3.79,0,0,0-3,3.72v3.89a.68.68,0,0,1-.68.67.67.67,0,0,1-.67-.64L57.1,143a6.07,6.07,0,0,0-4.48-5.53,10.62,10.62,0,0,1-4.26-2.27,18.13,18.13,0,0,1-3.12-3.66,4.46,4.46,0,0,0-5.55-1.65,12.22,12.22,0,0,0-5.47,5.28,11.37,11.37,0,0,0-1.5,5.7v4.83a.67.67,0,0,1-.67.68.68.68,0,0,1-.68-.68v-2.44a3.69,3.69,0,0,0-.8-2.27C28.6,138.45,27.07,133.87,28.22,129.92Z" transform="translate(81.51 21.02)"/><path class="cls-20" d="M70.84,253.78s3.28,5.6,17.33,12.14L83.65,288,63,269.17Z" transform="translate(81.51 21.02)"/><path class="cls-15" d="M6.33,294.44A19.23,19.23,0,0,0,19.1,306.8c8.67,2.63,15.76,7.43,20.49,13.91a19.75,19.75,0,0,0,18.59,8,20,20,0,0,0,17.16-17,19.76,19.76,0,0,0-4.09-15c-2.41-3.05-3.67-7.16-3.64-12a12.59,12.59,0,0,0-5.24-10.49,13.9,13.9,0,0,0-8.07-2.59,13.16,13.16,0,0,0-4.09.65c-5.91,2-11.75,1.64-16.44-.91a19.16,19.16,0,0,0-25.1,6.23c.2-1.12.4-2.22.61-3.32a20.72,20.72,0,0,1,25.24-4.27c4.3,2.33,9.7,2.62,15.2.8A15.3,15.3,0,0,1,63.28,273a14.12,14.12,0,0,1,5.88,11.83,17.28,17.28,0,0,0,3.32,10.94,21.31,21.31,0,0,1,4.4,16.12,21.43,21.43,0,0,1-38.54,9.73c-4.53-6.19-11.34-10.8-19.69-13.33A20.84,20.84,0,0,1,6,297.69C6.1,296.61,6.21,295.53,6.33,294.44Z" transform="translate(81.51 21.02)"/><path class="cls-15" d="M23.83,347.46a17.05,17.05,0,0,0-17-17,16.23,16.23,0,0,0-2.42.19c0-.52,0-1.05,0-1.58a19.09,19.09,0,0,1,2.4-.17,18.61,18.61,0,0,1,18.6,18.59,18.52,18.52,0,0,1-5.06,12.72l-2-.16A17,17,0,0,0,23.83,347.46Z" transform="translate(81.51 21.02)"/><path class="cls-15" d="M81.78,336a36.67,36.67,0,0,1,10.93,1.66c0,.56.09,1.11.13,1.65a35.16,35.16,0,0,0-11.06-1.76c-15.82,0-28.68,10.18-28.68,22.7,0,.25,0,.49,0,.74l-1.56,0c0-.26-.05-.51-.05-.77C51.54,346.9,65.11,336,81.78,336Z" transform="translate(81.51 21.02)"/><path class="cls-23" d="M28.71,242.54s4.76,10,23.93,15.84S74.32,279.5,74.32,279.5" transform="translate(81.51 21.02)"/><path class="cls-23" d="M21.79,326.56S38.36,334.1,33.84,353" transform="translate(81.51 21.02)"/><path class="cls-23" d="M44.18,336.8a40.79,40.79,0,0,1,0,16.15" transform="translate(81.51 21.02)"/><path class="cls-20" d="M62.93,188.9c3.76,4.66,14.53,24,19.35,32.75l.06,0a30.23,30.23,0,0,1,21-.48c1.52.51,2.7.73,3.1.4,1-.81.65-2.9-.61-5.76-4.56-10.35-20.85-30.73-25.92-37-6.46-8-13.62-12.21-18.31-8.43S56.46,180.88,62.93,188.9Z" transform="translate(81.51 21.02)"/><path class="cls-15" d="M30.71,226a20.73,20.73,0,0,0-8.25-12.47,17.74,17.74,0,0,1-2.83-2.71l-.08-2.66a16.51,16.51,0,0,0,3.84,4.13,22.27,22.27,0,0,1,8.85,13.42,28.46,28.46,0,0,0,31.29,22.76,28.07,28.07,0,0,0,16.56-8.13c.08.63.16,1.26.25,1.9A29.48,29.48,0,0,1,63.71,250a30.49,30.49,0,0,1-3.56.21A30,30,0,0,1,30.71,226Z" transform="translate(81.51 21.02)"/><path class="cls-15" d="M88.4,219.16c0,.23,0,.46,0,.69a15.24,15.24,0,0,1,1.56-.16v-.59a29.84,29.84,0,0,0-26.13-28.44,57.77,57.77,0,0,1-21.68-7,17.88,17.88,0,0,0-23.77,25.48l1.13-1.05A16.33,16.33,0,0,1,17,196.88,16.49,16.49,0,0,1,31,183a16.78,16.78,0,0,1,2.22-.15A16.27,16.27,0,0,1,41.37,185a59.06,59.06,0,0,0,22.27,7.16A28.29,28.29,0,0,1,88.4,219.16Z" transform="translate(81.51 21.02)"/><path class="cls-23" d="M48.88,179.91a79.27,79.27,0,0,0,21.73,5.49" transform="translate(81.51 21.02)"/><path class="cls-17" d="M103.54,211.38c-10.34,1.05-18.69,2.31-23.31,6.56l.79,1.43c4.65-4.59,14.51-5.63,23.33-6.51C104.09,212.37,103.83,211.89,103.54,211.38Z" transform="translate(81.51 21.02)"/><path class="cls-17" d="M-16.58,208.65c6.85,5.21,19.45,8.17,24.3,9.16.59-.4,1.19-.8,1.8-1.24-2.64-.49-17.63-3.5-25.07-9.09Z" transform="translate(81.51 21.02)"/><path class="cls-4" d="M18.65,439.72c.72-1.24,2.67-8.14,2.67-8.14A1,1,0,0,1,23,431a16.46,16.46,0,0,0,3.79,2.44c1.93.88,3.6-1.18,4.57-2.84a.69.69,0,0,1,1.27.23l1.27,7.26c.14.57.32,1.24.54,2.05a3.55,3.55,0,0,1,.14,1v.49c0,3.83-4.6,8.17-7.26,8-5.93-.33-8.21-5.3-8.73-6.34A3.65,3.65,0,0,1,18.65,439.72Z" transform="translate(81.51 21.02)"/><polyline class="cls-24" points="174.62 449.5 185.11 446.95 171.57 442.24 179.59 433.13 166.21 430.7 177.24 424.72"/><polyline class="cls-24" points="114.11 451.82 103.3 447.29 114.11 443.52 102.71 437.11 115.09 433.73 102.25 429.83"/><path class="cls-25" d="M20.58,242.4s41.91,10.44,59.51-2" transform="translate(81.51 21.02)"/><path class="cls-26" d="M35,264.17s-1.1-19.23-3.15-19.57-3.27,35.45-1.49,49.07" transform="translate(81.51 21.02)"/><path class="cls-21" d="M58.39,225.71l-10.62-4.26a1.94,1.94,0,0,0-1.6.06l-3.63,1.78a.83.83,0,0,0,0,1.5h0a5.2,5.2,0,0,0,3.37.26l1.72-.45,5,3.13Z" transform="translate(81.51 21.02)"/><line class="cls-27" x1="126.83" y1="212.33" x2="122.62" y2="238.62"/><path class="cls-6" d="M42.62,204.85a11.29,11.29,0,0,0-11.29,11.29H53.9A11.28,11.28,0,0,0,42.62,204.85Z" transform="translate(81.51 21.02)"/><path class="cls-14" d="M42.57,216.14,44.35,205a11,11,0,0,0-1.73-.15c-.24,0-.47,0-.7,0l-1.8,11.25Z" transform="translate(81.51 21.02)"/><path class="cls-3" d="M46.75,243.62H38.48a2.86,2.86,0,0,1-2.81-2.36l-4.4-25H54l-4.41,25A2.85,2.85,0,0,1,46.75,243.62Z" transform="translate(81.51 21.02)"/><line class="cls-28" x1="111.06" y1="237.29" x2="137.22" y2="237.29"/><path class="cls-21" d="M65.25,226.66,56.19,225,51,226a22.93,22.93,0,0,0-7.13-.31l8,12.31,14.44-3Z" transform="translate(81.51 21.02)"/><path class="cls-21" d="M35.64,227.7l2.46-1.25,6.62-.89h8.13v2.57l-7.73.19-5,.59-2.42.62a1.78,1.78,0,0,1-2.4-.78h0A.78.78,0,0,1,35.64,227.7Z" transform="translate(81.51 21.02)"/><path class="cls-21" d="M40.55,237.39h0A2.27,2.27,0,0,1,42.66,236h7l9.68-2.3.59,2.5-10.12,2.37L41,238.14A.55.55,0,0,1,40.55,237.39Z" transform="translate(81.51 21.02)"/><path class="cls-21" d="M37.86,235h0a2.05,2.05,0,0,1,2-2.05h6l8.35-.84.26,2.55-8.48.85H38.38A.53.53,0,0,1,37.86,235Z" transform="translate(81.51 21.02)"/><path class="cls-21" d="M36.2,231.41a3.55,3.55,0,0,1,2-1.19l4.09-.88,9.49-.8.12,3-9.4.37-3.76.83a3.65,3.65,0,0,1-2.28-.25l0,0A.61.61,0,0,1,36,232a.63.63,0,0,1,.13-.56Z" transform="translate(81.51 21.02)"/></g></g></g></svg>