<svg xmlns="http://www.w3.org/2000/svg" xmlns:xlink="http://www.w3.org/1999/xlink" viewBox="0 0 500 522.63"><defs><style>.cls-1,.cls-32,.cls-6{fill:none;}.cls-2{clip-path:url(#clip-path);}.cls-3{fill:#c3cbe8;}.cls-4{fill:#e35d76;}.cls-5{fill:#e74c69;}.cls-6{stroke:#2f2854;}.cls-32,.cls-6{stroke-linecap:round;stroke-linejoin:round;}.cls-7{fill:#ebebf7;}.cls-8{fill:#5565ad;}.cls-9{fill:#465aa5;}.cls-10{fill:#e13c6c;}.cls-11,.cls-17,.cls-23,.cls-35,.cls-42,.cls-57{fill:#2f2854;}.cls-12{fill:#e2c5a1;}.cls-13{fill:#bf9a6d;}.cls-14{fill:#d9bb93;}.cls-15{fill:#aa7f4f;}.cls-16{fill:#ac8252;}.cls-17{font-size:10.3px;}.cls-17,.cls-23,.cls-35,.cls-42,.cls-57{font-family:Antonio-Bold, Antonio Bold;font-weight:700;}.cls-18{clip-path:url(#clip-path-2);}.cls-19{fill:#a42236;}.cls-20{fill:#bf2d3d;}.cls-21{fill:#53885d;}.cls-22{fill:#cc3843;}.cls-23{font-size:10.3px;}.cls-24{clip-path:url(#clip-path-3);}.cls-25{fill:#f5dd33;}.cls-26{fill:#f4df76;}.cls-27{fill:#edd12e;}.cls-28{clip-path:url(#clip-path-4);}.cls-29{fill:#d87d19;}.cls-30{fill:#497750;}.cls-31{fill:#709d55;}.cls-32{stroke:#c9711c;}.cls-33{fill:#e68e21;}.cls-34{fill:#4c2e6c;}.cls-35{font-size:10.3px;}.cls-36{clip-path:url(#clip-path-5);}.cls-37{fill:#00887f;}.cls-38{fill:#614683;}.cls-39{fill:#3e2560;}.cls-40{fill:#573a7d;}.cls-41{fill:#644d8d;}.cls-42{font-size:10.3px;}.cls-43{clip-path:url(#clip-path-6);}.cls-44{fill:#54997a;}.cls-45{fill:#488268;}.cls-46{fill:#5e9e81;}.cls-47{fill:#87c699;}.cls-48{fill:#79be8c;}.cls-49{fill:#96cca4;}.cls-50{clip-path:url(#clip-path-7);}.cls-51{fill:#93633b;}.cls-52{fill:#a6764b;}.cls-53{fill:#8e6344;}.cls-54{fill:#e54c80;}.cls-55{fill:#c7285d;}.cls-56{fill:#d7d6ed;}.cls-57{font-size:14.14px;}.cls-58{letter-spacing:-0.04em;}.cls-59{letter-spacing:0em;}</style><clipPath id="clip-path" transform="translate(85.16 35.34)"><rect class="cls-1" width="244.04" height="447.92" rx="35.24"/></clipPath><clipPath id="clip-path-2" transform="translate(85.16 35.34)"><rect class="cls-1" x="56.02" y="275.74" width="118.74" height="49.82"/></clipPath><clipPath id="clip-path-3" transform="translate(85.16 35.34)"><rect class="cls-1" x="56.02" y="328.27" width="118.51" height="46.61"/></clipPath><clipPath id="clip-path-4" transform="translate(85.16 35.34)"><path class="cls-1" d="M49.44,325.56H-51.68l6.09-17.47-13.59-5.18L-47,281.2s80-3.88,80.65-6.45c.17-.6,21.18,5.58,21.18,5.58L58.39,304l-9,2.79Z"/></clipPath><clipPath id="clip-path-5" transform="translate(85.16 35.34)"><polygon class="cls-1" points="181.33 281.66 181.33 325.56 282.46 325.56 294.08 313.3 273.08 289.32 267.14 281.66 181.33 281.66"/></clipPath><clipPath id="clip-path-6" transform="translate(85.16 35.34)"><polygon class="cls-1" points="-51.68 325.56 49.44 325.56 49.44 374.87 -68.9 374.87 -51.68 325.56"/></clipPath><clipPath id="clip-path-7" transform="translate(85.16 35.34)"><polygon class="cls-1" points="181.33 330.97 181.33 374.87 299.67 374.87 284.35 330.97 181.33 330.97"/></clipPath></defs><g id="Capa_2" data-name="Capa 2"><g id="Capa_1-2" data-name="Capa 1"><g class="cls-2"><rect class="cls-3" y="22.63" width="500" height="500"/><g id="FARMER"><path class="cls-4" d="M188.61,209.66s5.56-10.38,4.21-11.23-3.57,1.63-3.57,1.63,1.37-3.77-.07-4.3-3.42,2.72-3.42,2.72,1.22-3.48-.61-3.85-7.21,10.61-7.21,10.61c.14-2.31-1.3-5.89-2.74-5.41s-.56,8.43-.56,8.43-11.32,26.87-21.86,26.25c-6.95-.41-10.05-5.41-14.14-13.55h0l-16.22,1.83-4,15h0l2,4.49s21.4,23.89,38.76,15.66c16.66-7.9,30-43,30-43,4.65-4.57,6.21-8.5,5.16-9.26S188.61,209.66,188.61,209.66Z" transform="translate(85.16 35.34)"/><path class="cls-5" d="M184.92,224.59c-7.7,10.57-21.85,27.27-34.47,27.28a66.42,66.42,0,0,1-25.22-4.93c7.31,6.5,21.63,16.78,33.92,10.95C170.14,252.68,179.69,235.61,184.92,224.59Z" transform="translate(85.16 35.34)"/><path class="cls-6" d="M135.33,254.44c7.18,4.29,15.92,7.2,23.82,3.45,16.66-7.9,30-43,30-43,4.65-4.57,6.21-8.5,5.16-9.26s-5.71,4.07-5.71,4.07,5.56-10.38,4.21-11.23-3.57,1.63-3.57,1.63,1.37-3.77-.07-4.3-3.42,2.72-3.42,2.72,1.22-3.48-.61-3.85-7.21,10.61-7.21,10.61c.14-2.31-1.3-5.89-2.74-5.41s-.56,8.43-.56,8.43" transform="translate(85.16 35.34)"/><path class="cls-6" d="M152.37,253.33s2.72,2.82,5.48-.51" transform="translate(85.16 35.34)"/><path class="cls-6" d="M177.94,205.24s5.31,1.75,3.91,8" transform="translate(85.16 35.34)"/><path class="cls-6" d="M180.33,204.66a24.52,24.52,0,0,1,9.34,6.05" transform="translate(85.16 35.34)"/><path class="cls-6" d="M185.76,198.48a37.82,37.82,0,0,0-3.07,7.17" transform="translate(85.16 35.34)"/><path class="cls-6" d="M189.25,200.06a48.4,48.4,0,0,0-3.49,7.36" transform="translate(85.16 35.34)"/><path class="cls-7" d="M138.64,221c-2.11-4.19-4.48-9.23-7.78-14.9a38.89,38.89,0,0,0-13.56-14.17l-7.2,27.35,8.28,18.5A138.54,138.54,0,0,0,138.64,221Z" transform="translate(85.16 35.34)"/><path class="cls-8" d="M88.38,200.82,71,186.23h0a34.14,34.14,0,0,0-6.4,2.58L60.27,283h62.15l-2-40.73s-.48-17.58-1.33-28.65-1.76-21.69-1.76-21.69a40,40,0,0,0-5.82-2.9h0Z" transform="translate(85.16 35.34)"/><path class="cls-9" d="M60.61,275.54c4.66,1.81,19.43,6.33,40.29.69,0,0,7.45.57,8.49-1.36a1.28,1.28,0,0,0-1-2.1s4,.42,4.47-1.73a1.85,1.85,0,0,0-1.73-2.32s3.56.39,3.47-1.86a1.79,1.79,0,0,0-2.28-1.77,2.26,2.26,0,0,0,1.81-2.13c0-1.73-10.22-.55-10.22-.55s2.87-4.2-.54-4.42-13.93,8.6-13.93,8.6l-28.23-3.08Z" transform="translate(85.16 35.34)"/><path class="cls-7" d="M104.16,186.69h0l-8.68,2-17.76-3.79A40.94,40.94,0,0,0,71,186.23c.25,8.07,2.61,29.5,20.31,30.87,16.22,1.26,19.51-18.1,20.13-28.11A50.14,50.14,0,0,0,104.16,186.69Z" transform="translate(85.16 35.34)"/><path class="cls-4" d="M104.16,186.69a90.84,90.84,0,0,0-13.24-1.93,65,65,0,0,0-13.2.12,17.21,17.21,0,0,0,13.54,7.94A14,14,0,0,0,104.16,186.69Z" transform="translate(85.16 35.34)"/><path class="cls-6" d="M78.72,244.26s-1.67,20.67-.87,21.25,30.3,1.11,30.3,1.11l-1.52-22.36Z" transform="translate(85.16 35.34)"/><line class="cls-6" x1="163.53" y1="284.09" x2="192.13" y2="284.69"/><path class="cls-10" d="M92.68,251.22a4.31,4.31,0,0,0-4.32,4.32,4.5,4.5,0,0,0,.14,1.11,14.07,14.07,0,0,0,4.18,7,14.09,14.09,0,0,0,4.17-7,4.5,4.5,0,0,0,.14-1.11A4.31,4.31,0,0,0,92.68,251.22Zm0,6.83a2.52,2.52,0,1,1,2.51-2.51A2.52,2.52,0,0,1,92.68,258.05Z" transform="translate(85.16 35.34)"/><path class="cls-4" d="M109.77,273c.12-1.5-1.67-1.81-1.67-1.81s4.2-.06,4.26-1.41-1.69-1.8-1.69-1.8,3-.36,2.88-2.05-2.94-1.29-2.94-1.29,2.83-.55,2.64-2.24-5.81-1-11.64-.47c0,0,3.57-3.46,3-4.49-1.05-2.06-6,2.12-9,2.93-5.28,1.44-19.22.68-27.59-12.51-2.48-3.91-3.35-9.59-3.36-15.64h0L53.68,219.92l-13.86,5.91h0c-5.06,22.76,6.55,41.67,20.51,46,15.88,4.9,40,2.45,40,2.45S109.62,275,109.77,273Z" transform="translate(85.16 35.34)"/><path class="cls-5" d="M39.26,244.26c2.38,14,11.12,24.48,21.07,27.55,14.37,4.43,35.44,2.85,39.33,2.51-2.92.22-15.76.67-34.08-6.31C51.58,262.67,43.32,251.44,39.26,244.26Z" transform="translate(85.16 35.34)"/><path class="cls-6" d="M40.16,248.38c3.25,11.92,11.22,20.67,20.17,23.43,15.88,4.9,40,2.45,40,2.45s9.32.76,9.47-1.23c.12-1.5-1.67-1.81-1.67-1.81s4.2-.06,4.26-1.41-1.69-1.8-1.69-1.8,3-.36,2.88-2.05-2.94-1.29-2.94-1.29,2.83-.55,2.64-2.24-5.81-1-11.64-.47c0,0,3.57-3.46,3-4.49-1.05-2.06-6,2.12-9,2.93" transform="translate(85.16 35.34)"/><path class="cls-6" d="M49.34,250.17s-2,3.68,2.75,4.19" transform="translate(85.16 35.34)"/><line class="cls-6" x1="186.77" y1="297.31" x2="185.35" y2="297.52"/><path class="cls-6" d="M110.61,264.67a50.85,50.85,0,0,1-6.93.84" transform="translate(85.16 35.34)"/><path class="cls-6" d="M110.67,268c-1.58.31-7.14.4-7.14.4" transform="translate(85.16 35.34)"/><path class="cls-6" d="M108.1,271.22c-1.44.08-4.95,0-4.95,0" transform="translate(85.16 35.34)"/><path class="cls-7" d="M39.82,225.83l24.92,6.42a80.78,80.78,0,0,1,.45-8.2s.46-3.46.38-14.7-.93-20.54-.93-20.54C56.05,193.36,49,201.87,42.92,216.2A56.24,56.24,0,0,0,39.82,225.83Z" transform="translate(85.16 35.34)"/><polygon class="cls-4" points="170.75 208.8 170.75 222.4 181.82 223.16 182.33 208.8 170.75 208.8"/><path class="cls-5" d="M85.59,180.9a26.94,26.94,0,0,0,11.26,1.63l.32-9.08H85.59Z" transform="translate(85.16 35.34)"/><path class="cls-8" d="M76.72,131.75l-.49-11a2.15,2.15,0,0,1,1.57-2.17,91.39,91.39,0,0,1,23.89-2.84,2.14,2.14,0,0,1,2.14,1.82,101.15,101.15,0,0,1,1,11.32Z" transform="translate(85.16 35.34)"/><path class="cls-11" d="M73.53,161.1c-.19,9.46,4.16,16.06,17.41,18.34s18.68-3,19.3-8.14a68.91,68.91,0,0,0,.43-9.81l-.45-10.34,1.4-.25s3.3-7.6-.87-11.49c0,0,1.86-15.89-12.68-17.81-10.73-1.41-14.68,2.71-16.21,6.5,0,0-13.12.23-11.89,21.38Z" transform="translate(85.16 35.34)"/><path class="cls-4" d="M107.65,141.66s1.52,7,1.35,19.61a4.32,4.32,0,0,1-3.33,1c-2-.3-4.1-2.87-8.5-2.37s-5.83,3.21-12.29,2.5-8.49-10.93-7.4-15.76c1.44-6.39,8.28-10.15,8.28-10.15S89,142.84,96,143.69A19.62,19.62,0,0,0,107.65,141.66Z" transform="translate(85.16 35.34)"/><path class="cls-5" d="M103.12,159.49a3.54,3.54,0,0,0,.59,2,6.44,6.44,0,0,0,2,.79,4.32,4.32,0,0,0,3.33-1c0-1.57,0-3.05,0-4.44a3.53,3.53,0,0,0-5.88,2.66Z" transform="translate(85.16 35.34)"/><path class="cls-5" d="M80.33,159.66a6.73,6.73,0,0,0,4.55,2.71c.59.06,1.14.09,1.65.1a3.46,3.46,0,0,0,.84-2.26,3.54,3.54,0,0,0-7-.55Z" transform="translate(85.16 35.34)"/><path class="cls-4" d="M73.53,150.79c-.06-1.42-1.2-2.83-3.89-2.52s-7.6,2.55-5.93,9,9.82,3.82,9.82,3.82S73.64,153.15,73.53,150.79Z" transform="translate(85.16 35.34)"/><path class="cls-6" d="M66.86,155.18a4.4,4.4,0,0,1,5.24-3" transform="translate(85.16 35.34)"/><path class="cls-6" d="M71.09,157.49a5.45,5.45,0,0,1-2.19-4.9" transform="translate(85.16 35.34)"/><path class="cls-6" d="M81.86,128.1a14.79,14.79,0,0,0-.91,3.65" transform="translate(85.16 35.34)"/><path class="cls-5" d="M110.22,151.15l.45,10.34s5.76-1.89,5.18-7.55C115.31,148.76,111.55,149.12,110.22,151.15Z" transform="translate(85.16 35.34)"/><path class="cls-6" d="M96.75,150.37a11.7,11.7,0,0,0,2.22,6.9s-.38,1-2.49,1.22" transform="translate(85.16 35.34)"/><path class="cls-6" d="M84.16,152.59a4.26,4.26,0,0,1,3.59-2.22,3.8,3.8,0,0,1,3.32,2.22" transform="translate(85.16 35.34)"/><path class="cls-6" d="M101.71,153.21s1.43-2.11,3.52-1.91,2.79,2.53,2.79,2.53" transform="translate(85.16 35.34)"/><path class="cls-11" d="M82.76,147.71c.5.85,3,1,5.48.88s3.3-1.1,2.45-2.39c-.64-.95-3.85-.29-5.24-.08S82.34,147,82.76,147.71Z" transform="translate(85.16 35.34)"/><path class="cls-11" d="M101.71,147.75c-.15.8.43,1.52,1.66,1.83s4.23.35,4.56-.21-.26-1.36-1.4-1.55S101.89,146.76,101.71,147.75Z" transform="translate(85.16 35.34)"/></g><g id="FRUIT_STAND" data-name="FRUIT STAND"><polygon class="cls-12" points="358.54 308.2 42.55 308.2 3.87 419.02 397.22 419.02 358.54 308.2"/><polygon class="cls-13" points="16.26 410.22 48.79 317 352.29 317 384.83 410.22 16.26 410.22"/><rect class="cls-14" x="3.87" y="419.02" width="393.35" height="31.33"/><path class="cls-13" d="M13.92,450.35H387.16a0,0,0,0,1,0,0v53.34A13.18,13.18,0,0,1,374,516.87H27.11a13.18,13.18,0,0,1-13.18-13.18V450.35a0,0,0,0,1,0,0Z"/><rect class="cls-12" x="134.6" y="317" width="6.58" height="93.21"/><rect class="cls-12" x="174.76" y="281.66" width="6.58" height="93.21" transform="translate(441.25 691.88) rotate(180)"/><rect class="cls-12" x="141.17" y="360.9" width="118.74" height="5.41"/><polygon class="cls-12" points="266.49 360.9 367.62 360.9 369.51 366.32 266.49 366.32 266.49 360.9"/><polygon class="cls-12" points="134.6 360.9 33.47 360.9 31.58 366.32 134.6 366.32 134.6 360.9"/><polygon class="cls-15" points="48.79 317 48.79 360.9 33.47 360.9 48.79 317"/><polygon class="cls-15" points="31.58 366.32 31.58 410.22 16.26 410.22 31.58 366.32"/><polygon class="cls-15" points="352.29 317 352.29 360.9 367.62 360.9 352.29 317"/><polygon class="cls-15" points="369.51 366.32 369.51 410.22 384.83 410.22 369.51 366.32"/><rect class="cls-16" x="13.92" y="450.35" width="373.24" height="7.69"/><rect class="cls-3" x="191.65" y="292.81" width="26.71" height="16.41" rx="2.25"/><rect class="cls-3" x="203.7" y="304.7" width="3.17" height="46.23"/><rect class="cls-7" x="192.78" y="292.81" width="26.71" height="16.41" rx="2.25"/><rect class="cls-7" x="204.55" y="304.7" width="3.17" height="46.23"/><text class="cls-17" transform="translate(194.61 303.71)">2.00$</text><g class="cls-18"><rect class="cls-19" x="141.17" y="334.54" width="118.74" height="26.36"/><path class="cls-20" d="M132.84,288.82c-.35,7.69,7.75,14,18.64,13.07s15.54-11.54,13.41-17.53-8.25-8.06-14.83-2.84C150.06,281.52,133.47,275.05,132.84,288.82Z" transform="translate(85.16 35.34)"/><path class="cls-21" d="M148.61,280.35s-5.27-1.29-5.55-.32,1.22,1.12,1.22,1.12-2.51,2.81-1.26,3.14,3.19-2.31,3.19-2.31-.38,5.31.92,5.29,1.5-3.51,1.5-3.51,2.9,2.61,4.25,2.13-1-3.48-1-3.48,3.48.48,3.67-.63-3.48-.63-3.48-.63,2.71-1,2.32-2.08-4.3,1.11-4.3,1.11-1.21-2.8-1.79-2.7S148.61,280.35,148.61,280.35Z" transform="translate(85.16 35.34)"/><path class="cls-19" d="M87.61,291.25c-2.19,6.59,2.54,13.5,15,13s16-6.19,14.79-13.15-10-8.17-13.92-4C103.5,287.15,90.76,281.79,87.61,291.25Z" transform="translate(85.16 35.34)"/><path class="cls-21" d="M102.36,285.7s-4.37-1.18-4.57-.31,1.72,1.13,1.72,1.13-2.3,2.61-.89,3.36,2.92-1.76,2.92-1.76-.63,3,.46,3.41,3.17-3.56,3.17-3.56,2.53,2.47,3.33,1.89-2-3.19-2-3.19,1.88-.92,1.57-1.95-4.4,1.08-4.4,1.08-.19-2.66-.82-2.64S102.36,285.7,102.36,285.7Z" transform="translate(85.16 35.34)"/><path class="cls-22" d="M113.06,297.7c-2.19,6.58,2.54,13.5,15,13s15.95-6.19,14.79-13.15-10-8.17-13.92-4C129,293.6,116.21,288.24,113.06,297.7Z" transform="translate(85.16 35.34)"/><path class="cls-21" d="M127.81,292.15s-4.37-1.19-4.57-.32S125,293,125,293s-2.3,2.61-.9,3.36,2.93-1.76,2.93-1.76-.63,3,.46,3.4,3.17-3.55,3.17-3.55,2.53,2.47,3.33,1.89-2-3.2-2-3.2,1.88-.92,1.57-1.94-4.4,1.07-4.4,1.07-.19-2.65-.82-2.63S127.81,292.15,127.81,292.15Z" transform="translate(85.16 35.34)"/><path class="cls-22" d="M157,291.25c-2.2,6.59,2.54,13.5,15,13s15.95-6.19,14.79-13.15-10-8.17-13.92-4C172.93,287.15,160.19,281.79,157,291.25Z" transform="translate(85.16 35.34)"/><path class="cls-21" d="M171.79,285.7s-4.38-1.18-4.57-.31,1.72,1.13,1.72,1.13-2.3,2.61-.9,3.36,2.93-1.76,2.93-1.76-.63,3,.46,3.41,3.16-3.56,3.16-3.56,2.54,2.47,3.34,1.89-2.05-3.19-2.05-3.19,1.88-.92,1.57-1.95-4.4,1.08-4.4,1.08-.2-2.66-.82-2.64S171.79,285.7,171.79,285.7Z" transform="translate(85.16 35.34)"/><path class="cls-20" d="M57.77,291.28c-.35,7.69,7.75,14,18.65,13.07S92,292.81,89.82,286.82,81.57,278.76,75,284C75,284,58.4,277.51,57.77,291.28Z" transform="translate(85.16 35.34)"/><path class="cls-21" d="M73.54,282.81s-5.27-1.29-5.55-.32,1.22,1.12,1.22,1.12-2.51,2.81-1.25,3.14,3.19-2.31,3.19-2.31-.39,5.31.91,5.29,1.5-3.51,1.5-3.51,2.9,2.61,4.26,2.13-1-3.48-1-3.48,3.48.48,3.68-.63-3.48-.63-3.48-.63,2.7-1,2.32-2.08S75,282.64,75,282.64s-1.21-2.8-1.79-2.7S73.54,282.81,73.54,282.81Z" transform="translate(85.16 35.34)"/><path class="cls-22" d="M45.78,302c-2.19,6.59,2.55,13.5,15,13s16-6.19,14.79-13.15-10-8.17-13.92-4C61.67,297.86,48.93,292.51,45.78,302Z" transform="translate(85.16 35.34)"/><path class="cls-21" d="M60.53,296.41s-4.37-1.18-4.56-.31,1.71,1.13,1.71,1.13-2.29,2.62-.89,3.36,2.92-1.76,2.92-1.76-.63,3,.46,3.41,3.17-3.55,3.17-3.55,2.54,2.46,3.33,1.88-2-3.19-2-3.19,1.89-.92,1.57-1.95-4.4,1.08-4.4,1.08-.19-2.66-.82-2.64S60.53,296.41,60.53,296.41Z" transform="translate(85.16 35.34)"/><path class="cls-19" d="M140.15,303.09c-2.19,6.58,2.55,13.5,15,13s16-6.18,14.8-13.15-10-8.17-13.93-4C156,299,143.31,293.63,140.15,303.09Z" transform="translate(85.16 35.34)"/><path class="cls-21" d="M154.91,297.54s-4.38-1.19-4.57-.32,1.71,1.14,1.71,1.14-2.29,2.61-.89,3.36,2.92-1.76,2.92-1.76-.62,3,.46,3.4,3.17-3.55,3.17-3.55,2.54,2.47,3.34,1.89-2.06-3.19-2.06-3.19,1.89-.93,1.57-1.95-4.4,1.08-4.4,1.08S156,295,155.34,295,154.91,297.54,154.91,297.54Z" transform="translate(85.16 35.34)"/><path class="cls-19" d="M83.33,298s-3.87-4.87-9.77-2.7S67.66,309,73,312s15.76,3.82,21-2.37c4.73-5.6,4.3-13.78-1.7-14.87A9,9,0,0,0,83.33,298Z" transform="translate(85.16 35.34)"/><path class="cls-21" d="M83.12,296.8s-2.83-2.09-3.34-1.37,1.67,2.17,1.67,2.17-2,3-1.22,3.36,3.15-2.2,3.15-2.2.8,3.67,2.12,3.6.61-3.7.61-3.7,3.14,2.32,3.58,1.64-2.57-3.36-2.57-3.36,2.66-1.39,2.3-2.35-4.5,1.58-4.5,1.58-.62-2.51-1.25-2.44S83.12,296.8,83.12,296.8Z" transform="translate(85.16 35.34)"/><path class="cls-20" d="M90,310.46c-.35,7.69,7.76,14,18.65,13.07S124.16,312,122,306s-8.25-8.05-14.83-2.83C107.2,303.16,90.6,296.68,90,310.46Z" transform="translate(85.16 35.34)"/><path class="cls-21" d="M105.74,302s-5.27-1.3-5.55-.32,1.23,1.12,1.23,1.12-2.52,2.8-1.26,3.14,3.19-2.32,3.19-2.32-.39,5.32.92,5.29,1.5-3.5,1.5-3.5,2.9,2.61,4.25,2.13-1-3.49-1-3.49,3.48.49,3.67-.62-3.48-.63-3.48-.63,2.71-1,2.32-2.08-4.3,1.11-4.3,1.11-1.21-2.8-1.79-2.71S105.74,302,105.74,302Z" transform="translate(85.16 35.34)"/><path class="cls-19" d="M131.44,310.46s-3.87-4.87-9.77-2.69-5.89,13.68-.58,16.68,15.76,3.81,21-2.37c4.73-5.61,4.3-13.79-1.7-14.87A8.93,8.93,0,0,0,131.44,310.46Z" transform="translate(85.16 35.34)"/><path class="cls-21" d="M131.23,309.24s-2.83-2.09-3.34-1.37,1.67,2.17,1.67,2.17-2,3-1.21,3.36,3.14-2.2,3.14-2.2.8,3.67,2.13,3.6.6-3.7.6-3.7,3.14,2.32,3.58,1.65-2.57-3.36-2.57-3.36,2.66-1.4,2.3-2.36-4.5,1.58-4.5,1.58-.62-2.51-1.25-2.44S131.23,309.24,131.23,309.24Z" transform="translate(85.16 35.34)"/><path class="cls-20" d="M60,317c-2.19,6.59,2.55,13.5,15,13s16-6.19,14.79-13.15-10-8.17-13.92-4C75.84,312.89,63.1,307.53,60,317Z" transform="translate(85.16 35.34)"/><path class="cls-21" d="M74.7,311.44s-4.37-1.18-4.56-.31,1.71,1.13,1.71,1.13-2.29,2.61-.89,3.36,2.92-1.76,2.92-1.76-.63,3,.46,3.41,3.17-3.56,3.17-3.56,2.54,2.47,3.33,1.89-2-3.19-2-3.19,1.88-.92,1.57-2-4.4,1.08-4.4,1.08-.19-2.66-.82-2.64S74.7,311.44,74.7,311.44Z" transform="translate(85.16 35.34)"/><path class="cls-22" d="M78.2,323.08c-2.19,6.59,2.54,13.5,15,13s16-6.19,14.79-13.15-10-8.17-13.92-4C94.09,319,81.35,313.63,78.2,323.08Z" transform="translate(85.16 35.34)"/><path class="cls-21" d="M93,317.53s-4.37-1.18-4.57-.31,1.72,1.14,1.72,1.14-2.3,2.61-.89,3.36S92.13,320,92.13,320s-.63,3,.46,3.41,3.17-3.55,3.17-3.55,2.53,2.46,3.33,1.88-2-3.19-2-3.19,1.88-.92,1.57-1.95-4.4,1.08-4.4,1.08S94,315,93.39,315,93,317.53,93,317.53Z" transform="translate(85.16 35.34)"/><path class="cls-20" d="M133.42,319.24c-.35,7.69,7.76,14,18.65,13.06s15.54-11.53,13.41-17.53-8.25-8.06-14.83-2.84C150.65,311.93,134.05,305.46,133.42,319.24Z" transform="translate(85.16 35.34)"/><path class="cls-21" d="M149.19,310.77s-5.27-1.3-5.54-.33,1.22,1.12,1.22,1.12-2.51,2.81-1.26,3.15,3.19-2.32,3.19-2.32-.39,5.31.92,5.29,1.5-3.51,1.5-3.51,2.9,2.62,4.25,2.13-1-3.48-1-3.48,3.48.48,3.67-.63-3.48-.63-3.48-.63,2.71-1,2.32-2.08-4.3,1.12-4.3,1.12-1.21-2.81-1.79-2.71S149.19,310.77,149.19,310.77Z" transform="translate(85.16 35.34)"/><path class="cls-22" d="M170.4,316s-3.86-4.87-9.76-2.7-5.9,13.69-.58,16.68,15.76,3.82,21-2.36c4.74-5.61,4.3-13.79-1.69-14.87A8.94,8.94,0,0,0,170.4,316Z" transform="translate(85.16 35.34)"/><path class="cls-21" d="M170.2,314.76s-2.83-2.09-3.35-1.37,1.68,2.17,1.68,2.17-2,3-1.22,3.36,3.14-2.2,3.14-2.2.8,3.67,2.13,3.6.6-3.7.6-3.7,3.15,2.32,3.58,1.64-2.56-3.36-2.56-3.36,2.66-1.39,2.3-2.35-4.5,1.58-4.5,1.58-.63-2.51-1.26-2.44S170.2,314.76,170.2,314.76Z" transform="translate(85.16 35.34)"/><path class="cls-22" d="M125.13,318.58s-3.87-4.87-9.77-2.7-5.9,13.69-.58,16.68,15.76,3.81,21-2.37c4.74-5.6,4.31-13.78-1.69-14.87A9,9,0,0,0,125.13,318.58Z" transform="translate(85.16 35.34)"/><path class="cls-21" d="M124.92,317.36s-2.83-2.09-3.34-1.37,1.67,2.17,1.67,2.17-2,3-1.22,3.36,3.14-2.2,3.14-2.2.8,3.67,2.13,3.6.61-3.7.61-3.7,3.14,2.32,3.57,1.64-2.56-3.36-2.56-3.36,2.66-1.39,2.3-2.35-4.5,1.58-4.5,1.58-.63-2.51-1.26-2.44S124.92,317.36,124.92,317.36Z" transform="translate(85.16 35.34)"/></g><rect class="cls-3" x="59.35" y="304.02" width="26.71" height="16.41" rx="2.25" transform="translate(32.04 52.71) rotate(-10)"/><rect class="cls-3" x="76.04" y="315.45" width="3.17" height="46.23" transform="translate(27.54 53.97) rotate(-10)"/><rect class="cls-7" x="60.46" y="303.83" width="26.71" height="16.41" rx="2.25" transform="translate(32.09 52.9) rotate(-10)"/><rect class="cls-7" x="76.88" y="315.3" width="3.17" height="46.23" transform="translate(27.58 54.11) rotate(-10)"/><text class="cls-23" transform="translate(148.11 352.05) rotate(-10)">3.00$</text><g class="cls-24"><circle class="cls-25" cx="62.73" cy="343.01" r="9.51" transform="translate(-193.03 305.04) rotate(-67.5)"/><line class="cls-6" x1="140.99" y1="378.36" x2="140.99" y2="378.36"/><line class="cls-6" x1="145.36" y1="379.3" x2="145.36" y2="379.3"/><line class="cls-6" x1="143.33" y1="383.15" x2="143.33" y2="383.15"/><line class="cls-6" x1="147.88" y1="384.06" x2="147.88" y2="384.06"/><circle class="cls-25" cx="221.79" cy="378.76" r="9.51"/><line class="cls-6" x1="214.89" y1="378.76" x2="214.89" y2="378.76"/><line class="cls-6" x1="219.27" y1="379.7" x2="219.27" y2="379.7"/><line class="cls-6" x1="217.23" y1="383.55" x2="217.23" y2="383.55"/><line class="cls-6" x1="221.79" y1="384.46" x2="221.79" y2="384.46"/><circle class="cls-25" cx="253.77" cy="377.87" r="9.51"/><line class="cls-6" x1="246.88" y1="377.87" x2="246.88" y2="377.87"/><line class="cls-6" x1="251.25" y1="378.81" x2="251.25" y2="378.81"/><line class="cls-6" x1="249.22" y1="382.65" x2="249.22" y2="382.65"/><line class="cls-6" x1="253.77" y1="383.56" x2="253.77" y2="383.56"/><path class="cls-25" d="M80.62,339.15a9.5,9.5,0,1,0,9.92-9.07A9.5,9.5,0,0,0,80.62,339.15Z" transform="translate(85.16 35.34)"/><line class="cls-6" x1="182.16" y1="375.23" x2="182.16" y2="375.23"/><line class="cls-6" x1="177.83" y1="374.09" x2="177.83" y2="374.09"/><line class="cls-6" x1="180.04" y1="370.34" x2="180.04" y2="370.34"/><line class="cls-6" x1="175.53" y1="369.23" x2="175.53" y2="369.23"/><circle class="cls-26" cx="163.76" cy="381.96" r="10.98"/><line class="cls-6" x1="156.69" y1="383.66" x2="156.69" y2="383.66"/><line class="cls-6" x1="161.06" y1="384.6" x2="161.06" y2="384.6"/><line class="cls-6" x1="162.71" y1="381.69" x2="162.71" y2="381.69"/><line class="cls-6" x1="166.72" y1="386.51" x2="166.72" y2="386.51"/><line class="cls-6" x1="156.03" y1="377.5" x2="156.03" y2="377.5"/><line class="cls-6" x1="159.02" y1="388.45" x2="159.02" y2="388.45"/><line class="cls-6" x1="163.58" y1="389.36" x2="163.58" y2="389.36"/><line class="cls-6" x1="159.02" y1="379.38" x2="159.02" y2="379.38"/><circle class="cls-26" cx="153.36" cy="342.16" r="10.98" transform="translate(-136.28 388.25) rotate(-67.5)"/><line class="cls-6" x1="231.44" y1="379.2" x2="231.44" y2="379.2"/><line class="cls-6" x1="235.82" y1="380.14" x2="235.82" y2="380.14"/><line class="cls-6" x1="237.47" y1="377.22" x2="237.47" y2="377.22"/><line class="cls-6" x1="241.48" y1="382.05" x2="241.48" y2="382.05"/><line class="cls-6" x1="230.79" y1="373.04" x2="230.79" y2="373.04"/><line class="cls-6" x1="233.78" y1="383.98" x2="233.78" y2="383.98"/><line class="cls-6" x1="238.33" y1="384.9" x2="238.33" y2="384.9"/><line class="cls-6" x1="233.78" y1="374.92" x2="233.78" y2="374.92"/><circle class="cls-27" cx="227.72" cy="388.84" r="10.98"/><line class="cls-6" x1="220.78" y1="389.36" x2="220.78" y2="389.36"/><line class="cls-6" x1="225.16" y1="390.3" x2="225.16" y2="390.3"/><line class="cls-6" x1="228.47" y1="397.1" x2="228.47" y2="397.1"/><line class="cls-6" x1="230.82" y1="392.21" x2="230.82" y2="392.21"/><line class="cls-6" x1="223.12" y1="394.15" x2="223.12" y2="394.15"/><line class="cls-6" x1="227.68" y1="387.82" x2="227.68" y2="387.82"/><line class="cls-6" x1="223.12" y1="385.08" x2="223.12" y2="385.08"/><circle class="cls-27" cx="121.72" cy="344.04" r="10.98" transform="matrix(0.99, -0.16, 0.16, 0.99, 31.62, 59.28)"/><line class="cls-6" x1="199.94" y1="379.9" x2="199.94" y2="379.9"/><line class="cls-6" x1="204.32" y1="380.84" x2="204.32" y2="380.84"/><line class="cls-6" x1="207.63" y1="387.64" x2="207.63" y2="387.64"/><line class="cls-6" x1="209.98" y1="382.75" x2="209.98" y2="382.75"/><line class="cls-6" x1="202.28" y1="384.68" x2="202.28" y2="384.68"/><line class="cls-6" x1="206.84" y1="378.36" x2="206.84" y2="378.36"/><line class="cls-6" x1="202.28" y1="375.62" x2="202.28" y2="375.62"/><circle class="cls-27" cx="101.2" cy="347.64" r="10.98" transform="translate(7.99 67.9) rotate(-13.28)"/><line class="cls-6" x1="179.42" y1="383.5" x2="179.42" y2="383.5"/><line class="cls-6" x1="183.8" y1="384.44" x2="183.8" y2="384.44"/><line class="cls-6" x1="187.11" y1="391.24" x2="187.11" y2="391.24"/><line class="cls-6" x1="189.46" y1="386.35" x2="189.46" y2="386.35"/><line class="cls-6" x1="181.76" y1="388.29" x2="181.76" y2="388.29"/><line class="cls-6" x1="186.32" y1="381.96" x2="186.32" y2="381.96"/><line class="cls-6" x1="181.76" y1="379.22" x2="181.76" y2="379.22"/><circle class="cls-25" cx="195.9" cy="390.49" r="9.51"/><line class="cls-6" x1="189.01" y1="390.49" x2="189.01" y2="390.49"/><line class="cls-6" x1="193.38" y1="391.43" x2="193.38" y2="391.43"/><line class="cls-6" x1="191.35" y1="395.27" x2="191.35" y2="395.27"/><line class="cls-6" x1="195.9" y1="396.19" x2="195.9" y2="396.19"/><circle class="cls-26" cx="168.63" cy="355.81" r="9.51" transform="translate(24.24 71.24) rotate(-10.3)"/><line class="cls-6" x1="260.68" y1="391.14" x2="260.68" y2="391.14"/><line class="cls-6" x1="256.3" y1="390.21" x2="256.3" y2="390.21"/><line class="cls-6" x1="258.33" y1="386.35" x2="258.33" y2="386.35"/><line class="cls-6" x1="253.77" y1="385.45" x2="253.77" y2="385.45"/><circle class="cls-25" cx="245.75" cy="388.27" r="9.51"/><line class="cls-6" x1="238.86" y1="388.27" x2="238.86" y2="388.27"/><line class="cls-6" x1="243.23" y1="389.21" x2="243.23" y2="389.21"/><line class="cls-6" x1="241.2" y1="393.05" x2="241.2" y2="393.05"/><line class="cls-6" x1="245.75" y1="393.97" x2="245.75" y2="393.97"/><circle class="cls-26" cx="125.65" cy="356.08" r="10.98" transform="translate(-129.83 228.49) rotate(-45)"/><line class="cls-6" x1="203.87" y1="391.94" x2="203.87" y2="391.94"/><line class="cls-6" x1="208.25" y1="392.88" x2="208.25" y2="392.88"/><line class="cls-6" x1="211.56" y1="399.68" x2="211.56" y2="399.68"/><line class="cls-6" x1="213.91" y1="394.79" x2="213.91" y2="394.79"/><line class="cls-6" x1="206.21" y1="396.73" x2="206.21" y2="396.73"/><line class="cls-6" x1="210.77" y1="390.4" x2="210.77" y2="390.4"/><line class="cls-6" x1="206.21" y1="387.66" x2="206.21" y2="387.66"/><circle class="cls-27" cx="63.78" cy="356.08" r="10.98" transform="translate(5.05 59.52) rotate(-13.28)"/><line class="cls-6" x1="141.86" y1="393.12" x2="141.86" y2="393.12"/><line class="cls-6" x1="146.23" y1="394.06" x2="146.23" y2="394.06"/><line class="cls-6" x1="147.88" y1="391.15" x2="147.88" y2="391.15"/><line class="cls-6" x1="151.89" y1="395.97" x2="151.89" y2="395.97"/><line class="cls-6" x1="141.21" y1="386.96" x2="141.21" y2="386.96"/><line class="cls-6" x1="144.2" y1="397.91" x2="144.2" y2="397.91"/><line class="cls-6" x1="148.75" y1="398.82" x2="148.75" y2="398.82"/><line class="cls-6" x1="144.2" y1="388.84" x2="144.2" y2="388.84"/><circle class="cls-25" cx="172.28" cy="389.98" r="9.51"/><line class="cls-6" x1="165.39" y1="389.98" x2="165.39" y2="389.98"/><line class="cls-6" x1="169.76" y1="390.92" x2="169.76" y2="390.92"/><line class="cls-6" x1="167.73" y1="394.77" x2="167.73" y2="394.77"/><line class="cls-6" x1="172.28" y1="395.68" x2="172.28" y2="395.68"/><path class="cls-25" d="M159.67,365.78A9.51,9.51,0,1,0,171.82,360,9.51,9.51,0,0,0,159.67,365.78Z" transform="translate(85.16 35.34)"/><line class="cls-6" x1="260.28" y1="406.62" x2="260.28" y2="406.62"/><line class="cls-6" x1="256.47" y1="404.27" x2="256.47" y2="404.27"/><line class="cls-6" x1="259.68" y1="401.33" x2="259.68" y2="401.33"/><line class="cls-6" x1="255.69" y1="398.95" x2="255.69" y2="398.95"/><circle class="cls-26" cx="76.15" cy="366.12" r="10.98" transform="translate(-206.09 331.71) rotate(-67.5)"/><line class="cls-6" x1="152.78" y1="401.67" x2="152.78" y2="401.67"/><line class="cls-6" x1="157.16" y1="402.61" x2="157.16" y2="402.61"/><line class="cls-6" x1="162.82" y1="404.52" x2="162.82" y2="404.52"/><line class="cls-6" x1="155.12" y1="406.46" x2="155.12" y2="406.46"/><line class="cls-6" x1="159.68" y1="407.37" x2="159.68" y2="407.37"/><line class="cls-6" x1="155.12" y1="397.39" x2="155.12" y2="397.39"/><circle class="cls-26" cx="98.1" cy="365.1" r="10.98" transform="translate(3.9 67.65) rotate(-13.28)"/><line class="cls-6" x1="176.32" y1="400.96" x2="176.32" y2="400.96"/><line class="cls-6" x1="180.7" y1="401.9" x2="180.7" y2="401.9"/><line class="cls-6" x1="184.01" y1="408.7" x2="184.01" y2="408.7"/><line class="cls-6" x1="186.36" y1="403.81" x2="186.36" y2="403.81"/><line class="cls-6" x1="178.66" y1="405.75" x2="178.66" y2="405.75"/><line class="cls-6" x1="183.22" y1="399.42" x2="183.22" y2="399.42"/><line class="cls-6" x1="178.66" y1="396.68" x2="178.66" y2="396.68"/><circle class="cls-26" cx="143.81" cy="368.53" r="10.98" transform="translate(4.33 78.24) rotate(-13.28)"/><line class="cls-6" x1="222.03" y1="404.39" x2="222.03" y2="404.39"/><line class="cls-6" x1="226.4" y1="405.33" x2="226.4" y2="405.33"/><line class="cls-6" x1="229.71" y1="412.13" x2="229.71" y2="412.13"/><line class="cls-6" x1="232.06" y1="407.23" x2="232.06" y2="407.23"/><line class="cls-6" x1="224.36" y1="409.17" x2="224.36" y2="409.17"/><line class="cls-6" x1="228.92" y1="402.85" x2="228.92" y2="402.85"/><line class="cls-6" x1="224.36" y1="400.11" x2="224.36" y2="400.11"/><circle class="cls-27" cx="174.5" cy="406.9" r="9.51"/><line class="cls-6" x1="168.38" y1="406.46" x2="168.38" y2="406.46"/><line class="cls-6" x1="170.71" y1="411.24" x2="170.71" y2="411.24"/><line class="cls-6" x1="175.27" y1="412.16" x2="175.27" y2="412.16"/><circle class="cls-27" cx="113.26" cy="371.55" r="10.98" transform="translate(2.82 71.31) rotate(-13.28)"/><line class="cls-6" x1="191.35" y1="408.59" x2="191.35" y2="408.59"/><line class="cls-6" x1="195.72" y1="409.53" x2="195.72" y2="409.53"/><line class="cls-6" x1="197.37" y1="406.62" x2="197.37" y2="406.62"/><line class="cls-6" x1="201.38" y1="411.44" x2="201.38" y2="411.44"/><line class="cls-6" x1="190.69" y1="402.43" x2="190.69" y2="402.43"/><line class="cls-6" x1="193.68" y1="413.38" x2="193.68" y2="413.38"/><line class="cls-6" x1="198.24" y1="414.29" x2="198.24" y2="414.29"/><line class="cls-6" x1="193.68" y1="404.31" x2="193.68" y2="404.31"/><circle class="cls-27" cx="244.28" cy="400.96" r="10.98"/><line class="cls-6" x1="237.2" y1="402.66" x2="237.2" y2="402.66"/><line class="cls-6" x1="241.58" y1="403.6" x2="241.58" y2="403.6"/><line class="cls-6" x1="243.23" y1="400.68" x2="243.23" y2="400.68"/><line class="cls-6" x1="247.24" y1="405.51" x2="247.24" y2="405.51"/><line class="cls-6" x1="236.55" y1="396.5" x2="236.55" y2="396.5"/><line class="cls-6" x1="239.54" y1="407.45" x2="239.54" y2="407.45"/><line class="cls-6" x1="244.1" y1="408.36" x2="244.1" y2="408.36"/><line class="cls-6" x1="239.54" y1="398.38" x2="239.54" y2="398.38"/><circle class="cls-25" cx="215.36" cy="403.05" r="9.51"/><line class="cls-6" x1="208.47" y1="403.05" x2="208.47" y2="403.05"/><line class="cls-6" x1="212.85" y1="403.99" x2="212.85" y2="403.99"/><line class="cls-6" x1="210.81" y1="407.83" x2="210.81" y2="407.83"/><line class="cls-6" x1="215.36" y1="408.74" x2="215.36" y2="408.74"/><circle class="cls-25" cx="147.46" cy="404.52" r="9.51"/><line class="cls-6" x1="140.56" y1="404.52" x2="140.56" y2="404.52"/><line class="cls-6" x1="144.94" y1="405.46" x2="144.94" y2="405.46"/><line class="cls-6" x1="142.9" y1="409.31" x2="142.9" y2="409.31"/><line class="cls-6" x1="147.46" y1="410.22" x2="147.46" y2="410.22"/></g><rect class="cls-3" x="43.26" y="300.44" width="26.71" height="16.41" rx="2.25"/><rect class="cls-3" x="55.31" y="312.32" width="3.17" height="46.23"/><rect class="cls-7" x="44.39" y="300.44" width="26.71" height="16.41" rx="2.25"/><rect class="cls-7" x="56.16" y="312.32" width="3.17" height="46.23"/><text class="cls-17" transform="translate(46.22 311.34)">0.95$</text><g class="cls-28"><polygon class="cls-29" points="41.1 339.04 134.6 339.04 134.6 360.9 33.47 360.9 41.1 339.04"/><path class="cls-21" d="M-34.54,300.27c-.29.16-2.08-3.41-2.86-4.81-2.36-4.24-6.12-6.25-4.32-7.25,1.23-.69,4.66,4.43,5.61,6.15S-33,299.43-34.54,300.27Z" transform="translate(85.16 35.34)"/><path class="cls-30" d="M-33.46,299.72c.33,0-.09-4-.18-5.59-.28-4.85,1.81-8.57-.25-8.45-1.41.09-1.55,6.25-1.43,8.21S-35.18,299.82-33.46,299.72Z" transform="translate(85.16 35.34)"/><path class="cls-31" d="M-34.55,299.61c-.33.1-1.32-3.77-1.79-5.3-1.42-4.64-4.68-7.4-2.71-8,1.35-.41,3.62,5.31,4.2,7.19S-32.91,299.1-34.55,299.61Z" transform="translate(85.16 35.34)"/><path class="cls-29" d="M-34.8,297.61c1.9-.58,4-.87,4.81,1.83,3.18,10.34,7.41,31.81,5.67,32.35s-10.27-19.62-13.45-30C-38.59,299.13-36.7,298.2-34.8,297.61Z" transform="translate(85.16 35.34)"/><line class="cls-32" x1="53.78" y1="335.22" x2="51.52" y2="335.92"/><line class="cls-32" x1="51.8" y1="339.45" x2="49.54" y2="340.14"/><line class="cls-32" x1="54.35" y1="345.82" x2="52.09" y2="346.52"/><line class="cls-32" x1="55.54" y1="341.65" x2="53.28" y2="342.35"/><line class="cls-32" x1="57.41" y1="349.66" x2="55.14" y2="350.35"/><line class="cls-32" x1="58.32" y1="355.62" x2="56.06" y2="356.31"/><path class="cls-21" d="M-43.08,304.55c-.08.33-3.92-.77-5.48-1.13-4.72-1.11-8.74.31-8.27-1.7.32-1.37,6.41-.45,8.33,0S-42.69,302.87-43.08,304.55Z" transform="translate(85.16 35.34)"/><path class="cls-30" d="M-42.77,303.38c.22-.26-3-2.63-4.24-3.64-3.77-3.05-5.11-7.1-6.41-5.5-.89,1.09,3.57,5.35,5.1,6.58S-43.85,304.72-42.77,303.38Z" transform="translate(85.16 35.34)"/><path class="cls-31" d="M-43.58,304.12c-.14.3-3.67-1.57-5.12-2.26-4.38-2.07-8.62-1.53-7.74-3.39.61-1.27,6.37.9,8.15,1.74S-42.84,302.56-43.58,304.12Z" transform="translate(85.16 35.34)"/><path class="cls-33" d="M-45.22,303c.85-1.79,2-3.53,4.59-2.33,9.79,4.63,28.5,16,27.72,17.62s-21.41-5.63-31.2-10.26C-46.66,306.77-46.07,304.75-45.22,303Z" transform="translate(85.16 35.34)"/><line class="cls-32" x1="43.92" y1="337.29" x2="42.91" y2="339.43"/><line class="cls-32" x1="45.71" y1="341.61" x2="44.7" y2="343.74"/><line class="cls-32" x1="52.13" y1="344.02" x2="51.12" y2="346.16"/><line class="cls-32" x1="49.85" y1="340.33" x2="48.84" y2="342.46"/><line class="cls-32" x1="57.02" y1="344.35" x2="56.01" y2="346.48"/><line class="cls-32" x1="62.04" y1="347.69" x2="61.03" y2="349.83"/><path class="cls-21" d="M.48,300.58c-.29.16-2.07-3.41-2.85-4.81-2.37-4.23-6.13-6.25-4.33-7.25,1.23-.69,4.66,4.43,5.62,6.15S2,299.74.48,300.58Z" transform="translate(85.16 35.34)"/><path class="cls-30" d="M1.56,300c.34,0-.08-4-.18-5.59-.28-4.85,1.81-8.57-.25-8.45-1.41.09-1.54,6.25-1.43,8.21S-.16,300.13,1.56,300Z" transform="translate(85.16 35.34)"/><path class="cls-31" d="M.47,299.92c-.32.1-1.32-3.77-1.79-5.3-1.42-4.64-4.68-7.4-2.71-8,1.35-.41,3.63,5.31,4.2,7.19S2.11,299.41.47,299.92Z" transform="translate(85.16 35.34)"/><path class="cls-29" d="M.22,297.92c1.9-.58,4-.87,4.82,1.83,3.17,10.34,7.4,31.81,5.67,32.35s-10.28-19.62-13.45-30C-3.57,299.44-1.68,298.51.22,297.92Z" transform="translate(85.16 35.34)"/><line class="cls-32" x1="88.8" y1="335.53" x2="86.54" y2="336.23"/><line class="cls-32" x1="86.82" y1="339.76" x2="84.56" y2="340.46"/><line class="cls-32" x1="89.37" y1="346.13" x2="87.11" y2="346.83"/><line class="cls-32" x1="90.56" y1="341.96" x2="88.3" y2="342.66"/><line class="cls-32" x1="92.43" y1="349.97" x2="90.17" y2="350.66"/><line class="cls-32" x1="93.34" y1="355.93" x2="91.08" y2="356.62"/><path class="cls-21" d="M38.11,298.36c-.33,0,0-4,.13-5.59.24-4.85-1.89-8.55.17-8.45,1.41.07,1.6,6.23,1.51,8.19S39.83,298.44,38.11,298.36Z" transform="translate(85.16 35.34)"/><path class="cls-30" d="M39.32,298.46c.29.16,2-3.43,2.81-4.83,2.32-4.26,6.07-6.31,4.26-7.3-1.24-.68-4.62,4.48-5.56,6.2S37.81,297.63,39.32,298.46Z" transform="translate(85.16 35.34)"/><path class="cls-31" d="M38.45,297.79c-.33-.09.88-3.9,1.29-5.44,1.25-4.69-.05-8.75,1.94-8.22,1.36.36.26,6.42-.24,8.32S40.11,298.23,38.45,297.79Z" transform="translate(85.16 35.34)"/><path class="cls-29" d="M39.3,296c1.92.51,3.84,1.37,3.12,4.09C39.63,310.52,31.85,331,30.09,330.51s1.67-22.08,4.46-32.54C35.28,295.24,37.38,295.46,39.3,296Z" transform="translate(85.16 35.34)"/><line class="cls-32" x1="126.16" y1="335.05" x2="123.87" y2="334.44"/><line class="cls-32" x1="122.24" y1="337.59" x2="119.95" y2="336.98"/><line class="cls-32" x1="121.02" y1="344.34" x2="118.74" y2="343.73"/><line class="cls-32" x1="124.25" y1="341.43" x2="121.96" y2="340.82"/><line class="cls-32" x1="121.59" y1="349.21" x2="119.3" y2="348.6"/><line class="cls-32" x1="119.21" y1="354.75" x2="116.92" y2="354.14"/><path class="cls-21" d="M-26.11,300.81c-.31.13-1.69-3.62-2.31-5.09-1.89-4.47-5.41-6.89-3.51-7.69,1.3-.54,4.15,4.92,4.91,6.73S-24.52,300.14-26.11,300.81Z" transform="translate(85.16 35.34)"/><path class="cls-30" d="M-25,300.38c.34,0,.36-4,.44-5.58.24-4.84,2.73-8.32.67-8.42-1.41-.07-2.22,6-2.32,8S-26.69,300.29-25,300.38Z" transform="translate(85.16 35.34)"/><path class="cls-31" d="M-26,300.15c-.33.06-.9-3.89-1.2-5.46-.91-4.77-3.84-7.86-1.82-8.25,1.39-.26,3,5.67,3.39,7.61S-24.36,299.83-26,300.15Z" transform="translate(85.16 35.34)"/><path class="cls-33" d="M-26.08,298.14c1.95-.37,4.06-.44,4.59,2.34,2,10.63,3.89,32.43,2.11,32.77s-8.08-20.62-10.1-31.25C-30,299.23-28,298.51-26.08,298.14Z" transform="translate(85.16 35.34)"/><line class="cls-32" x1="62.24" y1="336.11" x2="59.91" y2="336.55"/><line class="cls-32" x1="59.81" y1="340.1" x2="57.48" y2="340.54"/><line class="cls-32" x1="61.64" y1="346.71" x2="59.32" y2="347.15"/><line class="cls-32" x1="63.29" y1="342.69" x2="60.96" y2="343.14"/><line class="cls-32" x1="64.27" y1="350.85" x2="61.94" y2="351.3"/><line class="cls-32" x1="64.52" y1="356.88" x2="62.2" y2="357.32"/><path class="cls-21" d="M-15,303.58c-.19.28-3.39-2.11-4.71-3-4-2.73-8.28-2.84-7.12-4.54.79-1.17,6.15,1.87,7.78,3S-14.06,302.16-15,303.58Z" transform="translate(85.16 35.34)"/><path class="cls-30" d="M-14.32,302.61c.3-.17-1.86-3.54-2.66-4.92-2.43-4.2-2.24-8.46-4-7.43-1.22.7,1.42,6.27,2.41,8S-15.8,303.47-14.32,302.61Z" transform="translate(85.16 35.34)"/><path class="cls-31" d="M-15.34,303c-.24.23-2.87-2.78-4-3.93-3.36-3.51-7.51-4.51-6-5.93,1-1,5.63,3.11,7,4.53S-14.1,301.81-15.34,303Z" transform="translate(85.16 35.34)"/><path class="cls-33" d="M-16.46,301.33c1.44-1.38,3.17-2.58,5.13-.54,7.48,7.82,20.9,25.11,19.59,26.36s-18-12.91-25.47-20.73C-19.17,304.38-17.89,302.7-16.46,301.33Z" transform="translate(85.16 35.34)"/><line class="cls-32" x1="72.78" y1="337.16" x2="71.07" y2="338.79"/><line class="cls-32" x1="72.91" y1="341.82" x2="71.2" y2="343.46"/><line class="cls-32" x1="78.05" y1="346.37" x2="76.34" y2="348.01"/><line class="cls-32" x1="77.24" y1="342.11" x2="75.53" y2="343.75"/><line class="cls-32" x1="82.5" y1="348.43" x2="80.79" y2="350.06"/><line class="cls-32" x1="85.99" y1="353.34" x2="84.28" y2="354.97"/><path class="cls-29" d="M-6.84,313.82c1.7-1,3.65-1.81,5.11.61,5.59,9.27,14.88,29.08,13.33,30S-3.12,327.9-8.7,318.63C-10.16,316.21-8.54,314.85-6.84,313.82Z" transform="translate(85.16 35.34)"/><line class="cls-32" x1="82.18" y1="350.54" x2="80.16" y2="351.76"/><line class="cls-32" x1="81.29" y1="355.12" x2="79.26" y2="356.34"/><line class="cls-32" x1="85.3" y1="360.69" x2="83.28" y2="361.91"/><line class="cls-32" x1="85.45" y1="356.35" x2="83.42" y2="357.57"/><line class="cls-32" x1="89.19" y1="363.67" x2="87.17" y2="364.89"/><line class="cls-32" x1="91.52" y1="369.23" x2="89.5" y2="370.45"/><path class="cls-29" d="M44.21,301.72c2-.1,4.08.13,4.22,2.94.56,10.81-.57,32.67-2.38,32.76s-5.19-21.53-5.74-32.34C40.16,302.26,42.22,301.83,44.21,301.72Z" transform="translate(85.16 35.34)"/><line class="cls-32" x1="132.13" y1="340.1" x2="129.77" y2="340.22"/><line class="cls-32" x1="129.18" y1="343.72" x2="126.82" y2="343.84"/><line class="cls-32" x1="130.1" y1="350.52" x2="127.74" y2="350.64"/><line class="cls-32" x1="132.27" y1="346.76" x2="129.91" y2="346.89"/><line class="cls-32" x1="132.13" y1="354.98" x2="129.77" y2="355.1"/><line class="cls-32" x1="131.56" y1="360.98" x2="129.2" y2="361.1"/><path class="cls-21" d="M42.9,303.57c-.21-.26,3-2.63,4.25-3.64,3.77-3.05,5.12-7.1,6.41-5.5.89,1.1-3.57,5.35-5.1,6.58S44,304.9,42.9,303.57Z" transform="translate(85.16 35.34)"/><path class="cls-30" d="M43.63,304.53c.08.33,3.92-.76,5.48-1.12,4.72-1.11,8.75.31,8.28-1.69-.33-1.38-6.42-.46-8.33,0S43.24,302.86,43.63,304.53Z" transform="translate(85.16 35.34)"/><path class="cls-31" d="M43.55,303.44c-.15-.3,3.49-1.94,4.92-2.67,4.32-2.19,6.49-5.87,7.42-4,.64,1.26-4.62,4.48-6.37,5.37S44.33,305,43.55,303.44Z" transform="translate(85.16 35.34)"/><path class="cls-33" d="M45.47,302.86c.9,1.77,1.55,3.77-1,5.05-9.65,4.9-30.08,12.73-30.9,11.11s17.57-13.47,27.22-18.37C43.34,299.38,44.58,301.08,45.47,302.86Z" transform="translate(85.16 35.34)"/><line class="cls-32" x1="128.98" y1="341.96" x2="127.91" y2="339.85"/><line class="cls-32" x1="124.48" y1="340.73" x2="123.41" y2="338.62"/><line class="cls-32" x1="118.63" y1="344.33" x2="117.56" y2="342.22"/><line class="cls-32" x1="122.95" y1="344.79" x2="121.88" y2="342.69"/><line class="cls-32" x1="115.38" y1="348" x2="114.31" y2="345.89"/><line class="cls-32" x1="109.67" y1="349.92" x2="108.6" y2="347.81"/><path class="cls-21" d="M32.54,300c-.31-.14,1.54-3.68,2.21-5.13,2-4.4,1.47-8.63,3.34-7.76,1.28.59-.86,6.37-1.68,8.15S34.1,300.68,32.54,300Z" transform="translate(85.16 35.34)"/><path class="cls-30" d="M33.62,300.5c.21.26,3.18-2.41,4.42-3.42,3.75-3.08,8-3.57,6.69-5.16-.9-1.1-6,2.41-7.48,3.65S32.53,299.17,33.62,300.5Z" transform="translate(85.16 35.34)"/><path class="cls-31" d="M33.07,299.55c-.27-.2,2.27-3.28,3.23-4.55,2.92-3.88,3.24-8.13,4.89-6.9,1.13.85-2.17,6.06-3.35,7.63S34.44,300.59,33.07,299.55Z" transform="translate(85.16 35.34)"/><path class="cls-33" d="M34.53,298.18c1.59,1.2,3.06,2.71,1.36,5C29.38,311.8,14.48,327.83,13,326.74s9.85-19.84,16.36-28.49C31.08,296,33,297,34.53,298.18Z" transform="translate(85.16 35.34)"/><line class="cls-32" x1="119.87" y1="337.63" x2="117.98" y2="336.21"/><line class="cls-32" x1="115.28" y1="338.51" x2="113.39" y2="337.09"/><line class="cls-32" x1="111.62" y1="344.31" x2="109.73" y2="342.89"/><line class="cls-32" x1="115.7" y1="342.83" x2="113.81" y2="341.41"/><line class="cls-32" x1="110.31" y1="349.04" x2="108.43" y2="347.62"/><line class="cls-32" x1="106.03" y1="353.28" x2="104.14" y2="351.86"/><path class="cls-21" d="M10.51,292.88c-.33,0-.27-4-.32-5.58-.15-4.85-2.56-8.37-.51-8.43,1.42,0,2.1,6.08,2.16,8S12.23,292.83,10.51,292.88Z" transform="translate(85.16 35.34)"/><path class="cls-30" d="M11.72,292.89c.31.13,1.77-3.59,2.42-5.05,2-4.43,5.54-6.77,3.66-7.61-1.29-.57-4.24,4.83-5,6.63S10.15,292.19,11.72,292.89Z" transform="translate(85.16 35.34)"/><path class="cls-31" d="M10.8,292.29c-.33-.06.57-4,.85-5.53.87-4.77-.75-8.72,1.28-8.35,1.39.26.77,6.39.42,8.32S12.5,292.6,10.8,292.29Z" transform="translate(85.16 35.34)"/><path class="cls-33" d="M11.5,290.41c2,.35,3.94,1,3.44,3.83C13,304.89,6.88,325.9,5.1,325.57S5,303.43,6.93,292.78C7.44,290,9.55,290.05,11.5,290.41Z" transform="translate(85.16 35.34)"/><line class="cls-32" x1="98.66" y1="329.34" x2="96.33" y2="328.91"/><line class="cls-32" x1="94.95" y1="332.18" x2="92.63" y2="331.76"/><line class="cls-32" x1="94.29" y1="339.01" x2="91.96" y2="338.59"/><line class="cls-32" x1="97.26" y1="335.86" x2="94.94" y2="335.43"/><line class="cls-32" x1="95.24" y1="343.82" x2="92.91" y2="343.4"/><line class="cls-32" x1="93.31" y1="349.53" x2="90.98" y2="349.11"/><path class="cls-21" d="M-19.38,296.43c-.33,0-.27-4-.32-5.58-.15-4.85-2.56-8.37-.51-8.44,1.42,0,2.1,6.08,2.16,8S-17.66,296.38-19.38,296.43Z" transform="translate(85.16 35.34)"/><path class="cls-30" d="M-18.17,296.43c.31.14,1.77-3.58,2.42-5,2-4.43,5.54-6.78,3.66-7.61-1.29-.58-4.24,4.83-5,6.62S-19.74,295.73-18.17,296.43Z" transform="translate(85.16 35.34)"/><path class="cls-31" d="M-19.09,295.84c-.33-.06.57-4,.85-5.53.87-4.77-.75-8.72,1.28-8.35,1.39.25.77,6.38.42,8.32S-17.39,296.14-19.09,295.84Z" transform="translate(85.16 35.34)"/><path class="cls-33" d="M-18.39,294c2,.36,3.94,1.06,3.44,3.83-1.94,10.65-8.06,31.66-9.84,31.34S-24.9,307-23,296.32C-22.45,293.55-20.34,293.59-18.39,294Z" transform="translate(85.16 35.34)"/><line class="cls-32" x1="68.77" y1="332.88" x2="66.44" y2="332.46"/><line class="cls-32" x1="65.06" y1="335.73" x2="62.74" y2="335.3"/><line class="cls-32" x1="64.4" y1="342.56" x2="62.07" y2="342.13"/><line class="cls-32" x1="67.37" y1="339.4" x2="65.05" y2="338.98"/><line class="cls-32" x1="65.35" y1="347.37" x2="63.02" y2="346.94"/><line class="cls-32" x1="63.42" y1="353.08" x2="61.09" y2="352.65"/><path class="cls-29" d="M-39.28,308.88c1.92-.53,4-.76,4.76,2,2.86,10.44,6.44,32,4.68,32.51S-39.51,323.43-42.37,313C-43.11,310.27-41.19,309.4-39.28,308.88Z" transform="translate(85.16 35.34)"/><line class="cls-32" x1="49.23" y1="346.59" x2="46.95" y2="347.21"/><line class="cls-32" x1="47.13" y1="350.75" x2="44.85" y2="351.38"/><line class="cls-32" x1="49.48" y1="357.2" x2="47.2" y2="357.83"/><line class="cls-32" x1="50.8" y1="353.07" x2="48.52" y2="353.69"/><line class="cls-32" x1="52.42" y1="361.12" x2="50.14" y2="361.75"/><line class="cls-32" x1="53.15" y1="367.11" x2="50.87" y2="367.73"/><path class="cls-21" d="M20.83,295.33c-.32-.1,1.12-3.83,1.62-5.35,1.53-4.61.47-8.74,2.42-8.09,1.35.44-.12,6.43-.74,8.29S22.47,295.87,20.83,295.33Z" transform="translate(85.16 35.34)"/><path class="cls-30" d="M22,295.75c.24.24,2.89-2.76,4-3.9,3.38-3.49,7.53-4.46,6.06-5.89-1-1-5.65,3.07-7,4.49S20.73,294.55,22,295.75Z" transform="translate(85.16 35.34)"/><path class="cls-31" d="M21.31,294.87C21,294.7,23.2,291.36,24,290c2.46-4.18,2.29-8.45,4.07-7.41,1.21.72-1.47,6.27-2.46,8S22.79,295.75,21.31,294.87Z" transform="translate(85.16 35.34)"/><path class="cls-33" d="M22.61,293.34c1.72,1,3.34,2.35,1.91,4.79-5.48,9.33-18.45,26.95-20,26S12,303.34,17.51,294C18.94,291.57,20.9,292.34,22.61,293.34Z" transform="translate(85.16 35.34)"/><line class="cls-32" x1="108.41" y1="332.74" x2="106.38" y2="331.55"/><line class="cls-32" x1="103.96" y1="334.14" x2="101.92" y2="332.94"/><line class="cls-32" x1="100.98" y1="340.33" x2="98.94" y2="339.13"/><line class="cls-32" x1="104.86" y1="338.39" x2="102.83" y2="337.19"/><line class="cls-32" x1="100.22" y1="345.17" x2="98.18" y2="343.97"/><line class="cls-32" x1="96.45" y1="349.87" x2="94.41" y2="348.67"/><path class="cls-21" d="M-30.9,308.3c-.32-.12,1.25-3.79,1.81-5.29,1.71-4.54.81-8.71,2.74-8,1.32.49-.37,6.42-1.06,8.26S-29.29,308.9-30.9,308.3Z" transform="translate(85.16 35.34)"/><path class="cls-30" d="M-29.79,308.76c.24.25,3-2.64,4.15-3.75,3.51-3.35,7.7-4.16,6.28-5.65-1-1-5.76,2.86-7.18,4.22S-31,307.52-29.79,308.76Z" transform="translate(85.16 35.34)"/><path class="cls-31" d="M-30.41,307.86c-.28-.18,2-3.44,2.88-4.79,2.62-4.08,2.62-8.35,4.35-7.24,1.19.76-1.7,6.2-2.76,7.85S-29,308.79-30.41,307.86Z" transform="translate(85.16 35.34)"/><path class="cls-33" d="M-29,306.38c1.67,1.07,3.25,2.48,1.73,4.85-5.84,9.12-19.48,26.23-21,25.25S-40,316-34.18,306.84C-32.66,304.47-30.72,305.31-29,306.38Z" transform="translate(85.16 35.34)"/><line class="cls-32" x1="56.6" y1="345.8" x2="54.6" y2="344.53"/><line class="cls-32" x1="52.09" y1="347.03" x2="50.1" y2="345.75"/><line class="cls-32" x1="48.88" y1="353.09" x2="46.89" y2="351.82"/><line class="cls-32" x1="52.83" y1="351.3" x2="50.84" y2="350.03"/><line class="cls-32" x1="47.93" y1="357.9" x2="45.94" y2="356.63"/><line class="cls-32" x1="43.98" y1="362.46" x2="41.99" y2="361.18"/><path class="cls-29" d="M17.56,301.59c2-.1,4.08.12,4.22,2.94.56,10.81-.57,32.66-2.39,32.76S14.21,315.76,13.65,305C13.51,302.13,15.57,301.69,17.56,301.59Z" transform="translate(85.16 35.34)"/><line class="cls-32" x1="105.48" y1="339.96" x2="103.12" y2="340.08"/><line class="cls-32" x1="102.53" y1="343.58" x2="100.17" y2="343.7"/><line class="cls-32" x1="103.45" y1="350.38" x2="101.09" y2="350.51"/><line class="cls-32" x1="105.62" y1="346.63" x2="103.26" y2="346.75"/><line class="cls-32" x1="105.48" y1="354.85" x2="103.12" y2="354.97"/><line class="cls-32" x1="104.91" y1="360.85" x2="102.55" y2="360.97"/><path class="cls-29" d="M39.71,305.06c2-.1,4.08.13,4.22,2.94.56,10.81-.57,32.67-2.38,32.76s-5.19-21.53-5.74-32.34C35.66,305.61,37.72,305.17,39.71,305.06Z" transform="translate(85.16 35.34)"/><line class="cls-32" x1="127.63" y1="343.44" x2="125.27" y2="343.56"/><line class="cls-32" x1="124.68" y1="347.06" x2="122.32" y2="347.18"/><line class="cls-32" x1="125.6" y1="353.86" x2="123.24" y2="353.98"/><line class="cls-32" x1="127.77" y1="350.1" x2="125.41" y2="350.23"/><line class="cls-32" x1="127.63" y1="358.32" x2="125.27" y2="358.44"/><line class="cls-32" x1="127.06" y1="364.32" x2="124.7" y2="364.45"/><path class="cls-29" d="M17.79,309.94c1.75-1,3.73-1.67,5.09.8,5.21,9.49,13.71,29.66,12.11,30.53s-14-17.12-19.25-26.61C14.39,312.19,16.05,310.89,17.79,309.94Z" transform="translate(85.16 35.34)"/><line class="cls-32" x1="106.76" y1="346.8" x2="104.69" y2="347.94"/><line class="cls-32" x1="105.68" y1="351.35" x2="103.61" y2="352.48"/><line class="cls-32" x1="109.47" y1="357.07" x2="107.4" y2="358.21"/><line class="cls-32" x1="109.79" y1="352.74" x2="107.72" y2="353.88"/><line class="cls-32" x1="113.24" y1="360.2" x2="111.17" y2="361.34"/><line class="cls-32" x1="115.34" y1="365.85" x2="113.27" y2="366.99"/><path class="cls-29" d="M9.28,308.88c1.92-.53,4-.76,4.76,2,2.86,10.44,6.43,32,4.68,32.51S9.05,323.43,6.19,313C5.45,310.27,7.37,309.4,9.28,308.88Z" transform="translate(85.16 35.34)"/><line class="cls-32" x1="97.79" y1="346.59" x2="95.51" y2="347.21"/><line class="cls-32" x1="95.69" y1="350.75" x2="93.4" y2="351.38"/><line class="cls-32" x1="98.04" y1="357.2" x2="95.76" y2="357.83"/><line class="cls-32" x1="99.36" y1="353.07" x2="97.08" y2="353.69"/><line class="cls-32" x1="100.98" y1="361.12" x2="98.7" y2="361.75"/><line class="cls-32" x1="101.71" y1="367.11" x2="99.43" y2="367.73"/><path class="cls-29" d="M-37.35,306.5c1.76.92,3.45,2.18,2.13,4.68-5,9.59-17.14,27.81-18.74,27S-47.45,317-42.42,307.4C-41.11,304.9-39.11,305.58-37.35,306.5Z" transform="translate(85.16 35.34)"/><line class="cls-32" x1="48.64" y1="345.86" x2="46.55" y2="344.76"/><line class="cls-32" x1="44.26" y1="347.47" x2="42.16" y2="346.37"/><line class="cls-32" x1="41.58" y1="353.79" x2="39.49" y2="352.69"/><line class="cls-32" x1="45.37" y1="351.67" x2="43.27" y2="350.57"/><line class="cls-32" x1="41.05" y1="358.67" x2="38.96" y2="357.57"/><line class="cls-32" x1="37.51" y1="363.54" x2="35.41" y2="362.44"/><path class="cls-29" d="M-11.93,303.68c1.88.63,3.74,1.62,2.84,4.29-3.47,10.25-12.59,30.15-14.31,29.56s3.13-21.92,6.6-32.17C-15.89,302.69-13.81,303-11.93,303.68Z" transform="translate(85.16 35.34)"/><line class="cls-32" x1="74.68" y1="342.86" x2="72.44" y2="342.1"/><line class="cls-32" x1="70.6" y1="345.14" x2="68.36" y2="344.38"/><line class="cls-32" x1="68.94" y1="351.8" x2="66.7" y2="351.04"/><line class="cls-32" x1="72.35" y1="349.11" x2="70.11" y2="348.35"/><line class="cls-32" x1="69.18" y1="356.69" x2="66.94" y2="355.93"/><line class="cls-32" x1="66.44" y1="362.06" x2="64.2" y2="361.3"/><path class="cls-21" d="M-6.7,301.89c-.26.22-2.66-3-3.68-4.2-3.09-3.74-7.16-5-5.57-6.35,1.09-.9,5.39,3.51,6.64,5S-5.37,300.8-6.7,301.89Z" transform="translate(85.16 35.34)"/><path class="cls-30" d="M-5.74,301.16c.33-.09-.81-3.92-1.19-5.47-1.16-4.71.22-8.75-1.77-8.26-1.38.34-.39,6.42.08,8.33S-7.41,301.57-5.74,301.16Z" transform="translate(85.16 35.34)"/><path class="cls-31" d="M-6.83,301.25c-.3.15-2-3.47-2.72-4.89-2.24-4.3-5.95-6.42-4.12-7.37,1.25-.66,4.53,4.56,5.44,6.3S-5.31,300.45-6.83,301.25Z" transform="translate(85.16 35.34)"/><path class="cls-33" d="M-7.44,299.33c1.76-.92,3.76-1.58,5.07.92,5,9.6,13.06,29.94,11.45,30.78S-4.59,313.61-9.59,304C-10.89,301.51-9.2,300.25-7.44,299.33Z" transform="translate(85.16 35.34)"/><line class="cls-32" x1="81.5" y1="336.28" x2="79.4" y2="337.37"/><line class="cls-32" x1="80.32" y1="340.8" x2="78.22" y2="341.89"/><line class="cls-32" x1="83.98" y1="346.6" x2="81.88" y2="347.7"/><line class="cls-32" x1="84.4" y1="342.28" x2="82.3" y2="343.38"/><line class="cls-32" x1="87.68" y1="349.82" x2="85.59" y2="350.91"/><line class="cls-32" x1="89.66" y1="355.51" x2="87.57" y2="356.6"/><path class="cls-21" d="M19.92,299.32c-.26.22-2.66-3-3.68-4.21-3.1-3.73-7.16-5-5.57-6.35,1.08-.9,5.38,3.52,6.63,5S21.24,298.23,19.92,299.32Z" transform="translate(85.16 35.34)"/><path class="cls-30" d="M20.87,298.58c.33-.08-.8-3.91-1.18-5.46-1.16-4.71.22-8.75-1.78-8.26-1.37.34-.39,6.42.08,8.33S19.2,299,20.87,298.58Z" transform="translate(85.16 35.34)"/><path class="cls-31" d="M19.78,298.68c-.3.15-2-3.47-2.72-4.89-2.24-4.3-5.94-6.42-4.11-7.38,1.25-.65,4.53,4.57,5.43,6.31S21.31,297.88,19.78,298.68Z" transform="translate(85.16 35.34)"/><path class="cls-33" d="M19.18,296.76c1.76-.92,3.76-1.59,5.06.92,5,9.6,13.06,29.94,11.45,30.78S22,311,17,301.44C15.72,298.93,17.42,297.68,19.18,296.76Z" transform="translate(85.16 35.34)"/><line class="cls-32" x1="108.11" y1="333.71" x2="106.02" y2="334.8"/><line class="cls-32" x1="106.93" y1="338.23" x2="104.84" y2="339.32"/><line class="cls-32" x1="110.6" y1="344.03" x2="108.5" y2="345.12"/><line class="cls-32" x1="111.01" y1="339.71" x2="108.91" y2="340.8"/><line class="cls-32" x1="114.3" y1="347.25" x2="112.2" y2="348.34"/><line class="cls-32" x1="116.28" y1="352.94" x2="114.18" y2="354.03"/><path class="cls-21" d="M-14.83,309.27c-.27.2-2.48-3.13-3.42-4.42-2.87-3.92-6.85-5.46-5.19-6.67,1.14-.84,5.17,3.83,6.33,5.41S-13.44,308.25-14.83,309.27Z" transform="translate(85.16 35.34)"/><path class="cls-30" d="M-13.83,308.59c.33-.06-.57-4-.86-5.53-.87-4.77.74-8.72-1.28-8.35-1.39.26-.77,6.39-.42,8.32S-15.52,308.9-13.83,308.59Z" transform="translate(85.16 35.34)"/><path class="cls-31" d="M-14.93,308.61c-.3.14-1.77-3.58-2.42-5-2-4.43-5.55-6.77-3.67-7.61,1.29-.58,4.25,4.82,5,6.62S-13.36,307.91-14.93,308.61Z" transform="translate(85.16 35.34)"/><path class="cls-33" d="M-15.42,306.67c1.82-.82,3.85-1.36,5,1.21C-6,317.76.84,338.55-.82,339.29s-12.6-18.2-17-28.08C-19,308.63-17.23,307.48-15.42,306.67Z" transform="translate(85.16 35.34)"/><line class="cls-32" x1="73.42" y1="343.84" x2="71.26" y2="344.8"/><line class="cls-32" x1="71.97" y1="348.28" x2="69.81" y2="349.24"/><line class="cls-32" x1="75.28" y1="354.29" x2="73.12" y2="355.25"/><line class="cls-32" x1="75.95" y1="350" x2="73.8" y2="350.97"/><line class="cls-32" x1="78.79" y1="357.72" x2="76.63" y2="358.68"/><line class="cls-32" x1="80.42" y1="363.52" x2="78.27" y2="364.48"/></g><polygon class="cls-34" points="266.49 360.9 367.62 360.9 358.92 335.99 266.49 335.99 266.49 360.9"/><rect class="cls-3" x="201.04" y="260.22" width="26.71" height="16.41" rx="2.25" transform="translate(22.99 99.98) rotate(-15)"/><rect class="cls-3" x="220.01" y="271.11" width="3.17" height="46.23" transform="translate(16.56 102.72) rotate(-15)"/><rect class="cls-7" x="202.13" y="259.92" width="26.71" height="16.41" rx="2.25" transform="matrix(0.97, -0.26, 0.26, 0.97, 23.1, 100.25)"/><rect class="cls-7" x="220.84" y="270.89" width="3.17" height="46.23" transform="translate(16.64 102.93) rotate(-15)"/><text class="cls-35" transform="matrix(0.97, -0.26, 0.26, 0.97, 290.25, 309.09)">0.95$</text><g class="cls-36"><path class="cls-34" d="M188.67,319.84c-7.95-1.08-11.91-10.67-6.79-23.64s13.67-10.29,15.65-5.09-2.25,9.23-1.16,14.47S197.56,321,188.67,319.84Z" transform="translate(85.16 35.34)"/><path class="cls-37" d="M198.06,290.18a9.42,9.42,0,0,0-4.6-3.76,7.16,7.16,0,0,0-5.57.65.19.19,0,0,0-.09.18.21.21,0,0,0,.1.18l2.15,1.16-.41,3.24a.19.19,0,0,0,.09.19.2.2,0,0,0,.21,0l2.64-1.35,1.92,3.1a.18.18,0,0,0,.13.09h.09a.2.2,0,0,0,.15-.18l.35-3.94,2.61.73a.21.21,0,0,0,.21-.07A.21.21,0,0,0,198.06,290.18Z" transform="translate(85.16 35.34)"/><path class="cls-38" d="M187.84,291c-1.44-.73-4.33,2.85-5.27,6.6s2,4.87,2.49,2.77.23-3.8,1.61-5.3S189.06,291.6,187.84,291Z" transform="translate(85.16 35.34)"/><path class="cls-34" d="M259.78,319.08c-7.95-1.08-11.91-10.67-6.79-23.65s13.67-10.28,15.65-5.08-2.25,9.23-1.16,14.47S268.67,320.28,259.78,319.08Z" transform="translate(85.16 35.34)"/><path class="cls-37" d="M269.17,289.41a9.43,9.43,0,0,0-4.6-3.75,7.12,7.12,0,0,0-5.57.65.19.19,0,0,0-.09.18.22.22,0,0,0,.1.18l2.15,1.15-.41,3.24a.22.22,0,0,0,.09.2.2.2,0,0,0,.21,0l2.64-1.36,1.92,3.1a.26.26,0,0,0,.13.1h.09a.19.19,0,0,0,.15-.18l.35-3.94,2.61.74a.21.21,0,0,0,.23-.31Z" transform="translate(85.16 35.34)"/><path class="cls-6" d="M264.14,287.59a9.3,9.3,0,0,0,1.28-4.91" transform="translate(85.16 35.34)"/><path class="cls-38" d="M259,290.22c-1.44-.72-4.33,2.85-5.27,6.61s2,4.87,2.49,2.77.23-3.8,1.61-5.3S260.18,290.84,259,290.22Z" transform="translate(85.16 35.34)"/><path class="cls-39" d="M199.12,324.32c-7.78-2-10.62-12-4.05-24.27s14.76-8.65,16.13-3.26-3.29,8.91-2.81,14.24S207.81,326.53,199.12,324.32Z" transform="translate(85.16 35.34)"/><path class="cls-37" d="M211.83,295.92a9.41,9.41,0,0,0-4.13-4.26,7.1,7.1,0,0,0-5.61,0,.2.2,0,0,0-.12.17.21.21,0,0,0,.09.18l2,1.4-.78,3.17a.21.21,0,0,0,.06.2.23.23,0,0,0,.21,0l2.78-1,1.55,3.3a.25.25,0,0,0,.12.11h.09a.21.21,0,0,0,.18-.17l.79-3.87,2.51,1a.18.18,0,0,0,.22,0A.21.21,0,0,0,211.83,295.92Z" transform="translate(85.16 35.34)"/><path class="cls-6" d="M207,293.54a9.33,9.33,0,0,0,1.84-4.74" transform="translate(85.16 35.34)"/><path class="cls-34" d="M201.59,295.56c-1.35-.89-4.63,2.33-6,6s1.45,5.06,2.15,3,.67-3.75,2.21-5.09S202.73,296.31,201.59,295.56Z" transform="translate(85.16 35.34)"/><path class="cls-39" d="M239.18,321.65c-7.94-1.13-11.84-10.75-6.62-23.69s13.74-10.18,15.69-5-2.32,9.22-1.27,14.46S248.06,322.92,239.18,321.65Z" transform="translate(85.16 35.34)"/><path class="cls-37" d="M248.78,292.06a9.37,9.37,0,0,0-4.57-3.79,7.14,7.14,0,0,0-5.57.61.2.2,0,0,0-.1.18.22.22,0,0,0,.1.18l2.15,1.17-.44,3.24a.2.2,0,0,0,.08.19.22.22,0,0,0,.22,0l2.64-1.34,1.9,3.11a.26.26,0,0,0,.13.1h.09a.21.21,0,0,0,.16-.18l.37-3.94,2.6.75a.2.2,0,0,0,.22-.07A.21.21,0,0,0,248.78,292.06Z" transform="translate(85.16 35.34)"/><path class="cls-6" d="M243.76,290.2a9.29,9.29,0,0,0,1.32-4.91" transform="translate(85.16 35.34)"/><path class="cls-34" d="M238.55,292.79c-1.43-.73-4.35,2.82-5.31,6.57s2,4.88,2.46,2.79.26-3.8,1.66-5.29S239.78,293.42,238.55,292.79Z" transform="translate(85.16 35.34)"/><path class="cls-39" d="M213.23,320c-7-4-7-14.36,2.61-24.46s16.53-4.39,16.41,1.18-5.56,7.7-6.52,13S221,324.44,213.23,320Z" transform="translate(85.16 35.34)"/><path class="cls-37" d="M233.09,296a9.44,9.44,0,0,0-2.85-5.21,7.09,7.09,0,0,0-5.4-1.49.21.21,0,0,0-.16.13.23.23,0,0,0,0,.2l1.56,1.88-1.6,2.85a.2.2,0,0,0,0,.21.18.18,0,0,0,.19.09l2.95-.26.61,3.59a.23.23,0,0,0,.09.14.13.13,0,0,0,.08,0,.2.2,0,0,0,.22-.11l1.8-3.52,2.14,1.66a.2.2,0,0,0,.23,0A.23.23,0,0,0,233.09,296Z" transform="translate(85.16 35.34)"/><path class="cls-34" d="M223.32,292.93c-1.06-1.21-5.09,1-7.37,4.14s0,5.27,1.26,3.5,1.64-3.43,3.49-4.3S224.22,294,223.32,292.93Z" transform="translate(85.16 35.34)"/><path class="cls-34" d="M191.57,334c-8,.57-13.83-8-11.46-21.76s11.3-12.85,14.3-8.16-.33,9.49,1.8,14.4S200.52,333.34,191.57,334Z" transform="translate(85.16 35.34)"/><path class="cls-37" d="M194.73,303a9.47,9.47,0,0,0-5.27-2.74,7.17,7.17,0,0,0-5.32,1.77.21.21,0,0,0,0,.2.19.19,0,0,0,.14.15l2.34.69.25,3.26a.21.21,0,0,0,.13.17.2.2,0,0,0,.21,0l2.3-1.86,2.51,2.64a.19.19,0,0,0,.15.07l.09,0a.2.2,0,0,0,.11-.21l-.46-3.93,2.7.19a.2.2,0,0,0,.2-.12A.22.22,0,0,0,194.73,303Z" transform="translate(85.16 35.34)"/><path class="cls-6" d="M189.43,302.25a9.31,9.31,0,0,0,.26-5.07" transform="translate(85.16 35.34)"/><path class="cls-38" d="M184.89,305.88c-1.56-.41-3.66,3.68-3.82,7.54s3,4.36,3,2.21-.55-3.77.5-5.52S186.21,306.24,184.89,305.88Z" transform="translate(85.16 35.34)"/><path class="cls-34" d="M214.8,329.07c-6.46-4.75-5.34-15.07,5.38-24s16.93-2.47,16.17,3.05-6.4,7-8,12.14S222,334.39,214.8,329.07Z" transform="translate(85.16 35.34)"/><path class="cls-37" d="M237.26,307.55a9.43,9.43,0,0,0-2.23-5.5,7.11,7.11,0,0,0-5.2-2.1.2.2,0,0,0-.17.11.2.2,0,0,0,0,.21l1.33,2L229.08,305a.2.2,0,0,0,0,.21.18.18,0,0,0,.17.11l3,.08.2,3.64a.17.17,0,0,0,.07.14l.08.05a.2.2,0,0,0,.22-.09l2.2-3.29,1.93,1.89a.18.18,0,0,0,.23,0A.21.21,0,0,0,237.26,307.55Z" transform="translate(85.16 35.34)"/><path class="cls-6" d="M233.72,303.54a9.28,9.28,0,0,0,3.48-3.7" transform="translate(85.16 35.34)"/><path class="cls-38" d="M227.91,303.36c-.92-1.33-5.17.42-7.8,3.26s-.56,5.25.86,3.63,2-3.22,4-3.87S228.68,304.49,227.91,303.36Z" transform="translate(85.16 35.34)"/><path class="cls-34" d="M249,327.35c-7.87-1.55-11.26-11.35-5.39-24s14.25-9.46,15.93-4.15-2.79,9.08-2,14.37S257.83,329.07,249,327.35Z" transform="translate(85.16 35.34)"/><path class="cls-37" d="M260.14,298.29a9.37,9.37,0,0,0-4.36-4,7.06,7.06,0,0,0-5.6.33.23.23,0,0,0-.11.17.22.22,0,0,0,.1.18l2.08,1.28-.6,3.21a.19.19,0,0,0,.07.2.2.2,0,0,0,.21,0l2.72-1.2,1.73,3.2a.2.2,0,0,0,.13.11h.08a.21.21,0,0,0,.17-.17l.58-3.92,2.56.89a.21.21,0,0,0,.22-.06A.21.21,0,0,0,260.14,298.29Z" transform="translate(85.16 35.34)"/><path class="cls-6" d="M255.23,296.18a9.35,9.35,0,0,0,1.57-4.84" transform="translate(85.16 35.34)"/><path class="cls-38" d="M249.9,298.5c-1.4-.81-4.49,2.59-5.65,6.28s1.73,5,2.32,2.91.45-3.78,1.92-5.19S251.08,299.19,249.9,298.5Z" transform="translate(85.16 35.34)"/><path class="cls-40" d="M267.21,332.09c-7.87-1.55-11.26-11.35-5.39-24s14.26-9.47,15.93-4.15-2.79,9.08-2,14.37S276,333.81,267.21,332.09Z" transform="translate(85.16 35.34)"/><path class="cls-37" d="M278.33,303a9.42,9.42,0,0,0-4.37-4,7.13,7.13,0,0,0-5.6.32.22.22,0,0,0-.1.18.21.21,0,0,0,.09.18l2.08,1.28-.6,3.21a.21.21,0,0,0,.07.2.2.2,0,0,0,.21,0l2.72-1.2,1.73,3.2a.21.21,0,0,0,.13.1h.09a.21.21,0,0,0,.16-.17l.58-3.92,2.56.89a.2.2,0,0,0,.22-.06A.2.2,0,0,0,278.33,303Z" transform="translate(85.16 35.34)"/><path class="cls-41" d="M268.08,303.24c-1.39-.81-4.49,2.59-5.65,6.28s1.73,5,2.32,2.91.46-3.78,1.93-5.19S269.27,303.93,268.08,303.24Z" transform="translate(85.16 35.34)"/><path class="cls-34" d="M270.07,342.32c-7.5-2.86-9.17-13.1-1.22-24.56s15.66-6.9,16.4-1.38-4.3,8.47-4.44,13.82S278.44,345.53,270.07,342.32Z" transform="translate(85.16 35.34)"/><path class="cls-37" d="M286,315.59a9.43,9.43,0,0,0-3.61-4.71,7.12,7.12,0,0,0-5.58-.63.2.2,0,0,0-.13.15.21.21,0,0,0,.06.19l1.83,1.62-1.14,3.06a.23.23,0,0,0,0,.21.19.19,0,0,0,.2.06l2.88-.72,1.16,3.46a.19.19,0,0,0,.11.12l.09,0a.2.2,0,0,0,.19-.14l1.24-3.76,2.37,1.31a.21.21,0,0,0,.23,0A.2.2,0,0,0,286,315.59Z" transform="translate(85.16 35.34)"/><path class="cls-6" d="M281.49,312.67a9.34,9.34,0,0,0,2.37-4.5" transform="translate(85.16 35.34)"/><path class="cls-38" d="M275.84,314c-1.23-1-4.87,1.79-6.64,5.23s.86,5.2,1.79,3.27,1.09-3.65,2.78-4.79S276.89,314.93,275.84,314Z" transform="translate(85.16 35.34)"/><path class="cls-40" d="M203.14,339.53c-7.88-1.54-11.27-11.35-5.39-24s14.25-9.46,15.93-4.15-2.8,9.08-2,14.37S211.94,341.26,203.14,339.53Z" transform="translate(85.16 35.34)"/><path class="cls-37" d="M214.25,310.47a9.43,9.43,0,0,0-4.36-4,7.11,7.11,0,0,0-5.6.33.18.18,0,0,0-.11.17.22.22,0,0,0,.1.18l2.08,1.28-.61,3.21a.21.21,0,0,0,.08.2.2.2,0,0,0,.21,0l2.71-1.2,1.74,3.21a.2.2,0,0,0,.12.1.14.14,0,0,0,.09,0,.19.19,0,0,0,.17-.17l.58-3.91,2.55.88a.2.2,0,0,0,.23-.06A.21.21,0,0,0,214.25,310.47Z" transform="translate(85.16 35.34)"/><path class="cls-6" d="M209.34,308.36a9.34,9.34,0,0,0,1.57-4.83" transform="translate(85.16 35.34)"/><path class="cls-41" d="M204,310.68c-1.4-.81-4.5,2.59-5.65,6.28s1.73,5,2.31,2.92.46-3.78,1.93-5.2S205.19,311.37,204,310.68Z" transform="translate(85.16 35.34)"/><path class="cls-40" d="M230.22,338.94c-7.42-3.06-8.82-13.34-.57-24.6s15.83-6.47,16.43-.94-4.52,8.36-4.8,13.7S238.51,342.36,230.22,338.94Z" transform="translate(85.16 35.34)"/><path class="cls-37" d="M246.82,312.63a9.32,9.32,0,0,0-3.48-4.8,7.11,7.11,0,0,0-5.56-.78.21.21,0,0,0-.14.15.22.22,0,0,0,.06.19l1.79,1.67-1.22,3a.2.2,0,0,0,0,.21.19.19,0,0,0,.2.06l2.9-.64,1.07,3.49a.17.17,0,0,0,.1.12l.09,0a.21.21,0,0,0,.2-.13l1.33-3.73,2.33,1.37a.19.19,0,0,0,.23,0A.19.19,0,0,0,246.82,312.63Z" transform="translate(85.16 35.34)"/><path class="cls-41" d="M236.74,310.82c-1.21-1.07-4.92,1.66-6.78,5.05s.72,5.22,1.7,3.31,1.19-3.62,2.91-4.71S237.77,311.73,236.74,310.82Z" transform="translate(85.16 35.34)"/></g><rect class="cls-3" x="18.75" y="301.34" width="26.71" height="16.41" rx="2.25" transform="translate(112.26 33.72) rotate(5)"/><rect class="cls-3" x="28.46" y="313.14" width="3.17" height="46.23" transform="translate(114.58 34.01) rotate(5)"/><rect class="cls-7" x="19.87" y="301.44" width="26.71" height="16.41" rx="2.25" transform="translate(112.27 33.63) rotate(5)"/><rect class="cls-7" x="29.31" y="313.22" width="3.17" height="46.23" transform="translate(114.59 33.93) rotate(5)"/><text class="cls-42" transform="translate(106.64 346.62) rotate(5)">1.20$</text><g class="cls-43"><polygon class="cls-44" points="16.26 410.22 26.87 379.81 134.6 380.93 134.6 410.22 16.26 410.22"/><circle class="cls-45" cx="-46.18" cy="351.05" r="15.92" transform="translate(-253.8 187.27) rotate(-63.27)"/><path class="cls-6" d="M-48.51,340.39c-.19-.57-1.09-.78-2-.48s-1.51,1-1.32,1.58,1.08.77,2,.47S-48.33,341-48.51,340.39Z" transform="translate(85.16 35.34)"/><circle class="cls-45" cx="-6.14" cy="349.08" r="15.92" transform="translate(-33.17 53.81) rotate(-19.75)"/><path class="cls-6" d="M-8.48,338.42c-.19-.57-1.09-.78-2-.48s-1.51,1-1.32,1.58,1.08.78,2,.47S-8.29,339-8.48,338.42Z" transform="translate(85.16 35.34)"/><circle class="cls-45" cx="36.37" cy="350.67" r="15.92" transform="matrix(0.35, -0.94, 0.94, 0.35, -220.03, 298.63)"/><path class="cls-6" d="M43.62,342.52c.35-.49,0-1.34-.79-1.9s-1.7-.64-2-.15,0,1.33.79,1.9S43.28,343,43.62,342.52Z" transform="translate(85.16 35.34)"/><circle class="cls-46" cx="59" cy="394.21" r="20.02"/><path class="cls-44" d="M-42.44,352.92s-1.16,6.57-2.36,13.19a20,20,0,0,0,16.51,12.66c.86-3,2.26-7.3,1.17-12.28C-29.63,355.1-42.44,352.92-42.44,352.92Z" transform="translate(85.16 35.34)"/><path class="cls-6" d="M-21.58,344.21c.23-.62-.4-1.44-1.42-1.81s-2-.18-2.26.45.41,1.44,1.42,1.81S-21.81,344.84-21.58,344.21Z" transform="translate(85.16 35.34)"/><circle class="cls-46" cx="20.06" cy="348.88" r="20.02" transform="translate(-199.47 213.09) rotate(-57.39)"/><path class="cls-44" d="M21.52,358.87C16.55,346.39,4,345.56.33,345.58A20,20,0,1,0,40,350.71C28.89,347.33,21.52,358.87,21.52,358.87Z" transform="translate(85.16 35.34)"/><path class="cls-6" d="M17.06,333.82c-.09-.66-1-1.07-2.11-.91s-1.87.82-1.77,1.48,1,1.06,2.11.91S17.16,334.48,17.06,333.82Z" transform="translate(85.16 35.34)"/><circle class="cls-47" cx="37.72" cy="405" r="17.8"/><path class="cls-6" d="M-46.18,357.52c0-.67-.87-1.21-2-1.21s-2,.54-2,1.21.88,1.2,2,1.2S-46.18,358.18-46.18,357.52Z" transform="translate(85.16 35.34)"/><circle class="cls-47" cx="2.25" cy="365.86" r="17.8" transform="translate(-270.91 327.23) rotate(-77.98)"/><path class="cls-48" d="M15.36,377.92a17.8,17.8,0,0,0,3.1-19.42c-.08-.18-.19-.35-.28-.54C15.56,360.26,10.56,366.5,15.36,377.92Z" transform="translate(85.16 35.34)"/><path class="cls-6" d="M-1.62,354.29c-.28-.6-1.3-.73-2.29-.29s-1.56,1.31-1.29,1.91,1.3.74,2.29.29S-1.35,354.9-1.62,354.29Z" transform="translate(85.16 35.34)"/><circle class="cls-49" cx="34" cy="369.65" r="17.8" transform="translate(-241.09 315.43) rotate(-70.78)"/><path class="cls-6" d="M38.27,358.22c.16-.64-.55-1.39-1.6-1.66s-2,0-2.2.68.55,1.38,1.59,1.66S38.1,358.87,38.27,358.22Z" transform="translate(85.16 35.34)"/></g><rect class="cls-3" x="245.17" y="304.25" width="26.71" height="16.41" rx="2.25" transform="translate(113.37 14) rotate(5)"/><rect class="cls-3" x="254.88" y="316.06" width="3.17" height="46.23" transform="translate(115.7 14.28) rotate(5)"/><rect class="cls-7" x="246.3" y="304.35" width="26.71" height="16.41" rx="2.25" transform="translate(113.38 13.9) rotate(5)"/><rect class="cls-7" x="255.73" y="316.13" width="3.17" height="46.23" transform="translate(115.71 14.21) rotate(5)"/><text class="cls-42" transform="translate(333.06 349.54) rotate(5)">1.35$</text><g class="cls-50"><path class="cls-51" d="M194.88,337.16c-8.45,1-10.7,15.73,1.33,15.65S209.35,335.53,194.88,337.16Z" transform="translate(85.16 35.34)"/><line class="cls-6" x1="287.13" y1="378.31" x2="287.13" y2="378.31"/><line class="cls-6" x1="281.11" y1="375.47" x2="281.11" y2="375.47"/><line class="cls-6" x1="284.89" y1="383.08" x2="284.89" y2="383.08"/><line class="cls-6" x1="275.85" y1="378.31" x2="275.85" y2="378.31"/><line class="cls-6" x1="275.85" y1="383.34" x2="275.85" y2="383.34"/><line class="cls-6" x1="282.23" y1="379.38" x2="282.23" y2="379.38"/><path class="cls-52" d="M228.74,334.55c-8.44.95-10.69,15.72,1.34,15.64S243.22,332.91,228.74,334.55Z" transform="translate(85.16 35.34)"/><line class="cls-6" x1="321.97" y1="375.69" x2="321.97" y2="375.69"/><line class="cls-6" x1="315.96" y1="372.86" x2="315.96" y2="372.86"/><line class="cls-6" x1="319.74" y1="380.46" x2="319.74" y2="380.46"/><line class="cls-6" x1="310.69" y1="375.69" x2="310.69" y2="375.69"/><line class="cls-6" x1="310.69" y1="380.73" x2="310.69" y2="380.73"/><line class="cls-6" x1="317.07" y1="376.77" x2="317.07" y2="376.77"/><path class="cls-53" d="M263.09,335.05c-8.44.95-10.69,15.73,1.34,15.64S277.57,333.42,263.09,335.05Z" transform="translate(85.16 35.34)"/><line class="cls-6" x1="356.32" y1="376.2" x2="356.32" y2="376.2"/><line class="cls-6" x1="350.31" y1="373.36" x2="350.31" y2="373.36"/><line class="cls-6" x1="354.09" y1="380.97" x2="354.09" y2="380.97"/><line class="cls-6" x1="345.04" y1="376.2" x2="345.04" y2="376.2"/><line class="cls-6" x1="345.04" y1="381.23" x2="345.04" y2="381.23"/><line class="cls-6" x1="351.42" y1="377.27" x2="351.42" y2="377.27"/><path class="cls-52" d="M180.86,357.59c4.78,7,18.9,2.11,13.2-8.49S172.65,345.55,180.86,357.59Z" transform="translate(85.16 35.34)"/><line class="cls-6" x1="267.83" y1="383.95" x2="267.83" y2="383.95"/><line class="cls-6" x1="268.13" y1="390.6" x2="268.13" y2="390.6"/><line class="cls-6" x1="273.09" y1="383.7" x2="273.09" y2="383.7"/><line class="cls-6" x1="273.1" y1="393.93" x2="273.1" y2="393.93"/><line class="cls-6" x1="277.55" y1="391.58" x2="277.55" y2="391.58"/><line class="cls-6" x1="271.07" y1="387.78" x2="271.07" y2="387.78"/><path class="cls-15" d="M239.72,338.61c-8.45,1-10.7,15.73,1.33,15.65S254.19,337,239.72,338.61Z" transform="translate(85.16 35.34)"/><line class="cls-6" x1="331.97" y1="379.76" x2="331.97" y2="379.76"/><line class="cls-6" x1="325.95" y1="376.92" x2="325.95" y2="376.92"/><line class="cls-6" x1="329.73" y1="384.53" x2="329.73" y2="384.53"/><line class="cls-6" x1="320.69" y1="379.76" x2="320.69" y2="379.76"/><line class="cls-6" x1="320.69" y1="384.79" x2="320.69" y2="384.79"/><line class="cls-6" x1="327.07" y1="380.83" x2="327.07" y2="380.83"/><path class="cls-52" d="M211.6,335.65c-7.59-2.41-14.85,24-3.38,25.5S220.33,338.41,211.6,335.65Z" transform="translate(85.16 35.34)"/><line class="cls-6" x1="295.53" y1="378.16" x2="295.53" y2="378.16"/><line class="cls-6" x1="296.79" y1="388.34" x2="296.79" y2="388.34"/><line class="cls-6" x1="292.94" y1="384.34" x2="292.94" y2="384.34"/><line class="cls-6" x1="297.71" y1="373.44" x2="297.71" y2="373.44"/><line class="cls-6" x1="297.96" y1="391.4" x2="297.96" y2="391.4"/><line class="cls-6" x1="294.68" y1="390.46" x2="294.68" y2="390.46"/><line class="cls-6" x1="300.48" y1="383.21" x2="300.48" y2="383.21"/><path class="cls-52" d="M261.75,362.73c7.73-1.94,0-28.24-10.5-23.49S252.87,365,261.75,362.73Z" transform="translate(85.16 35.34)"/><line class="cls-6" x1="344.19" y1="391.33" x2="344.19" y2="391.33"/><line class="cls-6" x1="337.77" y1="383.32" x2="337.77" y2="383.32"/><line class="cls-6" x1="343.15" y1="384.71" x2="343.15" y2="384.71"/><line class="cls-6" x1="344.81" y1="396.49" x2="344.81" y2="396.49"/><line class="cls-6" x1="335.17" y1="381.34" x2="335.17" y2="381.34"/><line class="cls-6" x1="338.46" y1="380.41" x2="338.46" y2="380.41"/><line class="cls-6" x1="337.33" y1="389.63" x2="337.33" y2="389.63"/><path class="cls-51" d="M266.87,348.94c-.06,8,27.33,7.1,25.37-4.29S266.94,339.78,266.87,348.94Z" transform="translate(85.16 35.34)"/><line class="cls-6" x1="359.24" y1="383.34" x2="359.24" y2="383.34"/><line class="cls-6" x1="368.59" y1="379.13" x2="368.59" y2="379.13"/><line class="cls-6" x1="365.91" y1="383.99" x2="365.91" y2="383.99"/><line class="cls-6" x1="354.09" y1="382.65" x2="354.09" y2="382.65"/><line class="cls-6" x1="371.17" y1="377.11" x2="371.17" y2="377.11"/><line class="cls-6" x1="371.24" y1="380.52" x2="371.24" y2="380.52"/><line class="cls-6" x1="362.6" y1="377.12" x2="362.6" y2="377.12"/><path class="cls-53" d="M208.31,354.23c2.27-6.47-7.83-11.71-14.64-4s-14.08,4.57-13.3,13.61S201.61,373.35,208.31,354.23Z" transform="translate(85.16 35.34)"/><line class="cls-6" x1="286" y1="387.09" x2="286" y2="387.09"/><line class="cls-6" x1="279.08" y1="390.39" x2="279.08" y2="390.39"/><line class="cls-6" x1="286.31" y1="392.23" x2="286.31" y2="392.23"/><line class="cls-6" x1="290.17" y1="387.74" x2="290.17" y2="387.74"/><line class="cls-6" x1="272.12" y1="396.69" x2="272.12" y2="396.69"/><line class="cls-6" x1="281.3" y1="398.4" x2="281.3" y2="398.4"/><line class="cls-6" x1="274.01" y1="402.64" x2="274.01" y2="402.64"/><line class="cls-6" x1="282.32" y1="391.88" x2="282.32" y2="391.88"/><path class="cls-51" d="M235.24,365c6.85.41,9.14-10.73-.1-15.19s-8.24-12.3-16.72-9.08S215,363.71,235.24,365Z" transform="translate(85.16 35.34)"/><line class="cls-6" x1="320.76" y1="392.43" x2="320.76" y2="392.43"/><line class="cls-6" x1="315.7" y1="386.67" x2="315.7" y2="386.67"/><line class="cls-6" x1="315.9" y1="394.13" x2="315.9" y2="394.13"/><line class="cls-6" x1="321.27" y1="396.62" x2="321.27" y2="396.62"/><line class="cls-6" x1="307.74" y1="381.69" x2="307.74" y2="381.69"/><line class="cls-6" x1="308.6" y1="391" x2="308.6" y2="391"/><line class="cls-6" x1="302.52" y1="385.13" x2="302.52" y2="385.13"/><line class="cls-6" x1="315.14" y1="390.2" x2="315.14" y2="390.2"/><path class="cls-15" d="M221.51,350.3c-8.45.95-10.7,15.72,1.33,15.64S236,348.66,221.51,350.3Z" transform="translate(85.16 35.34)"/><line class="cls-6" x1="313.76" y1="391.44" x2="313.76" y2="391.44"/><line class="cls-6" x1="307.74" y1="388.61" x2="307.74" y2="388.61"/><line class="cls-6" x1="311.52" y1="396.21" x2="311.52" y2="396.21"/><line class="cls-6" x1="302.48" y1="391.44" x2="302.48" y2="391.44"/><line class="cls-6" x1="302.48" y1="396.48" x2="302.48" y2="396.48"/><line class="cls-6" x1="308.86" y1="392.52" x2="308.86" y2="392.52"/><path class="cls-53" d="M242.3,350.3c-8.44.95-10.7,15.72,1.34,15.64S256.78,348.66,242.3,350.3Z" transform="translate(85.16 35.34)"/><line class="cls-6" x1="334.55" y1="391.44" x2="334.55" y2="391.44"/><line class="cls-6" x1="328.53" y1="388.61" x2="328.53" y2="388.61"/><line class="cls-6" x1="332.31" y1="396.21" x2="332.31" y2="396.21"/><line class="cls-6" x1="323.27" y1="391.44" x2="323.27" y2="391.44"/><line class="cls-6" x1="323.27" y1="396.48" x2="323.27" y2="396.48"/><line class="cls-6" x1="329.65" y1="392.52" x2="329.65" y2="392.52"/><path class="cls-53" d="M211.32,353.38c-8.44.95-10.69,15.72,1.34,15.64S225.8,351.74,211.32,353.38Z" transform="translate(85.16 35.34)"/><line class="cls-6" x1="303.57" y1="394.52" x2="303.57" y2="394.52"/><line class="cls-6" x1="297.56" y1="391.69" x2="297.56" y2="391.69"/><line class="cls-6" x1="301.34" y1="399.29" x2="301.34" y2="399.29"/><line class="cls-6" x1="292.29" y1="394.52" x2="292.29" y2="394.52"/><line class="cls-6" x1="292.29" y1="399.56" x2="292.29" y2="399.56"/><line class="cls-6" x1="298.67" y1="395.6" x2="298.67" y2="395.6"/><path class="cls-15" d="M271.06,342.42c-8.45.95-10.7,15.73,1.33,15.64S285.53,340.79,271.06,342.42Z" transform="translate(85.16 35.34)"/><line class="cls-6" x1="363.31" y1="383.57" x2="363.31" y2="383.57"/><line class="cls-6" x1="357.29" y1="380.73" x2="357.29" y2="380.73"/><line class="cls-6" x1="361.07" y1="388.34" x2="361.07" y2="388.34"/><line class="cls-6" x1="352.03" y1="383.57" x2="352.03" y2="383.57"/><line class="cls-6" x1="352.03" y1="388.6" x2="352.03" y2="388.6"/><line class="cls-6" x1="358.41" y1="384.64" x2="358.41" y2="384.64"/><path class="cls-53" d="M260.1,359c-2.12,8.23,10.89,15.6,15.09,4.33S263.74,344.89,260.1,359Z" transform="translate(85.16 35.34)"/><line class="cls-6" x1="353.21" y1="389.78" x2="353.21" y2="389.78"/><line class="cls-6" x1="348.41" y1="394.39" x2="348.41" y2="394.39"/><line class="cls-6" x1="356.87" y1="393.57" x2="356.87" y2="393.57"/><line class="cls-6" x1="349.19" y1="400.32" x2="349.19" y2="400.32"/><line class="cls-6" x1="353.89" y1="402.12" x2="353.89" y2="402.12"/><line class="cls-6" x1="352.46" y1="394.74" x2="352.46" y2="394.74"/><path class="cls-52" d="M282.29,362.64c4.79,7,18.91,2.11,13.21-8.49S274.09,350.6,282.29,362.64Z" transform="translate(85.16 35.34)"/><line class="cls-6" x1="369.27" y1="389" x2="369.27" y2="389"/><line class="cls-6" x1="369.57" y1="395.64" x2="369.57" y2="395.64"/><line class="cls-6" x1="374.53" y1="388.75" x2="374.53" y2="388.75"/><line class="cls-6" x1="374.53" y1="398.97" x2="374.53" y2="398.97"/><line class="cls-6" x1="378.99" y1="396.62" x2="378.99" y2="396.62"/><line class="cls-6" x1="372.5" y1="392.83" x2="372.5" y2="392.83"/><path class="cls-52" d="M183.2,378.34c-6.38-2.51-3.77-13.58,6.49-13.73s12.65-7.7,19-1.21S202.06,385.73,183.2,378.34Z" transform="translate(85.16 35.34)"/><line class="cls-6" x1="271.34" y1="406.4" x2="271.34" y2="406.4"/><line class="cls-6" x1="278.35" y1="403.31" x2="278.35" y2="403.31"/><line class="cls-6" x1="275.03" y1="409.99" x2="275.03" y2="409.99"/><line class="cls-6" x1="269.11" y1="409.99" x2="269.11" y2="409.99"/><line class="cls-6" x1="287.67" y1="402.14" x2="287.67" y2="402.14"/><line class="cls-6" x1="282.97" y1="410.22" x2="282.97" y2="410.22"/><line class="cls-6" x1="290.95" y1="407.46" x2="290.95" y2="407.46"/><line class="cls-6" x1="277.37" y1="406.74" x2="277.37" y2="406.74"/><path class="cls-52" d="M251.51,376.67c6.38-2.51,3.77-13.58-6.49-13.73s-12.65-7.7-19-1.21S232.65,384.06,251.51,376.67Z" transform="translate(85.16 35.34)"/><line class="cls-6" x1="333.69" y1="404.73" x2="333.69" y2="404.73"/><line class="cls-6" x1="326.67" y1="401.64" x2="326.67" y2="401.64"/><line class="cls-6" x1="329.99" y1="408.31" x2="329.99" y2="408.31"/><line class="cls-6" x1="335.91" y1="408.31" x2="335.91" y2="408.31"/><line class="cls-6" x1="317.35" y1="400.47" x2="317.35" y2="400.47"/><line class="cls-6" x1="322.05" y1="408.55" x2="322.05" y2="408.55"/><line class="cls-6" x1="314.07" y1="405.79" x2="314.07" y2="405.79"/><line class="cls-6" x1="327.65" y1="405.07" x2="327.65" y2="405.07"/><path class="cls-51" d="M293.47,379.35c6.85.41,9.14-10.73-.11-15.19s-8.23-12.3-16.71-9.09S273.25,378.11,293.47,379.35Z" transform="translate(85.16 35.34)"/><line class="cls-6" x1="378.99" y1="406.83" x2="378.99" y2="406.83"/><line class="cls-6" x1="373.92" y1="401.07" x2="373.92" y2="401.07"/><line class="cls-6" x1="374.13" y1="408.53" x2="374.13" y2="408.53"/><line class="cls-6" x1="379.5" y1="411.02" x2="379.5" y2="411.02"/><line class="cls-6" x1="365.97" y1="396.09" x2="365.97" y2="396.09"/><line class="cls-6" x1="366.83" y1="405.39" x2="366.83" y2="405.39"/><line class="cls-6" x1="360.75" y1="399.53" x2="360.75" y2="399.53"/><line class="cls-6" x1="373.37" y1="404.6" x2="373.37" y2="404.6"/><path class="cls-51" d="M206,370.36c-2.42,7.59,24,14.9,25.5,3.44S208.73,361.64,206,370.36Z" transform="translate(85.16 35.34)"/><line class="cls-6" x1="298.28" y1="406.95" x2="298.28" y2="406.95"/><line class="cls-6" x1="308.46" y1="405.71" x2="308.46" y2="405.71"/><line class="cls-6" x1="304.45" y1="409.55" x2="304.45" y2="409.55"/><line class="cls-6" x1="293.56" y1="404.76" x2="293.56" y2="404.76"/><line class="cls-6" x1="311.52" y1="404.54" x2="311.52" y2="404.54"/><line class="cls-6" x1="310.57" y1="407.82" x2="310.57" y2="407.82"/><line class="cls-6" x1="303.33" y1="402.01" x2="303.33" y2="402.01"/><path class="cls-52" d="M290.56,367.46c-.07-8-27.44-6.65-25.29,4.71S290.65,376.62,290.56,367.46Z" transform="translate(85.16 35.34)"/><line class="cls-6" x1="358.01" y1="406.03" x2="358.01" y2="406.03"/><line class="cls-6" x1="368.08" y1="404.09" x2="368.08" y2="404.09"/><line class="cls-6" x1="364.35" y1="408.2" x2="364.35" y2="408.2"/><line class="cls-6" x1="353.16" y1="404.17" x2="353.16" y2="404.17"/><line class="cls-6" x1="371.05" y1="402.71" x2="371.05" y2="402.71"/><line class="cls-6" x1="370.34" y1="406.05" x2="370.34" y2="406.05"/><line class="cls-6" x1="362.71" y1="400.75" x2="362.71" y2="400.75"/><path class="cls-51" d="M251.18,359.65c-7.1,3.62,6.29,27.53,15.5,20.54S259.33,355.49,251.18,359.65Z" transform="translate(85.16 35.34)"/><line class="cls-6" x1="340.49" y1="400.96" x2="340.49" y2="400.96"/><line class="cls-6" x1="348.54" y1="407.33" x2="348.54" y2="407.33"/><line class="cls-6" x1="342.98" y1="407.18" x2="342.98" y2="407.18"/><line class="cls-6" x1="338.73" y1="396.08" x2="338.73" y2="396.08"/><line class="cls-6" x1="351.52" y1="408.67" x2="351.52" y2="408.67"/><line class="cls-6" x1="348.52" y1="410.31" x2="348.52" y2="410.31"/><line class="cls-6" x1="347.56" y1="401.08" x2="347.56" y2="401.08"/></g></g><g id="STAND_STRUCTURE" data-name="STAND STRUCTURE"><polygon class="cls-13" points="85.5 182.65 79.7 173.53 130.77 93.28 136.57 102.39 85.5 182.65"/><rect class="cls-14" x="78.66" y="108.99" width="8.2" height="281.81"/><rect class="cls-13" x="86.86" y="108.99" width="2.05" height="281.81"/><rect class="cls-13" x="169.36" width="79.25" height="47.05" rx="7.55"/><rect class="cls-14" x="167.55" width="79.25" height="47.05" rx="7.55"/><path class="cls-14" d="M85,26.65H329.39a4.8,4.8,0,0,1,4.8,4.8v8.84a0,0,0,0,1,0,0h-254a0,0,0,0,1,0,0V31.45A4.8,4.8,0,0,1,85,26.65Z"/><polygon class="cls-13" points="328.85 182.65 334.65 173.53 283.58 93.28 277.78 102.39 328.85 182.65"/><rect class="cls-14" x="242.33" y="73.65" width="8.2" height="281.81" transform="translate(578.03 464.44) rotate(180)"/><rect class="cls-13" x="325.44" y="108.99" width="2.05" height="281.81"/><path class="cls-54" d="M62.6,68.83H94.72a0,0,0,0,1,0,0v40.84a16.06,16.06,0,0,1-16.06,16.06h0A16.06,16.06,0,0,1,62.6,109.67V68.83A0,0,0,0,1,62.6,68.83Z"/><polygon class="cls-55" points="80.17 40.29 62.59 68.83 94.72 68.83 108.39 40.29 80.17 40.29"/><path class="cls-7" d="M25.63,90.39h0c8.88,0,16.07-11.3,16.07-25.25V33.48H9.57V65.14C9.57,79.09,16.76,90.39,25.63,90.39Z" transform="translate(85.16 35.34)"/><polygon class="cls-56" points="108.39 40.29 94.72 68.83 126.85 68.83 136.62 40.29 108.39 40.29"/><path class="cls-54" d="M57.76,90.39h0c8.88,0,16.07-11.3,16.07-25.25V33.48H41.7V65.14C41.7,79.09,48.89,90.39,57.76,90.39Z" transform="translate(85.16 35.34)"/><polygon class="cls-55" points="136.62 40.29 126.85 68.83 158.98 68.83 164.84 40.29 136.62 40.29"/><path class="cls-7" d="M89.89,90.39h0c8.87,0,16.07-11.3,16.07-25.25V33.48H73.83V65.14C73.83,79.09,81,90.39,89.89,90.39Z" transform="translate(85.16 35.34)"/><polygon class="cls-56" points="164.84 40.29 158.98 68.83 191.11 68.83 193.06 40.29 164.84 40.29"/><path class="cls-54" d="M122,90.39h0c8.87,0,16.07-11.3,16.07-25.25V33.48H106V65.14C106,79.09,113.15,90.39,122,90.39Z" transform="translate(85.16 35.34)"/><polygon class="cls-55" points="193.06 40.29 191.11 68.83 223.24 68.83 221.29 40.29 193.06 40.29"/><path class="cls-7" d="M154.15,90.39h0c8.87,0,16.06-11.3,16.06-25.25V33.48H138.09V65.14C138.09,79.09,145.28,90.39,154.15,90.39Z" transform="translate(85.16 35.34)"/><polygon class="cls-56" points="221.29 40.29 223.24 68.83 255.37 68.83 249.51 40.29 221.29 40.29"/><path class="cls-54" d="M186.28,90.39h0c8.87,0,16.06-11.3,16.06-25.25V33.48H170.21V65.14C170.21,79.09,177.41,90.39,186.28,90.39Z" transform="translate(85.16 35.34)"/><polygon class="cls-55" points="249.51 40.29 255.37 68.83 287.5 68.83 277.74 40.29 249.51 40.29"/><path class="cls-7" d="M287.5,68.83h32.13a0,0,0,0,1,0,0v40.84a16.06,16.06,0,0,1-16.06,16.06h0a16.06,16.06,0,0,1-16.06-16.06V68.83A0,0,0,0,1,287.5,68.83Z"/><polygon class="cls-56" points="277.74 40.29 287.5 68.83 319.63 68.83 305.96 40.29 277.74 40.29"/><path class="cls-54" d="M319.63,68.83h32.13a0,0,0,0,1,0,0v40.84a16.06,16.06,0,0,1-16.06,16.06h0a16.06,16.06,0,0,1-16.06-16.06V68.83A0,0,0,0,1,319.63,68.83Z"/><polygon class="cls-55" points="334.18 40.29 305.96 40.29 319.63 68.83 351.76 68.83 334.18 40.29"/><rect class="cls-7" x="179.18" y="9.61" width="57.61" height="21.55" rx="3.39"/><text class="cls-57" transform="translate(194.62 24.36) scale(0.64 1)"><tspan class="cls-58">L</tspan><tspan x="6.12" y="0">O</tspan><tspan class="cls-59" x="15.87" y="0">C</tspan><tspan x="24.13" y="0">AL </tspan></text></g></g></g></g></svg>