<svg xmlns="http://www.w3.org/2000/svg" viewBox="0 0 1600 1000" preserveAspectRatio="xMidYMid slice">
  <defs>
    <linearGradient id="bg3" x1="0" y1="0" x2="1" y2="1">
      <stop offset="0" stop-color="#06121a"/>
      <stop offset="1" stop-color="#040a10"/>
    </linearGradient>
    <radialGradient id="g3a" cx="0.5" cy="0.3" r="0.6">
      <stop offset="0" stop-color="#6ce6ce" stop-opacity="0.5"/>
      <stop offset="1" stop-color="#6ce6ce" stop-opacity="0"/>
    </radialGradient>
    <radialGradient id="g3b" cx="0.85" cy="0.85" r="0.45">
      <stop offset="0" stop-color="#7c8cff" stop-opacity="0.35"/>
      <stop offset="1" stop-color="#7c8cff" stop-opacity="0"/>
    </radialGradient>
    <pattern id="grid3" x="0" y="0" width="60" height="60" patternUnits="userSpaceOnUse">
      <path d="M 60 0 L 0 0 0 60" fill="none" stroke="#ffffff" stroke-opacity="0.04" stroke-width="1"/>
    </pattern>
  </defs>
  <rect width="1600" height="1000" fill="url(#bg3)"/>
  <rect width="1600" height="1000" fill="url(#grid3)"/>
  <rect width="1600" height="1000" fill="url(#g3a)"/>
  <rect width="1600" height="1000" fill="url(#g3b)"/>

  <!-- Layered website preview -->
  <g transform="translate(180 140)">
    <rect width="1240" height="720" rx="22" fill="#ffffff" fill-opacity="0.04" stroke="#ffffff" stroke-opacity="0.1"/>
    <g transform="translate(40 36)">
      <rect width="220" height="20" rx="6" fill="#6ce6ce" fill-opacity="0.8"/>
      <rect x="240" y="3" width="80" height="14" rx="6" fill="#ffffff" fill-opacity="0.25"/>
      <rect x="340" y="3" width="80" height="14" rx="6" fill="#ffffff" fill-opacity="0.25"/>
      <rect x="440" y="3" width="80" height="14" rx="6" fill="#ffffff" fill-opacity="0.25"/>
      <rect x="1080" width="120" height="22" rx="11" fill="#6ce6ce" fill-opacity="0.9"/>
    </g>

    <g transform="translate(40 110)">
      <rect width="700" height="22" rx="6" fill="#ffffff" fill-opacity="0.35"/>
      <rect y="50" width="900" height="56" rx="10" fill="#ffffff" fill-opacity="0.5"/>
      <rect y="130" width="850" height="56" rx="10" fill="#ffffff" fill-opacity="0.5"/>
      <rect y="220" width="620" height="14" rx="7" fill="#ffffff" fill-opacity="0.18"/>
      <rect y="248" width="540" height="14" rx="7" fill="#ffffff" fill-opacity="0.18"/>
      <rect y="276" width="580" height="14" rx="7" fill="#ffffff" fill-opacity="0.18"/>
      <rect y="320" width="180" height="44" rx="22" fill="#6ce6ce"/>
      <rect x="200" y="320" width="180" height="44" rx="22" fill="none" stroke="#ffffff" stroke-opacity="0.3"/>
    </g>

    <g transform="translate(40 530)">
      <rect width="370" height="150" rx="14" fill="#ffffff" fill-opacity="0.04"/>
      <rect x="20" y="20" width="120" height="10" rx="5" fill="#6ce6ce"/>
      <rect x="20" y="46" width="280" height="10" rx="5" fill="#ffffff" fill-opacity="0.6"/>
      <rect x="20" y="68" width="240" height="8" rx="4" fill="#ffffff" fill-opacity="0.3"/>
      <rect x="20" y="84" width="220" height="8" rx="4" fill="#ffffff" fill-opacity="0.3"/>

      <rect x="400" width="370" height="150" rx="14" fill="#ffffff" fill-opacity="0.04"/>
      <rect x="420" y="20" width="120" height="10" rx="5" fill="#7c8cff"/>
      <rect x="420" y="46" width="280" height="10" rx="5" fill="#ffffff" fill-opacity="0.6"/>
      <rect x="420" y="68" width="240" height="8" rx="4" fill="#ffffff" fill-opacity="0.3"/>
      <rect x="420" y="84" width="220" height="8" rx="4" fill="#ffffff" fill-opacity="0.3"/>

      <rect x="800" width="370" height="150" rx="14" fill="#ffffff" fill-opacity="0.04"/>
      <rect x="820" y="20" width="120" height="10" rx="5" fill="#b388ff"/>
      <rect x="820" y="46" width="280" height="10" rx="5" fill="#ffffff" fill-opacity="0.6"/>
      <rect x="820" y="68" width="240" height="8" rx="4" fill="#ffffff" fill-opacity="0.3"/>
      <rect x="820" y="84" width="220" height="8" rx="4" fill="#ffffff" fill-opacity="0.3"/>
    </g>
  </g>
</svg>
